G04 #@! TF.FileFunction,Copper,L2,Bot,Signal*
%FSLAX46Y46*%
G04 Gerber Fmt 4.6, Leading zero omitted, Abs format (unit mm)*
G04 Created by KiCad (PCBNEW 4.0.2-stable) date 2016-04-27 07:39:18*
%MOMM*%
G01*
G04 APERTURE LIST*
%ADD10C,0.100000*%
%ADD11R,4.000000X4.000000*%
%ADD12C,1.998980*%
%ADD13R,1.300000X1.300000*%
%ADD14C,1.300000*%
%ADD15R,1.727200X1.727200*%
%ADD16O,1.727200X1.727200*%
%ADD17R,2.032000X2.032000*%
%ADD18O,2.032000X2.032000*%
%ADD19O,2.540000X2.032000*%
%ADD20C,1.524000*%
%ADD21C,0.685800*%
%ADD22C,0.508000*%
%ADD23C,0.254000*%
G04 APERTURE END LIST*
D10*
D11*
X70970140Y-27940000D03*
X64970660Y-27940000D03*
X67970400Y-32639000D03*
D12*
X101092000Y-39116000D03*
X93472000Y-39116000D03*
D13*
X74803000Y-37719000D03*
D14*
X74803000Y-39719000D03*
D13*
X74803000Y-54229000D03*
D14*
X74803000Y-56229000D03*
D13*
X74676000Y-71120000D03*
D14*
X74676000Y-73120000D03*
D15*
X96012000Y-62738000D03*
D16*
X98552000Y-62738000D03*
X96012000Y-65278000D03*
X98552000Y-65278000D03*
X96012000Y-67818000D03*
X98552000Y-67818000D03*
D17*
X102616000Y-73660000D03*
D18*
X102616000Y-71120000D03*
D15*
X96012000Y-30988000D03*
D16*
X98552000Y-30988000D03*
X96012000Y-33528000D03*
X98552000Y-33528000D03*
X96012000Y-36068000D03*
X98552000Y-36068000D03*
D17*
X102616000Y-27940000D03*
D18*
X102616000Y-25400000D03*
D12*
X81788000Y-33147000D03*
X81788000Y-25527000D03*
X84836000Y-25527000D03*
X84836000Y-33147000D03*
X81788000Y-49784000D03*
X81788000Y-42164000D03*
X84836000Y-42164000D03*
X84836000Y-49784000D03*
X81788000Y-66548000D03*
X81788000Y-58928000D03*
X84836000Y-58928000D03*
X84836000Y-66548000D03*
X87884000Y-33147000D03*
X87884000Y-25527000D03*
X87884000Y-49784000D03*
X87884000Y-42164000D03*
X87884000Y-66548000D03*
X87884000Y-58928000D03*
X93472000Y-59436000D03*
X101092000Y-59436000D03*
X101092000Y-52324000D03*
X93472000Y-52324000D03*
X93472000Y-45974000D03*
X101092000Y-45974000D03*
D19*
X77470000Y-30480000D03*
X77470000Y-27940000D03*
X77470000Y-33020000D03*
X77470000Y-46990000D03*
X77470000Y-44450000D03*
X77470000Y-49530000D03*
X77470000Y-63500000D03*
X77470000Y-60960000D03*
X77470000Y-66040000D03*
D20*
X70000000Y-37990000D03*
X70000000Y-43290000D03*
X70000000Y-53230000D03*
X70000000Y-58530000D03*
X70000000Y-68470000D03*
X70000000Y-73770000D03*
D14*
X83312000Y-38822000D03*
D13*
X83312000Y-36322000D03*
D14*
X83312000Y-55586000D03*
D13*
X83312000Y-53086000D03*
D14*
X83312000Y-72223000D03*
D13*
X83312000Y-69723000D03*
D21*
X101600000Y-30988000D03*
X100584000Y-67564000D03*
X90424000Y-68072000D03*
X90424000Y-51308000D03*
X90424000Y-35052000D03*
X103124000Y-64008000D03*
X94488000Y-40640000D03*
X101092000Y-55880000D03*
D22*
X87884000Y-33147000D02*
X93853000Y-33147000D01*
X93853000Y-33147000D02*
X96012000Y-30988000D01*
X87884000Y-49784000D02*
X87884000Y-44704000D01*
X90424000Y-39116000D02*
X96012000Y-33528000D01*
X90424000Y-42164000D02*
X90424000Y-39116000D01*
X87884000Y-44704000D02*
X90424000Y-42164000D01*
X87884000Y-49784000D02*
X87884000Y-54864000D01*
X90932000Y-60198000D02*
X96012000Y-65278000D01*
X90932000Y-57912000D02*
X90932000Y-60198000D01*
X87884000Y-54864000D02*
X90932000Y-57912000D01*
X96012000Y-36068000D02*
X96266000Y-36068000D01*
X96266000Y-36068000D02*
X98044000Y-37846000D01*
X98044000Y-37846000D02*
X99568000Y-37846000D01*
X99568000Y-37846000D02*
X100330000Y-37084000D01*
X100330000Y-37084000D02*
X104140000Y-37084000D01*
X104140000Y-37084000D02*
X104394000Y-37338000D01*
X104394000Y-37338000D02*
X104394000Y-69342000D01*
X104394000Y-69342000D02*
X97536000Y-69342000D01*
X97536000Y-69342000D02*
X96012000Y-67818000D01*
X87884000Y-66548000D02*
X94742000Y-66548000D01*
X94742000Y-66548000D02*
X96012000Y-67818000D01*
D23*
X101092000Y-52324000D02*
X101092000Y-53594000D01*
X103124000Y-55626000D02*
X103124000Y-64008000D01*
X101092000Y-53594000D02*
X103124000Y-55626000D01*
X101092000Y-39116000D02*
X96012000Y-39116000D01*
X96012000Y-39116000D02*
X94488000Y-40640000D01*
X101092000Y-55880000D02*
X101092000Y-59436000D01*
X77470000Y-33020000D02*
X78740000Y-33020000D01*
X80010000Y-27305000D02*
X81788000Y-25527000D01*
X80010000Y-31750000D02*
X80010000Y-27305000D01*
X78740000Y-33020000D02*
X80010000Y-31750000D01*
X77470000Y-49530000D02*
X78232000Y-49530000D01*
X78232000Y-49530000D02*
X79756000Y-48006000D01*
X79756000Y-48006000D02*
X79756000Y-44196000D01*
X79756000Y-44196000D02*
X81788000Y-42164000D01*
X77470000Y-66040000D02*
X78232000Y-66040000D01*
X78232000Y-66040000D02*
X79756000Y-64516000D01*
X79756000Y-64516000D02*
X79756000Y-60960000D01*
X79756000Y-60960000D02*
X81788000Y-58928000D01*
G36*
X105283000Y-21744692D02*
X105283000Y-37338000D01*
X105215329Y-36997794D01*
X105022618Y-36709382D01*
X104768618Y-36455382D01*
X104698014Y-36408206D01*
X104480206Y-36262671D01*
X104140000Y-36195000D01*
X100330000Y-36195000D01*
X100043356Y-36252017D01*
X100079959Y-36068000D01*
X99965885Y-35494511D01*
X99641029Y-35008330D01*
X99326248Y-34798000D01*
X99641029Y-34587670D01*
X99965885Y-34101489D01*
X100079959Y-33528000D01*
X99965885Y-32954511D01*
X99641029Y-32468330D01*
X99326248Y-32258000D01*
X99641029Y-32047670D01*
X99965885Y-31561489D01*
X100079959Y-30988000D01*
X99965885Y-30414511D01*
X99641029Y-29928330D01*
X99154848Y-29603474D01*
X98581359Y-29489400D01*
X98522641Y-29489400D01*
X97949152Y-29603474D01*
X97483558Y-29914574D01*
X97478762Y-29889083D01*
X97339690Y-29672959D01*
X97127490Y-29527969D01*
X96875600Y-29476960D01*
X95148400Y-29476960D01*
X94913083Y-29521238D01*
X94696959Y-29660310D01*
X94551969Y-29872510D01*
X94500960Y-30124400D01*
X94500960Y-31241804D01*
X93484764Y-32258000D01*
X89285194Y-32258000D01*
X89270462Y-32222345D01*
X88811073Y-31762154D01*
X88210547Y-31512794D01*
X87560306Y-31512226D01*
X86959345Y-31760538D01*
X86499154Y-32219927D01*
X86365895Y-32540851D01*
X86254965Y-32273042D01*
X85988163Y-32174443D01*
X85015605Y-33147000D01*
X85988163Y-34119557D01*
X86254965Y-34020958D01*
X86359888Y-33738517D01*
X86497538Y-34071655D01*
X86956927Y-34531846D01*
X87557453Y-34781206D01*
X88207694Y-34781774D01*
X88808655Y-34533462D01*
X89268846Y-34074073D01*
X89284655Y-34036000D01*
X93853000Y-34036000D01*
X94193206Y-33968329D01*
X94481618Y-33775618D01*
X94524721Y-33732515D01*
X94528957Y-33753807D01*
X89795382Y-38487382D01*
X89602671Y-38775794D01*
X89535000Y-39116000D01*
X89535000Y-41795764D01*
X89510495Y-41820269D01*
X89270462Y-41239345D01*
X88811073Y-40779154D01*
X88210547Y-40529794D01*
X87560306Y-40529226D01*
X86959345Y-40777538D01*
X86499154Y-41236927D01*
X86359966Y-41572130D01*
X86222462Y-41239345D01*
X85763073Y-40779154D01*
X85162547Y-40529794D01*
X84512306Y-40529226D01*
X83911345Y-40777538D01*
X83451154Y-41236927D01*
X83311966Y-41572130D01*
X83174462Y-41239345D01*
X82715073Y-40779154D01*
X82114547Y-40529794D01*
X81464306Y-40529226D01*
X80863345Y-40777538D01*
X80403154Y-41236927D01*
X80153794Y-41837453D01*
X80153226Y-42487694D01*
X80221483Y-42652887D01*
X79217185Y-43657185D01*
X79198125Y-43685710D01*
X78928754Y-43282567D01*
X78393131Y-42924675D01*
X77761321Y-42799000D01*
X77178679Y-42799000D01*
X76546869Y-42924675D01*
X76011246Y-43282567D01*
X75653354Y-43818190D01*
X75527679Y-44450000D01*
X75653354Y-45081810D01*
X76011246Y-45617433D01*
X76164748Y-45720000D01*
X76011246Y-45822567D01*
X75653354Y-46358190D01*
X75527679Y-46990000D01*
X75653354Y-47621810D01*
X76011246Y-48157433D01*
X76164748Y-48260000D01*
X76011246Y-48362567D01*
X75653354Y-48898190D01*
X75527679Y-49530000D01*
X75653354Y-50161810D01*
X76011246Y-50697433D01*
X76546869Y-51055325D01*
X77178679Y-51181000D01*
X77761321Y-51181000D01*
X78393131Y-51055325D01*
X78928754Y-50697433D01*
X79286646Y-50161810D01*
X79297410Y-50107694D01*
X80153226Y-50107694D01*
X80401538Y-50708655D01*
X80860927Y-51168846D01*
X81461453Y-51418206D01*
X82111694Y-51418774D01*
X82712655Y-51170462D01*
X82947363Y-50936163D01*
X83863443Y-50936163D01*
X83962042Y-51202965D01*
X84571582Y-51429401D01*
X85221377Y-51405341D01*
X85709958Y-51202965D01*
X85808557Y-50936163D01*
X84836000Y-49963605D01*
X83863443Y-50936163D01*
X82947363Y-50936163D01*
X83172846Y-50711073D01*
X83306105Y-50390149D01*
X83417035Y-50657958D01*
X83683837Y-50756557D01*
X84656395Y-49784000D01*
X83683837Y-48811443D01*
X83417035Y-48910042D01*
X83312112Y-49192483D01*
X83174462Y-48859345D01*
X82947351Y-48631837D01*
X83863443Y-48631837D01*
X84836000Y-49604395D01*
X85808557Y-48631837D01*
X85709958Y-48365035D01*
X85100418Y-48138599D01*
X84450623Y-48162659D01*
X83962042Y-48365035D01*
X83863443Y-48631837D01*
X82947351Y-48631837D01*
X82715073Y-48399154D01*
X82114547Y-48149794D01*
X81464306Y-48149226D01*
X80863345Y-48397538D01*
X80403154Y-48856927D01*
X80153794Y-49457453D01*
X80153226Y-50107694D01*
X79297410Y-50107694D01*
X79412321Y-49530000D01*
X79395284Y-49444347D01*
X80294815Y-48544816D01*
X80459996Y-48297605D01*
X80518000Y-48006000D01*
X80518000Y-44511630D01*
X81298915Y-43730715D01*
X81461453Y-43798206D01*
X82111694Y-43798774D01*
X82712655Y-43550462D01*
X83172846Y-43091073D01*
X83312034Y-42755870D01*
X83449538Y-43088655D01*
X83908927Y-43548846D01*
X84509453Y-43798206D01*
X85159694Y-43798774D01*
X85760655Y-43550462D01*
X86220846Y-43091073D01*
X86360034Y-42755870D01*
X86497538Y-43088655D01*
X86956927Y-43548846D01*
X87539862Y-43790902D01*
X87255382Y-44075382D01*
X87062671Y-44363794D01*
X86995000Y-44704000D01*
X86995000Y-48382806D01*
X86959345Y-48397538D01*
X86499154Y-48856927D01*
X86365895Y-49177851D01*
X86254965Y-48910042D01*
X85988163Y-48811443D01*
X85015605Y-49784000D01*
X85988163Y-50756557D01*
X86254965Y-50657958D01*
X86359888Y-50375517D01*
X86497538Y-50708655D01*
X86956927Y-51168846D01*
X86995000Y-51184655D01*
X86995000Y-54864000D01*
X87062671Y-55204206D01*
X87196890Y-55405078D01*
X87255382Y-55492618D01*
X90043000Y-58280236D01*
X90043000Y-60198000D01*
X90110671Y-60538206D01*
X90299525Y-60820846D01*
X90303382Y-60826618D01*
X94528957Y-65052193D01*
X94484041Y-65278000D01*
X94559827Y-65659000D01*
X89285194Y-65659000D01*
X89270462Y-65623345D01*
X88811073Y-65163154D01*
X88210547Y-64913794D01*
X87560306Y-64913226D01*
X86959345Y-65161538D01*
X86499154Y-65620927D01*
X86365895Y-65941851D01*
X86254965Y-65674042D01*
X85988163Y-65575443D01*
X85015605Y-66548000D01*
X85988163Y-67520557D01*
X86254965Y-67421958D01*
X86359888Y-67139517D01*
X86497538Y-67472655D01*
X86956927Y-67932846D01*
X87557453Y-68182206D01*
X88207694Y-68182774D01*
X88808655Y-67934462D01*
X89268846Y-67475073D01*
X89284655Y-67437000D01*
X94373764Y-67437000D01*
X94528957Y-67592193D01*
X94484041Y-67818000D01*
X94598115Y-68391489D01*
X94922971Y-68877670D01*
X95409152Y-69202526D01*
X95982641Y-69316600D01*
X96041359Y-69316600D01*
X96218190Y-69281426D01*
X96907382Y-69970618D01*
X97195794Y-70163329D01*
X97536000Y-70231000D01*
X101232038Y-70231000D01*
X101209615Y-70255182D01*
X101010025Y-70737056D01*
X101129164Y-70993000D01*
X102489000Y-70993000D01*
X102489000Y-70973000D01*
X102743000Y-70973000D01*
X102743000Y-70993000D01*
X104102836Y-70993000D01*
X104221975Y-70737056D01*
X104022385Y-70255182D01*
X103999962Y-70231000D01*
X104394000Y-70231000D01*
X104734206Y-70163329D01*
X105022618Y-69970618D01*
X105215329Y-69682206D01*
X105283000Y-69342000D01*
X105283000Y-77315308D01*
X105264497Y-77343000D01*
X54737000Y-77343000D01*
X54737000Y-74046661D01*
X68602758Y-74046661D01*
X68814990Y-74560303D01*
X69207630Y-74953629D01*
X69720900Y-75166757D01*
X70276661Y-75167242D01*
X70790303Y-74955010D01*
X71183629Y-74562370D01*
X71396757Y-74049100D01*
X71396783Y-74019016D01*
X73956590Y-74019016D01*
X74012271Y-74249611D01*
X74495078Y-74417622D01*
X75005428Y-74388083D01*
X75339729Y-74249611D01*
X75395410Y-74019016D01*
X74676000Y-73299605D01*
X73956590Y-74019016D01*
X71396783Y-74019016D01*
X71397242Y-73493339D01*
X71185010Y-72979697D01*
X71144462Y-72939078D01*
X73378378Y-72939078D01*
X73407917Y-73449428D01*
X73546389Y-73783729D01*
X73776984Y-73839410D01*
X74496395Y-73120000D01*
X74482252Y-73105858D01*
X74661858Y-72926252D01*
X74676000Y-72940395D01*
X74690142Y-72926252D01*
X74869748Y-73105858D01*
X74855605Y-73120000D01*
X75575016Y-73839410D01*
X75805611Y-73783729D01*
X75973622Y-73300922D01*
X75963267Y-73122016D01*
X82592590Y-73122016D01*
X82648271Y-73352611D01*
X83131078Y-73520622D01*
X83641428Y-73491083D01*
X83975729Y-73352611D01*
X84031410Y-73122016D01*
X83312000Y-72402605D01*
X82592590Y-73122016D01*
X75963267Y-73122016D01*
X75944083Y-72790572D01*
X75805611Y-72456271D01*
X75575018Y-72400590D01*
X75676680Y-72298928D01*
X75777441Y-72234090D01*
X75908637Y-72042078D01*
X82014378Y-72042078D01*
X82043917Y-72552428D01*
X82182389Y-72886729D01*
X82412984Y-72942410D01*
X83132395Y-72223000D01*
X83491605Y-72223000D01*
X84211016Y-72942410D01*
X84441611Y-72886729D01*
X84526077Y-72644000D01*
X100952560Y-72644000D01*
X100952560Y-74676000D01*
X100996838Y-74911317D01*
X101135910Y-75127441D01*
X101348110Y-75272431D01*
X101600000Y-75323440D01*
X103632000Y-75323440D01*
X103867317Y-75279162D01*
X104083441Y-75140090D01*
X104228431Y-74927890D01*
X104279440Y-74676000D01*
X104279440Y-72644000D01*
X104235162Y-72408683D01*
X104096090Y-72192559D01*
X103933052Y-72081160D01*
X104022385Y-71984818D01*
X104221975Y-71502944D01*
X104102836Y-71247000D01*
X102743000Y-71247000D01*
X102743000Y-71267000D01*
X102489000Y-71267000D01*
X102489000Y-71247000D01*
X101129164Y-71247000D01*
X101010025Y-71502944D01*
X101209615Y-71984818D01*
X101300097Y-72082398D01*
X101148559Y-72179910D01*
X101003569Y-72392110D01*
X100952560Y-72644000D01*
X84526077Y-72644000D01*
X84609622Y-72403922D01*
X84580083Y-71893572D01*
X84441611Y-71559271D01*
X84211016Y-71503590D01*
X83491605Y-72223000D01*
X83132395Y-72223000D01*
X82412984Y-71503590D01*
X82182389Y-71559271D01*
X82014378Y-72042078D01*
X75908637Y-72042078D01*
X75922431Y-72021890D01*
X75973440Y-71770000D01*
X75973440Y-70470000D01*
X75929162Y-70234683D01*
X75790090Y-70018559D01*
X75577890Y-69873569D01*
X75326000Y-69822560D01*
X74026000Y-69822560D01*
X73790683Y-69866838D01*
X73574559Y-70005910D01*
X73429569Y-70218110D01*
X73378560Y-70470000D01*
X73378560Y-71770000D01*
X73422838Y-72005317D01*
X73561910Y-72221441D01*
X73675329Y-72298937D01*
X73776982Y-72400590D01*
X73546389Y-72456271D01*
X73378378Y-72939078D01*
X71144462Y-72939078D01*
X70792370Y-72586371D01*
X70279100Y-72373243D01*
X69723339Y-72372758D01*
X69209697Y-72584990D01*
X68816371Y-72977630D01*
X68603243Y-73490900D01*
X68602758Y-74046661D01*
X54737000Y-74046661D01*
X54737000Y-68746661D01*
X68602758Y-68746661D01*
X68814990Y-69260303D01*
X69207630Y-69653629D01*
X69720900Y-69866757D01*
X70276661Y-69867242D01*
X70790303Y-69655010D01*
X71183629Y-69262370D01*
X71262262Y-69073000D01*
X82014560Y-69073000D01*
X82014560Y-70373000D01*
X82058838Y-70608317D01*
X82197910Y-70824441D01*
X82410110Y-70969431D01*
X82662000Y-71020440D01*
X82824385Y-71020440D01*
X82648271Y-71093389D01*
X82592590Y-71323984D01*
X83312000Y-72043395D01*
X84031410Y-71323984D01*
X83975729Y-71093389D01*
X83766098Y-71020440D01*
X83962000Y-71020440D01*
X84197317Y-70976162D01*
X84413441Y-70837090D01*
X84558431Y-70624890D01*
X84609440Y-70373000D01*
X84609440Y-69073000D01*
X84565162Y-68837683D01*
X84426090Y-68621559D01*
X84213890Y-68476569D01*
X83962000Y-68425560D01*
X82662000Y-68425560D01*
X82426683Y-68469838D01*
X82210559Y-68608910D01*
X82065569Y-68821110D01*
X82014560Y-69073000D01*
X71262262Y-69073000D01*
X71396757Y-68749100D01*
X71397242Y-68193339D01*
X71185010Y-67679697D01*
X70792370Y-67286371D01*
X70279100Y-67073243D01*
X69723339Y-67072758D01*
X69209697Y-67284990D01*
X68816371Y-67677630D01*
X68603243Y-68190900D01*
X68602758Y-68746661D01*
X54737000Y-68746661D01*
X54737000Y-60960000D01*
X75527679Y-60960000D01*
X75653354Y-61591810D01*
X76011246Y-62127433D01*
X76164748Y-62230000D01*
X76011246Y-62332567D01*
X75653354Y-62868190D01*
X75527679Y-63500000D01*
X75653354Y-64131810D01*
X76011246Y-64667433D01*
X76164748Y-64770000D01*
X76011246Y-64872567D01*
X75653354Y-65408190D01*
X75527679Y-66040000D01*
X75653354Y-66671810D01*
X76011246Y-67207433D01*
X76546869Y-67565325D01*
X77178679Y-67691000D01*
X77761321Y-67691000D01*
X78393131Y-67565325D01*
X78928754Y-67207433D01*
X79153087Y-66871694D01*
X80153226Y-66871694D01*
X80401538Y-67472655D01*
X80860927Y-67932846D01*
X81461453Y-68182206D01*
X82111694Y-68182774D01*
X82712655Y-67934462D01*
X82947363Y-67700163D01*
X83863443Y-67700163D01*
X83962042Y-67966965D01*
X84571582Y-68193401D01*
X85221377Y-68169341D01*
X85709958Y-67966965D01*
X85808557Y-67700163D01*
X84836000Y-66727605D01*
X83863443Y-67700163D01*
X82947363Y-67700163D01*
X83172846Y-67475073D01*
X83306105Y-67154149D01*
X83417035Y-67421958D01*
X83683837Y-67520557D01*
X84656395Y-66548000D01*
X83683837Y-65575443D01*
X83417035Y-65674042D01*
X83312112Y-65956483D01*
X83174462Y-65623345D01*
X82947351Y-65395837D01*
X83863443Y-65395837D01*
X84836000Y-66368395D01*
X85808557Y-65395837D01*
X85709958Y-65129035D01*
X85100418Y-64902599D01*
X84450623Y-64926659D01*
X83962042Y-65129035D01*
X83863443Y-65395837D01*
X82947351Y-65395837D01*
X82715073Y-65163154D01*
X82114547Y-64913794D01*
X81464306Y-64913226D01*
X80863345Y-65161538D01*
X80403154Y-65620927D01*
X80153794Y-66221453D01*
X80153226Y-66871694D01*
X79153087Y-66871694D01*
X79286646Y-66671810D01*
X79412321Y-66040000D01*
X79395284Y-65954347D01*
X80294815Y-65054816D01*
X80459996Y-64807605D01*
X80479014Y-64711996D01*
X80518000Y-64516000D01*
X80518000Y-61275630D01*
X81298915Y-60494715D01*
X81461453Y-60562206D01*
X82111694Y-60562774D01*
X82712655Y-60314462D01*
X83172846Y-59855073D01*
X83312034Y-59519870D01*
X83449538Y-59852655D01*
X83908927Y-60312846D01*
X84509453Y-60562206D01*
X85159694Y-60562774D01*
X85760655Y-60314462D01*
X86220846Y-59855073D01*
X86360034Y-59519870D01*
X86497538Y-59852655D01*
X86956927Y-60312846D01*
X87557453Y-60562206D01*
X88207694Y-60562774D01*
X88808655Y-60314462D01*
X89268846Y-59855073D01*
X89518206Y-59254547D01*
X89518774Y-58604306D01*
X89270462Y-58003345D01*
X88811073Y-57543154D01*
X88210547Y-57293794D01*
X87560306Y-57293226D01*
X86959345Y-57541538D01*
X86499154Y-58000927D01*
X86359966Y-58336130D01*
X86222462Y-58003345D01*
X85763073Y-57543154D01*
X85162547Y-57293794D01*
X84512306Y-57293226D01*
X83911345Y-57541538D01*
X83451154Y-58000927D01*
X83311966Y-58336130D01*
X83174462Y-58003345D01*
X82715073Y-57543154D01*
X82114547Y-57293794D01*
X81464306Y-57293226D01*
X80863345Y-57541538D01*
X80403154Y-58000927D01*
X80153794Y-58601453D01*
X80153226Y-59251694D01*
X80221483Y-59416887D01*
X79290551Y-60347819D01*
X79286646Y-60328190D01*
X78928754Y-59792567D01*
X78393131Y-59434675D01*
X77761321Y-59309000D01*
X77178679Y-59309000D01*
X76546869Y-59434675D01*
X76011246Y-59792567D01*
X75653354Y-60328190D01*
X75527679Y-60960000D01*
X54737000Y-60960000D01*
X54737000Y-58806661D01*
X68602758Y-58806661D01*
X68814990Y-59320303D01*
X69207630Y-59713629D01*
X69720900Y-59926757D01*
X70276661Y-59927242D01*
X70790303Y-59715010D01*
X71183629Y-59322370D01*
X71396757Y-58809100D01*
X71397242Y-58253339D01*
X71185010Y-57739697D01*
X70792370Y-57346371D01*
X70279100Y-57133243D01*
X69723339Y-57132758D01*
X69209697Y-57344990D01*
X68816371Y-57737630D01*
X68603243Y-58250900D01*
X68602758Y-58806661D01*
X54737000Y-58806661D01*
X54737000Y-57128016D01*
X74083590Y-57128016D01*
X74139271Y-57358611D01*
X74622078Y-57526622D01*
X75132428Y-57497083D01*
X75466729Y-57358611D01*
X75522410Y-57128016D01*
X74803000Y-56408605D01*
X74083590Y-57128016D01*
X54737000Y-57128016D01*
X54737000Y-56048078D01*
X73505378Y-56048078D01*
X73534917Y-56558428D01*
X73673389Y-56892729D01*
X73903984Y-56948410D01*
X74623395Y-56229000D01*
X74609252Y-56214858D01*
X74788858Y-56035252D01*
X74803000Y-56049395D01*
X74817142Y-56035252D01*
X74996748Y-56214858D01*
X74982605Y-56229000D01*
X75702016Y-56948410D01*
X75932611Y-56892729D01*
X76074490Y-56485016D01*
X82592590Y-56485016D01*
X82648271Y-56715611D01*
X83131078Y-56883622D01*
X83641428Y-56854083D01*
X83975729Y-56715611D01*
X84031410Y-56485016D01*
X83312000Y-55765605D01*
X82592590Y-56485016D01*
X76074490Y-56485016D01*
X76100622Y-56409922D01*
X76071083Y-55899572D01*
X75932611Y-55565271D01*
X75702018Y-55509590D01*
X75803680Y-55407928D01*
X75808109Y-55405078D01*
X82014378Y-55405078D01*
X82043917Y-55915428D01*
X82182389Y-56249729D01*
X82412984Y-56305410D01*
X83132395Y-55586000D01*
X83491605Y-55586000D01*
X84211016Y-56305410D01*
X84441611Y-56249729D01*
X84609622Y-55766922D01*
X84580083Y-55256572D01*
X84441611Y-54922271D01*
X84211016Y-54866590D01*
X83491605Y-55586000D01*
X83132395Y-55586000D01*
X82412984Y-54866590D01*
X82182389Y-54922271D01*
X82014378Y-55405078D01*
X75808109Y-55405078D01*
X75904441Y-55343090D01*
X76049431Y-55130890D01*
X76100440Y-54879000D01*
X76100440Y-53579000D01*
X76056162Y-53343683D01*
X75917090Y-53127559D01*
X75704890Y-52982569D01*
X75453000Y-52931560D01*
X74153000Y-52931560D01*
X73917683Y-52975838D01*
X73701559Y-53114910D01*
X73556569Y-53327110D01*
X73505560Y-53579000D01*
X73505560Y-54879000D01*
X73549838Y-55114317D01*
X73688910Y-55330441D01*
X73802329Y-55407937D01*
X73903982Y-55509590D01*
X73673389Y-55565271D01*
X73505378Y-56048078D01*
X54737000Y-56048078D01*
X54737000Y-53506661D01*
X68602758Y-53506661D01*
X68814990Y-54020303D01*
X69207630Y-54413629D01*
X69720900Y-54626757D01*
X70276661Y-54627242D01*
X70790303Y-54415010D01*
X71183629Y-54022370D01*
X71396757Y-53509100D01*
X71397242Y-52953339D01*
X71185010Y-52439697D01*
X71181320Y-52436000D01*
X82014560Y-52436000D01*
X82014560Y-53736000D01*
X82058838Y-53971317D01*
X82197910Y-54187441D01*
X82410110Y-54332431D01*
X82662000Y-54383440D01*
X82824385Y-54383440D01*
X82648271Y-54456389D01*
X82592590Y-54686984D01*
X83312000Y-55406395D01*
X84031410Y-54686984D01*
X83975729Y-54456389D01*
X83766098Y-54383440D01*
X83962000Y-54383440D01*
X84197317Y-54339162D01*
X84413441Y-54200090D01*
X84558431Y-53987890D01*
X84609440Y-53736000D01*
X84609440Y-52436000D01*
X84565162Y-52200683D01*
X84426090Y-51984559D01*
X84213890Y-51839569D01*
X83962000Y-51788560D01*
X82662000Y-51788560D01*
X82426683Y-51832838D01*
X82210559Y-51971910D01*
X82065569Y-52184110D01*
X82014560Y-52436000D01*
X71181320Y-52436000D01*
X70792370Y-52046371D01*
X70279100Y-51833243D01*
X69723339Y-51832758D01*
X69209697Y-52044990D01*
X68816371Y-52437630D01*
X68603243Y-52950900D01*
X68602758Y-53506661D01*
X54737000Y-53506661D01*
X54737000Y-43566661D01*
X68602758Y-43566661D01*
X68814990Y-44080303D01*
X69207630Y-44473629D01*
X69720900Y-44686757D01*
X70276661Y-44687242D01*
X70790303Y-44475010D01*
X71183629Y-44082370D01*
X71396757Y-43569100D01*
X71397242Y-43013339D01*
X71185010Y-42499697D01*
X70792370Y-42106371D01*
X70279100Y-41893243D01*
X69723339Y-41892758D01*
X69209697Y-42104990D01*
X68816371Y-42497630D01*
X68603243Y-43010900D01*
X68602758Y-43566661D01*
X54737000Y-43566661D01*
X54737000Y-40618016D01*
X74083590Y-40618016D01*
X74139271Y-40848611D01*
X74622078Y-41016622D01*
X75132428Y-40987083D01*
X75466729Y-40848611D01*
X75522410Y-40618016D01*
X74803000Y-39898605D01*
X74083590Y-40618016D01*
X54737000Y-40618016D01*
X54737000Y-39538078D01*
X73505378Y-39538078D01*
X73534917Y-40048428D01*
X73673389Y-40382729D01*
X73903984Y-40438410D01*
X74623395Y-39719000D01*
X74609252Y-39704858D01*
X74788858Y-39525252D01*
X74803000Y-39539395D01*
X74817142Y-39525252D01*
X74996748Y-39704858D01*
X74982605Y-39719000D01*
X75702016Y-40438410D01*
X75932611Y-40382729D01*
X76100622Y-39899922D01*
X76090267Y-39721016D01*
X82592590Y-39721016D01*
X82648271Y-39951611D01*
X83131078Y-40119622D01*
X83641428Y-40090083D01*
X83975729Y-39951611D01*
X84031410Y-39721016D01*
X83312000Y-39001605D01*
X82592590Y-39721016D01*
X76090267Y-39721016D01*
X76071083Y-39389572D01*
X75932611Y-39055271D01*
X75702018Y-38999590D01*
X75803680Y-38897928D01*
X75904441Y-38833090D01*
X76035637Y-38641078D01*
X82014378Y-38641078D01*
X82043917Y-39151428D01*
X82182389Y-39485729D01*
X82412984Y-39541410D01*
X83132395Y-38822000D01*
X83491605Y-38822000D01*
X84211016Y-39541410D01*
X84441611Y-39485729D01*
X84609622Y-39002922D01*
X84580083Y-38492572D01*
X84441611Y-38158271D01*
X84211016Y-38102590D01*
X83491605Y-38822000D01*
X83132395Y-38822000D01*
X82412984Y-38102590D01*
X82182389Y-38158271D01*
X82014378Y-38641078D01*
X76035637Y-38641078D01*
X76049431Y-38620890D01*
X76100440Y-38369000D01*
X76100440Y-37069000D01*
X76056162Y-36833683D01*
X75917090Y-36617559D01*
X75704890Y-36472569D01*
X75453000Y-36421560D01*
X74153000Y-36421560D01*
X73917683Y-36465838D01*
X73701559Y-36604910D01*
X73556569Y-36817110D01*
X73505560Y-37069000D01*
X73505560Y-38369000D01*
X73549838Y-38604317D01*
X73688910Y-38820441D01*
X73802329Y-38897937D01*
X73903982Y-38999590D01*
X73673389Y-39055271D01*
X73505378Y-39538078D01*
X54737000Y-39538078D01*
X54737000Y-38266661D01*
X68602758Y-38266661D01*
X68814990Y-38780303D01*
X69207630Y-39173629D01*
X69720900Y-39386757D01*
X70276661Y-39387242D01*
X70790303Y-39175010D01*
X71183629Y-38782370D01*
X71396757Y-38269100D01*
X71397242Y-37713339D01*
X71185010Y-37199697D01*
X70792370Y-36806371D01*
X70279100Y-36593243D01*
X69723339Y-36592758D01*
X69209697Y-36804990D01*
X68816371Y-37197630D01*
X68603243Y-37710900D01*
X68602758Y-38266661D01*
X54737000Y-38266661D01*
X54737000Y-35672000D01*
X82014560Y-35672000D01*
X82014560Y-36972000D01*
X82058838Y-37207317D01*
X82197910Y-37423441D01*
X82410110Y-37568431D01*
X82662000Y-37619440D01*
X82824385Y-37619440D01*
X82648271Y-37692389D01*
X82592590Y-37922984D01*
X83312000Y-38642395D01*
X84031410Y-37922984D01*
X83975729Y-37692389D01*
X83766098Y-37619440D01*
X83962000Y-37619440D01*
X84197317Y-37575162D01*
X84413441Y-37436090D01*
X84558431Y-37223890D01*
X84609440Y-36972000D01*
X84609440Y-35672000D01*
X84565162Y-35436683D01*
X84426090Y-35220559D01*
X84213890Y-35075569D01*
X83962000Y-35024560D01*
X82662000Y-35024560D01*
X82426683Y-35068838D01*
X82210559Y-35207910D01*
X82065569Y-35420110D01*
X82014560Y-35672000D01*
X54737000Y-35672000D01*
X54737000Y-28225750D01*
X62335660Y-28225750D01*
X62335660Y-30066310D01*
X62432333Y-30299699D01*
X62610962Y-30478327D01*
X62844351Y-30575000D01*
X64684910Y-30575000D01*
X64843660Y-30416250D01*
X64843660Y-28067000D01*
X65097660Y-28067000D01*
X65097660Y-30416250D01*
X65256410Y-30575000D01*
X65335920Y-30575000D01*
X65322960Y-30639000D01*
X65322960Y-34639000D01*
X65367238Y-34874317D01*
X65506310Y-35090441D01*
X65718510Y-35235431D01*
X65970400Y-35286440D01*
X69970400Y-35286440D01*
X70205717Y-35242162D01*
X70421841Y-35103090D01*
X70566831Y-34890890D01*
X70617840Y-34639000D01*
X70617840Y-30639000D01*
X70608138Y-30587440D01*
X72970140Y-30587440D01*
X73205457Y-30543162D01*
X73421581Y-30404090D01*
X73566571Y-30191890D01*
X73617580Y-29940000D01*
X73617580Y-27940000D01*
X75527679Y-27940000D01*
X75653354Y-28571810D01*
X76011246Y-29107433D01*
X76164748Y-29210000D01*
X76011246Y-29312567D01*
X75653354Y-29848190D01*
X75527679Y-30480000D01*
X75653354Y-31111810D01*
X76011246Y-31647433D01*
X76164748Y-31750000D01*
X76011246Y-31852567D01*
X75653354Y-32388190D01*
X75527679Y-33020000D01*
X75653354Y-33651810D01*
X76011246Y-34187433D01*
X76546869Y-34545325D01*
X77178679Y-34671000D01*
X77761321Y-34671000D01*
X78393131Y-34545325D01*
X78928754Y-34187433D01*
X79286646Y-33651810D01*
X79311681Y-33525949D01*
X80250804Y-32586827D01*
X80153794Y-32820453D01*
X80153226Y-33470694D01*
X80401538Y-34071655D01*
X80860927Y-34531846D01*
X81461453Y-34781206D01*
X82111694Y-34781774D01*
X82712655Y-34533462D01*
X82947363Y-34299163D01*
X83863443Y-34299163D01*
X83962042Y-34565965D01*
X84571582Y-34792401D01*
X85221377Y-34768341D01*
X85709958Y-34565965D01*
X85808557Y-34299163D01*
X84836000Y-33326605D01*
X83863443Y-34299163D01*
X82947363Y-34299163D01*
X83172846Y-34074073D01*
X83306105Y-33753149D01*
X83417035Y-34020958D01*
X83683837Y-34119557D01*
X84656395Y-33147000D01*
X83683837Y-32174443D01*
X83417035Y-32273042D01*
X83312112Y-32555483D01*
X83174462Y-32222345D01*
X82947351Y-31994837D01*
X83863443Y-31994837D01*
X84836000Y-32967395D01*
X85808557Y-31994837D01*
X85709958Y-31728035D01*
X85100418Y-31501599D01*
X84450623Y-31525659D01*
X83962042Y-31728035D01*
X83863443Y-31994837D01*
X82947351Y-31994837D01*
X82715073Y-31762154D01*
X82114547Y-31512794D01*
X81464306Y-31512226D01*
X80863345Y-31760538D01*
X80746753Y-31876927D01*
X80772000Y-31750000D01*
X80772000Y-27620630D01*
X81298916Y-27093715D01*
X81461453Y-27161206D01*
X82111694Y-27161774D01*
X82712655Y-26913462D01*
X83172846Y-26454073D01*
X83312034Y-26118870D01*
X83449538Y-26451655D01*
X83908927Y-26911846D01*
X84509453Y-27161206D01*
X85159694Y-27161774D01*
X85760655Y-26913462D01*
X86220846Y-26454073D01*
X86360034Y-26118870D01*
X86497538Y-26451655D01*
X86956927Y-26911846D01*
X87557453Y-27161206D01*
X88207694Y-27161774D01*
X88783151Y-26924000D01*
X100952560Y-26924000D01*
X100952560Y-28956000D01*
X100996838Y-29191317D01*
X101135910Y-29407441D01*
X101348110Y-29552431D01*
X101600000Y-29603440D01*
X103632000Y-29603440D01*
X103867317Y-29559162D01*
X104083441Y-29420090D01*
X104228431Y-29207890D01*
X104279440Y-28956000D01*
X104279440Y-26924000D01*
X104235162Y-26688683D01*
X104096090Y-26472559D01*
X103933052Y-26361160D01*
X104022385Y-26264818D01*
X104221975Y-25782944D01*
X104102836Y-25527000D01*
X102743000Y-25527000D01*
X102743000Y-25547000D01*
X102489000Y-25547000D01*
X102489000Y-25527000D01*
X101129164Y-25527000D01*
X101010025Y-25782944D01*
X101209615Y-26264818D01*
X101300097Y-26362398D01*
X101148559Y-26459910D01*
X101003569Y-26672110D01*
X100952560Y-26924000D01*
X88783151Y-26924000D01*
X88808655Y-26913462D01*
X89268846Y-26454073D01*
X89518206Y-25853547D01*
X89518774Y-25203306D01*
X89441818Y-25017056D01*
X101010025Y-25017056D01*
X101129164Y-25273000D01*
X102489000Y-25273000D01*
X102489000Y-23912633D01*
X102743000Y-23912633D01*
X102743000Y-25273000D01*
X104102836Y-25273000D01*
X104221975Y-25017056D01*
X104022385Y-24535182D01*
X103584379Y-24062812D01*
X102998946Y-23794017D01*
X102743000Y-23912633D01*
X102489000Y-23912633D01*
X102233054Y-23794017D01*
X101647621Y-24062812D01*
X101209615Y-24535182D01*
X101010025Y-25017056D01*
X89441818Y-25017056D01*
X89270462Y-24602345D01*
X88811073Y-24142154D01*
X88210547Y-23892794D01*
X87560306Y-23892226D01*
X86959345Y-24140538D01*
X86499154Y-24599927D01*
X86359966Y-24935130D01*
X86222462Y-24602345D01*
X85763073Y-24142154D01*
X85162547Y-23892794D01*
X84512306Y-23892226D01*
X83911345Y-24140538D01*
X83451154Y-24599927D01*
X83311966Y-24935130D01*
X83174462Y-24602345D01*
X82715073Y-24142154D01*
X82114547Y-23892794D01*
X81464306Y-23892226D01*
X80863345Y-24140538D01*
X80403154Y-24599927D01*
X80153794Y-25200453D01*
X80153226Y-25850694D01*
X80221482Y-26015887D01*
X79471185Y-26766185D01*
X79306004Y-27013395D01*
X79256377Y-27262889D01*
X78928754Y-26772567D01*
X78393131Y-26414675D01*
X77761321Y-26289000D01*
X77178679Y-26289000D01*
X76546869Y-26414675D01*
X76011246Y-26772567D01*
X75653354Y-27308190D01*
X75527679Y-27940000D01*
X73617580Y-27940000D01*
X73617580Y-25940000D01*
X73573302Y-25704683D01*
X73434230Y-25488559D01*
X73222030Y-25343569D01*
X72970140Y-25292560D01*
X68970140Y-25292560D01*
X68734823Y-25336838D01*
X68518699Y-25475910D01*
X68373709Y-25688110D01*
X68322700Y-25940000D01*
X68322700Y-29940000D01*
X68332402Y-29991560D01*
X67605660Y-29991560D01*
X67605660Y-28225750D01*
X67446910Y-28067000D01*
X65097660Y-28067000D01*
X64843660Y-28067000D01*
X62494410Y-28067000D01*
X62335660Y-28225750D01*
X54737000Y-28225750D01*
X54737000Y-25813690D01*
X62335660Y-25813690D01*
X62335660Y-27654250D01*
X62494410Y-27813000D01*
X64843660Y-27813000D01*
X64843660Y-25463750D01*
X65097660Y-25463750D01*
X65097660Y-27813000D01*
X67446910Y-27813000D01*
X67605660Y-27654250D01*
X67605660Y-25813690D01*
X67508987Y-25580301D01*
X67330358Y-25401673D01*
X67096969Y-25305000D01*
X65256410Y-25305000D01*
X65097660Y-25463750D01*
X64843660Y-25463750D01*
X64684910Y-25305000D01*
X62844351Y-25305000D01*
X62610962Y-25401673D01*
X62432333Y-25580301D01*
X62335660Y-25813690D01*
X54737000Y-25813690D01*
X54737000Y-21717000D01*
X105264497Y-21717000D01*
X105283000Y-21744692D01*
X105283000Y-21744692D01*
G37*
X105283000Y-21744692D02*
X105283000Y-37338000D01*
X105215329Y-36997794D01*
X105022618Y-36709382D01*
X104768618Y-36455382D01*
X104698014Y-36408206D01*
X104480206Y-36262671D01*
X104140000Y-36195000D01*
X100330000Y-36195000D01*
X100043356Y-36252017D01*
X100079959Y-36068000D01*
X99965885Y-35494511D01*
X99641029Y-35008330D01*
X99326248Y-34798000D01*
X99641029Y-34587670D01*
X99965885Y-34101489D01*
X100079959Y-33528000D01*
X99965885Y-32954511D01*
X99641029Y-32468330D01*
X99326248Y-32258000D01*
X99641029Y-32047670D01*
X99965885Y-31561489D01*
X100079959Y-30988000D01*
X99965885Y-30414511D01*
X99641029Y-29928330D01*
X99154848Y-29603474D01*
X98581359Y-29489400D01*
X98522641Y-29489400D01*
X97949152Y-29603474D01*
X97483558Y-29914574D01*
X97478762Y-29889083D01*
X97339690Y-29672959D01*
X97127490Y-29527969D01*
X96875600Y-29476960D01*
X95148400Y-29476960D01*
X94913083Y-29521238D01*
X94696959Y-29660310D01*
X94551969Y-29872510D01*
X94500960Y-30124400D01*
X94500960Y-31241804D01*
X93484764Y-32258000D01*
X89285194Y-32258000D01*
X89270462Y-32222345D01*
X88811073Y-31762154D01*
X88210547Y-31512794D01*
X87560306Y-31512226D01*
X86959345Y-31760538D01*
X86499154Y-32219927D01*
X86365895Y-32540851D01*
X86254965Y-32273042D01*
X85988163Y-32174443D01*
X85015605Y-33147000D01*
X85988163Y-34119557D01*
X86254965Y-34020958D01*
X86359888Y-33738517D01*
X86497538Y-34071655D01*
X86956927Y-34531846D01*
X87557453Y-34781206D01*
X88207694Y-34781774D01*
X88808655Y-34533462D01*
X89268846Y-34074073D01*
X89284655Y-34036000D01*
X93853000Y-34036000D01*
X94193206Y-33968329D01*
X94481618Y-33775618D01*
X94524721Y-33732515D01*
X94528957Y-33753807D01*
X89795382Y-38487382D01*
X89602671Y-38775794D01*
X89535000Y-39116000D01*
X89535000Y-41795764D01*
X89510495Y-41820269D01*
X89270462Y-41239345D01*
X88811073Y-40779154D01*
X88210547Y-40529794D01*
X87560306Y-40529226D01*
X86959345Y-40777538D01*
X86499154Y-41236927D01*
X86359966Y-41572130D01*
X86222462Y-41239345D01*
X85763073Y-40779154D01*
X85162547Y-40529794D01*
X84512306Y-40529226D01*
X83911345Y-40777538D01*
X83451154Y-41236927D01*
X83311966Y-41572130D01*
X83174462Y-41239345D01*
X82715073Y-40779154D01*
X82114547Y-40529794D01*
X81464306Y-40529226D01*
X80863345Y-40777538D01*
X80403154Y-41236927D01*
X80153794Y-41837453D01*
X80153226Y-42487694D01*
X80221483Y-42652887D01*
X79217185Y-43657185D01*
X79198125Y-43685710D01*
X78928754Y-43282567D01*
X78393131Y-42924675D01*
X77761321Y-42799000D01*
X77178679Y-42799000D01*
X76546869Y-42924675D01*
X76011246Y-43282567D01*
X75653354Y-43818190D01*
X75527679Y-44450000D01*
X75653354Y-45081810D01*
X76011246Y-45617433D01*
X76164748Y-45720000D01*
X76011246Y-45822567D01*
X75653354Y-46358190D01*
X75527679Y-46990000D01*
X75653354Y-47621810D01*
X76011246Y-48157433D01*
X76164748Y-48260000D01*
X76011246Y-48362567D01*
X75653354Y-48898190D01*
X75527679Y-49530000D01*
X75653354Y-50161810D01*
X76011246Y-50697433D01*
X76546869Y-51055325D01*
X77178679Y-51181000D01*
X77761321Y-51181000D01*
X78393131Y-51055325D01*
X78928754Y-50697433D01*
X79286646Y-50161810D01*
X79297410Y-50107694D01*
X80153226Y-50107694D01*
X80401538Y-50708655D01*
X80860927Y-51168846D01*
X81461453Y-51418206D01*
X82111694Y-51418774D01*
X82712655Y-51170462D01*
X82947363Y-50936163D01*
X83863443Y-50936163D01*
X83962042Y-51202965D01*
X84571582Y-51429401D01*
X85221377Y-51405341D01*
X85709958Y-51202965D01*
X85808557Y-50936163D01*
X84836000Y-49963605D01*
X83863443Y-50936163D01*
X82947363Y-50936163D01*
X83172846Y-50711073D01*
X83306105Y-50390149D01*
X83417035Y-50657958D01*
X83683837Y-50756557D01*
X84656395Y-49784000D01*
X83683837Y-48811443D01*
X83417035Y-48910042D01*
X83312112Y-49192483D01*
X83174462Y-48859345D01*
X82947351Y-48631837D01*
X83863443Y-48631837D01*
X84836000Y-49604395D01*
X85808557Y-48631837D01*
X85709958Y-48365035D01*
X85100418Y-48138599D01*
X84450623Y-48162659D01*
X83962042Y-48365035D01*
X83863443Y-48631837D01*
X82947351Y-48631837D01*
X82715073Y-48399154D01*
X82114547Y-48149794D01*
X81464306Y-48149226D01*
X80863345Y-48397538D01*
X80403154Y-48856927D01*
X80153794Y-49457453D01*
X80153226Y-50107694D01*
X79297410Y-50107694D01*
X79412321Y-49530000D01*
X79395284Y-49444347D01*
X80294815Y-48544816D01*
X80459996Y-48297605D01*
X80518000Y-48006000D01*
X80518000Y-44511630D01*
X81298915Y-43730715D01*
X81461453Y-43798206D01*
X82111694Y-43798774D01*
X82712655Y-43550462D01*
X83172846Y-43091073D01*
X83312034Y-42755870D01*
X83449538Y-43088655D01*
X83908927Y-43548846D01*
X84509453Y-43798206D01*
X85159694Y-43798774D01*
X85760655Y-43550462D01*
X86220846Y-43091073D01*
X86360034Y-42755870D01*
X86497538Y-43088655D01*
X86956927Y-43548846D01*
X87539862Y-43790902D01*
X87255382Y-44075382D01*
X87062671Y-44363794D01*
X86995000Y-44704000D01*
X86995000Y-48382806D01*
X86959345Y-48397538D01*
X86499154Y-48856927D01*
X86365895Y-49177851D01*
X86254965Y-48910042D01*
X85988163Y-48811443D01*
X85015605Y-49784000D01*
X85988163Y-50756557D01*
X86254965Y-50657958D01*
X86359888Y-50375517D01*
X86497538Y-50708655D01*
X86956927Y-51168846D01*
X86995000Y-51184655D01*
X86995000Y-54864000D01*
X87062671Y-55204206D01*
X87196890Y-55405078D01*
X87255382Y-55492618D01*
X90043000Y-58280236D01*
X90043000Y-60198000D01*
X90110671Y-60538206D01*
X90299525Y-60820846D01*
X90303382Y-60826618D01*
X94528957Y-65052193D01*
X94484041Y-65278000D01*
X94559827Y-65659000D01*
X89285194Y-65659000D01*
X89270462Y-65623345D01*
X88811073Y-65163154D01*
X88210547Y-64913794D01*
X87560306Y-64913226D01*
X86959345Y-65161538D01*
X86499154Y-65620927D01*
X86365895Y-65941851D01*
X86254965Y-65674042D01*
X85988163Y-65575443D01*
X85015605Y-66548000D01*
X85988163Y-67520557D01*
X86254965Y-67421958D01*
X86359888Y-67139517D01*
X86497538Y-67472655D01*
X86956927Y-67932846D01*
X87557453Y-68182206D01*
X88207694Y-68182774D01*
X88808655Y-67934462D01*
X89268846Y-67475073D01*
X89284655Y-67437000D01*
X94373764Y-67437000D01*
X94528957Y-67592193D01*
X94484041Y-67818000D01*
X94598115Y-68391489D01*
X94922971Y-68877670D01*
X95409152Y-69202526D01*
X95982641Y-69316600D01*
X96041359Y-69316600D01*
X96218190Y-69281426D01*
X96907382Y-69970618D01*
X97195794Y-70163329D01*
X97536000Y-70231000D01*
X101232038Y-70231000D01*
X101209615Y-70255182D01*
X101010025Y-70737056D01*
X101129164Y-70993000D01*
X102489000Y-70993000D01*
X102489000Y-70973000D01*
X102743000Y-70973000D01*
X102743000Y-70993000D01*
X104102836Y-70993000D01*
X104221975Y-70737056D01*
X104022385Y-70255182D01*
X103999962Y-70231000D01*
X104394000Y-70231000D01*
X104734206Y-70163329D01*
X105022618Y-69970618D01*
X105215329Y-69682206D01*
X105283000Y-69342000D01*
X105283000Y-77315308D01*
X105264497Y-77343000D01*
X54737000Y-77343000D01*
X54737000Y-74046661D01*
X68602758Y-74046661D01*
X68814990Y-74560303D01*
X69207630Y-74953629D01*
X69720900Y-75166757D01*
X70276661Y-75167242D01*
X70790303Y-74955010D01*
X71183629Y-74562370D01*
X71396757Y-74049100D01*
X71396783Y-74019016D01*
X73956590Y-74019016D01*
X74012271Y-74249611D01*
X74495078Y-74417622D01*
X75005428Y-74388083D01*
X75339729Y-74249611D01*
X75395410Y-74019016D01*
X74676000Y-73299605D01*
X73956590Y-74019016D01*
X71396783Y-74019016D01*
X71397242Y-73493339D01*
X71185010Y-72979697D01*
X71144462Y-72939078D01*
X73378378Y-72939078D01*
X73407917Y-73449428D01*
X73546389Y-73783729D01*
X73776984Y-73839410D01*
X74496395Y-73120000D01*
X74482252Y-73105858D01*
X74661858Y-72926252D01*
X74676000Y-72940395D01*
X74690142Y-72926252D01*
X74869748Y-73105858D01*
X74855605Y-73120000D01*
X75575016Y-73839410D01*
X75805611Y-73783729D01*
X75973622Y-73300922D01*
X75963267Y-73122016D01*
X82592590Y-73122016D01*
X82648271Y-73352611D01*
X83131078Y-73520622D01*
X83641428Y-73491083D01*
X83975729Y-73352611D01*
X84031410Y-73122016D01*
X83312000Y-72402605D01*
X82592590Y-73122016D01*
X75963267Y-73122016D01*
X75944083Y-72790572D01*
X75805611Y-72456271D01*
X75575018Y-72400590D01*
X75676680Y-72298928D01*
X75777441Y-72234090D01*
X75908637Y-72042078D01*
X82014378Y-72042078D01*
X82043917Y-72552428D01*
X82182389Y-72886729D01*
X82412984Y-72942410D01*
X83132395Y-72223000D01*
X83491605Y-72223000D01*
X84211016Y-72942410D01*
X84441611Y-72886729D01*
X84526077Y-72644000D01*
X100952560Y-72644000D01*
X100952560Y-74676000D01*
X100996838Y-74911317D01*
X101135910Y-75127441D01*
X101348110Y-75272431D01*
X101600000Y-75323440D01*
X103632000Y-75323440D01*
X103867317Y-75279162D01*
X104083441Y-75140090D01*
X104228431Y-74927890D01*
X104279440Y-74676000D01*
X104279440Y-72644000D01*
X104235162Y-72408683D01*
X104096090Y-72192559D01*
X103933052Y-72081160D01*
X104022385Y-71984818D01*
X104221975Y-71502944D01*
X104102836Y-71247000D01*
X102743000Y-71247000D01*
X102743000Y-71267000D01*
X102489000Y-71267000D01*
X102489000Y-71247000D01*
X101129164Y-71247000D01*
X101010025Y-71502944D01*
X101209615Y-71984818D01*
X101300097Y-72082398D01*
X101148559Y-72179910D01*
X101003569Y-72392110D01*
X100952560Y-72644000D01*
X84526077Y-72644000D01*
X84609622Y-72403922D01*
X84580083Y-71893572D01*
X84441611Y-71559271D01*
X84211016Y-71503590D01*
X83491605Y-72223000D01*
X83132395Y-72223000D01*
X82412984Y-71503590D01*
X82182389Y-71559271D01*
X82014378Y-72042078D01*
X75908637Y-72042078D01*
X75922431Y-72021890D01*
X75973440Y-71770000D01*
X75973440Y-70470000D01*
X75929162Y-70234683D01*
X75790090Y-70018559D01*
X75577890Y-69873569D01*
X75326000Y-69822560D01*
X74026000Y-69822560D01*
X73790683Y-69866838D01*
X73574559Y-70005910D01*
X73429569Y-70218110D01*
X73378560Y-70470000D01*
X73378560Y-71770000D01*
X73422838Y-72005317D01*
X73561910Y-72221441D01*
X73675329Y-72298937D01*
X73776982Y-72400590D01*
X73546389Y-72456271D01*
X73378378Y-72939078D01*
X71144462Y-72939078D01*
X70792370Y-72586371D01*
X70279100Y-72373243D01*
X69723339Y-72372758D01*
X69209697Y-72584990D01*
X68816371Y-72977630D01*
X68603243Y-73490900D01*
X68602758Y-74046661D01*
X54737000Y-74046661D01*
X54737000Y-68746661D01*
X68602758Y-68746661D01*
X68814990Y-69260303D01*
X69207630Y-69653629D01*
X69720900Y-69866757D01*
X70276661Y-69867242D01*
X70790303Y-69655010D01*
X71183629Y-69262370D01*
X71262262Y-69073000D01*
X82014560Y-69073000D01*
X82014560Y-70373000D01*
X82058838Y-70608317D01*
X82197910Y-70824441D01*
X82410110Y-70969431D01*
X82662000Y-71020440D01*
X82824385Y-71020440D01*
X82648271Y-71093389D01*
X82592590Y-71323984D01*
X83312000Y-72043395D01*
X84031410Y-71323984D01*
X83975729Y-71093389D01*
X83766098Y-71020440D01*
X83962000Y-71020440D01*
X84197317Y-70976162D01*
X84413441Y-70837090D01*
X84558431Y-70624890D01*
X84609440Y-70373000D01*
X84609440Y-69073000D01*
X84565162Y-68837683D01*
X84426090Y-68621559D01*
X84213890Y-68476569D01*
X83962000Y-68425560D01*
X82662000Y-68425560D01*
X82426683Y-68469838D01*
X82210559Y-68608910D01*
X82065569Y-68821110D01*
X82014560Y-69073000D01*
X71262262Y-69073000D01*
X71396757Y-68749100D01*
X71397242Y-68193339D01*
X71185010Y-67679697D01*
X70792370Y-67286371D01*
X70279100Y-67073243D01*
X69723339Y-67072758D01*
X69209697Y-67284990D01*
X68816371Y-67677630D01*
X68603243Y-68190900D01*
X68602758Y-68746661D01*
X54737000Y-68746661D01*
X54737000Y-60960000D01*
X75527679Y-60960000D01*
X75653354Y-61591810D01*
X76011246Y-62127433D01*
X76164748Y-62230000D01*
X76011246Y-62332567D01*
X75653354Y-62868190D01*
X75527679Y-63500000D01*
X75653354Y-64131810D01*
X76011246Y-64667433D01*
X76164748Y-64770000D01*
X76011246Y-64872567D01*
X75653354Y-65408190D01*
X75527679Y-66040000D01*
X75653354Y-66671810D01*
X76011246Y-67207433D01*
X76546869Y-67565325D01*
X77178679Y-67691000D01*
X77761321Y-67691000D01*
X78393131Y-67565325D01*
X78928754Y-67207433D01*
X79153087Y-66871694D01*
X80153226Y-66871694D01*
X80401538Y-67472655D01*
X80860927Y-67932846D01*
X81461453Y-68182206D01*
X82111694Y-68182774D01*
X82712655Y-67934462D01*
X82947363Y-67700163D01*
X83863443Y-67700163D01*
X83962042Y-67966965D01*
X84571582Y-68193401D01*
X85221377Y-68169341D01*
X85709958Y-67966965D01*
X85808557Y-67700163D01*
X84836000Y-66727605D01*
X83863443Y-67700163D01*
X82947363Y-67700163D01*
X83172846Y-67475073D01*
X83306105Y-67154149D01*
X83417035Y-67421958D01*
X83683837Y-67520557D01*
X84656395Y-66548000D01*
X83683837Y-65575443D01*
X83417035Y-65674042D01*
X83312112Y-65956483D01*
X83174462Y-65623345D01*
X82947351Y-65395837D01*
X83863443Y-65395837D01*
X84836000Y-66368395D01*
X85808557Y-65395837D01*
X85709958Y-65129035D01*
X85100418Y-64902599D01*
X84450623Y-64926659D01*
X83962042Y-65129035D01*
X83863443Y-65395837D01*
X82947351Y-65395837D01*
X82715073Y-65163154D01*
X82114547Y-64913794D01*
X81464306Y-64913226D01*
X80863345Y-65161538D01*
X80403154Y-65620927D01*
X80153794Y-66221453D01*
X80153226Y-66871694D01*
X79153087Y-66871694D01*
X79286646Y-66671810D01*
X79412321Y-66040000D01*
X79395284Y-65954347D01*
X80294815Y-65054816D01*
X80459996Y-64807605D01*
X80479014Y-64711996D01*
X80518000Y-64516000D01*
X80518000Y-61275630D01*
X81298915Y-60494715D01*
X81461453Y-60562206D01*
X82111694Y-60562774D01*
X82712655Y-60314462D01*
X83172846Y-59855073D01*
X83312034Y-59519870D01*
X83449538Y-59852655D01*
X83908927Y-60312846D01*
X84509453Y-60562206D01*
X85159694Y-60562774D01*
X85760655Y-60314462D01*
X86220846Y-59855073D01*
X86360034Y-59519870D01*
X86497538Y-59852655D01*
X86956927Y-60312846D01*
X87557453Y-60562206D01*
X88207694Y-60562774D01*
X88808655Y-60314462D01*
X89268846Y-59855073D01*
X89518206Y-59254547D01*
X89518774Y-58604306D01*
X89270462Y-58003345D01*
X88811073Y-57543154D01*
X88210547Y-57293794D01*
X87560306Y-57293226D01*
X86959345Y-57541538D01*
X86499154Y-58000927D01*
X86359966Y-58336130D01*
X86222462Y-58003345D01*
X85763073Y-57543154D01*
X85162547Y-57293794D01*
X84512306Y-57293226D01*
X83911345Y-57541538D01*
X83451154Y-58000927D01*
X83311966Y-58336130D01*
X83174462Y-58003345D01*
X82715073Y-57543154D01*
X82114547Y-57293794D01*
X81464306Y-57293226D01*
X80863345Y-57541538D01*
X80403154Y-58000927D01*
X80153794Y-58601453D01*
X80153226Y-59251694D01*
X80221483Y-59416887D01*
X79290551Y-60347819D01*
X79286646Y-60328190D01*
X78928754Y-59792567D01*
X78393131Y-59434675D01*
X77761321Y-59309000D01*
X77178679Y-59309000D01*
X76546869Y-59434675D01*
X76011246Y-59792567D01*
X75653354Y-60328190D01*
X75527679Y-60960000D01*
X54737000Y-60960000D01*
X54737000Y-58806661D01*
X68602758Y-58806661D01*
X68814990Y-59320303D01*
X69207630Y-59713629D01*
X69720900Y-59926757D01*
X70276661Y-59927242D01*
X70790303Y-59715010D01*
X71183629Y-59322370D01*
X71396757Y-58809100D01*
X71397242Y-58253339D01*
X71185010Y-57739697D01*
X70792370Y-57346371D01*
X70279100Y-57133243D01*
X69723339Y-57132758D01*
X69209697Y-57344990D01*
X68816371Y-57737630D01*
X68603243Y-58250900D01*
X68602758Y-58806661D01*
X54737000Y-58806661D01*
X54737000Y-57128016D01*
X74083590Y-57128016D01*
X74139271Y-57358611D01*
X74622078Y-57526622D01*
X75132428Y-57497083D01*
X75466729Y-57358611D01*
X75522410Y-57128016D01*
X74803000Y-56408605D01*
X74083590Y-57128016D01*
X54737000Y-57128016D01*
X54737000Y-56048078D01*
X73505378Y-56048078D01*
X73534917Y-56558428D01*
X73673389Y-56892729D01*
X73903984Y-56948410D01*
X74623395Y-56229000D01*
X74609252Y-56214858D01*
X74788858Y-56035252D01*
X74803000Y-56049395D01*
X74817142Y-56035252D01*
X74996748Y-56214858D01*
X74982605Y-56229000D01*
X75702016Y-56948410D01*
X75932611Y-56892729D01*
X76074490Y-56485016D01*
X82592590Y-56485016D01*
X82648271Y-56715611D01*
X83131078Y-56883622D01*
X83641428Y-56854083D01*
X83975729Y-56715611D01*
X84031410Y-56485016D01*
X83312000Y-55765605D01*
X82592590Y-56485016D01*
X76074490Y-56485016D01*
X76100622Y-56409922D01*
X76071083Y-55899572D01*
X75932611Y-55565271D01*
X75702018Y-55509590D01*
X75803680Y-55407928D01*
X75808109Y-55405078D01*
X82014378Y-55405078D01*
X82043917Y-55915428D01*
X82182389Y-56249729D01*
X82412984Y-56305410D01*
X83132395Y-55586000D01*
X83491605Y-55586000D01*
X84211016Y-56305410D01*
X84441611Y-56249729D01*
X84609622Y-55766922D01*
X84580083Y-55256572D01*
X84441611Y-54922271D01*
X84211016Y-54866590D01*
X83491605Y-55586000D01*
X83132395Y-55586000D01*
X82412984Y-54866590D01*
X82182389Y-54922271D01*
X82014378Y-55405078D01*
X75808109Y-55405078D01*
X75904441Y-55343090D01*
X76049431Y-55130890D01*
X76100440Y-54879000D01*
X76100440Y-53579000D01*
X76056162Y-53343683D01*
X75917090Y-53127559D01*
X75704890Y-52982569D01*
X75453000Y-52931560D01*
X74153000Y-52931560D01*
X73917683Y-52975838D01*
X73701559Y-53114910D01*
X73556569Y-53327110D01*
X73505560Y-53579000D01*
X73505560Y-54879000D01*
X73549838Y-55114317D01*
X73688910Y-55330441D01*
X73802329Y-55407937D01*
X73903982Y-55509590D01*
X73673389Y-55565271D01*
X73505378Y-56048078D01*
X54737000Y-56048078D01*
X54737000Y-53506661D01*
X68602758Y-53506661D01*
X68814990Y-54020303D01*
X69207630Y-54413629D01*
X69720900Y-54626757D01*
X70276661Y-54627242D01*
X70790303Y-54415010D01*
X71183629Y-54022370D01*
X71396757Y-53509100D01*
X71397242Y-52953339D01*
X71185010Y-52439697D01*
X71181320Y-52436000D01*
X82014560Y-52436000D01*
X82014560Y-53736000D01*
X82058838Y-53971317D01*
X82197910Y-54187441D01*
X82410110Y-54332431D01*
X82662000Y-54383440D01*
X82824385Y-54383440D01*
X82648271Y-54456389D01*
X82592590Y-54686984D01*
X83312000Y-55406395D01*
X84031410Y-54686984D01*
X83975729Y-54456389D01*
X83766098Y-54383440D01*
X83962000Y-54383440D01*
X84197317Y-54339162D01*
X84413441Y-54200090D01*
X84558431Y-53987890D01*
X84609440Y-53736000D01*
X84609440Y-52436000D01*
X84565162Y-52200683D01*
X84426090Y-51984559D01*
X84213890Y-51839569D01*
X83962000Y-51788560D01*
X82662000Y-51788560D01*
X82426683Y-51832838D01*
X82210559Y-51971910D01*
X82065569Y-52184110D01*
X82014560Y-52436000D01*
X71181320Y-52436000D01*
X70792370Y-52046371D01*
X70279100Y-51833243D01*
X69723339Y-51832758D01*
X69209697Y-52044990D01*
X68816371Y-52437630D01*
X68603243Y-52950900D01*
X68602758Y-53506661D01*
X54737000Y-53506661D01*
X54737000Y-43566661D01*
X68602758Y-43566661D01*
X68814990Y-44080303D01*
X69207630Y-44473629D01*
X69720900Y-44686757D01*
X70276661Y-44687242D01*
X70790303Y-44475010D01*
X71183629Y-44082370D01*
X71396757Y-43569100D01*
X71397242Y-43013339D01*
X71185010Y-42499697D01*
X70792370Y-42106371D01*
X70279100Y-41893243D01*
X69723339Y-41892758D01*
X69209697Y-42104990D01*
X68816371Y-42497630D01*
X68603243Y-43010900D01*
X68602758Y-43566661D01*
X54737000Y-43566661D01*
X54737000Y-40618016D01*
X74083590Y-40618016D01*
X74139271Y-40848611D01*
X74622078Y-41016622D01*
X75132428Y-40987083D01*
X75466729Y-40848611D01*
X75522410Y-40618016D01*
X74803000Y-39898605D01*
X74083590Y-40618016D01*
X54737000Y-40618016D01*
X54737000Y-39538078D01*
X73505378Y-39538078D01*
X73534917Y-40048428D01*
X73673389Y-40382729D01*
X73903984Y-40438410D01*
X74623395Y-39719000D01*
X74609252Y-39704858D01*
X74788858Y-39525252D01*
X74803000Y-39539395D01*
X74817142Y-39525252D01*
X74996748Y-39704858D01*
X74982605Y-39719000D01*
X75702016Y-40438410D01*
X75932611Y-40382729D01*
X76100622Y-39899922D01*
X76090267Y-39721016D01*
X82592590Y-39721016D01*
X82648271Y-39951611D01*
X83131078Y-40119622D01*
X83641428Y-40090083D01*
X83975729Y-39951611D01*
X84031410Y-39721016D01*
X83312000Y-39001605D01*
X82592590Y-39721016D01*
X76090267Y-39721016D01*
X76071083Y-39389572D01*
X75932611Y-39055271D01*
X75702018Y-38999590D01*
X75803680Y-38897928D01*
X75904441Y-38833090D01*
X76035637Y-38641078D01*
X82014378Y-38641078D01*
X82043917Y-39151428D01*
X82182389Y-39485729D01*
X82412984Y-39541410D01*
X83132395Y-38822000D01*
X83491605Y-38822000D01*
X84211016Y-39541410D01*
X84441611Y-39485729D01*
X84609622Y-39002922D01*
X84580083Y-38492572D01*
X84441611Y-38158271D01*
X84211016Y-38102590D01*
X83491605Y-38822000D01*
X83132395Y-38822000D01*
X82412984Y-38102590D01*
X82182389Y-38158271D01*
X82014378Y-38641078D01*
X76035637Y-38641078D01*
X76049431Y-38620890D01*
X76100440Y-38369000D01*
X76100440Y-37069000D01*
X76056162Y-36833683D01*
X75917090Y-36617559D01*
X75704890Y-36472569D01*
X75453000Y-36421560D01*
X74153000Y-36421560D01*
X73917683Y-36465838D01*
X73701559Y-36604910D01*
X73556569Y-36817110D01*
X73505560Y-37069000D01*
X73505560Y-38369000D01*
X73549838Y-38604317D01*
X73688910Y-38820441D01*
X73802329Y-38897937D01*
X73903982Y-38999590D01*
X73673389Y-39055271D01*
X73505378Y-39538078D01*
X54737000Y-39538078D01*
X54737000Y-38266661D01*
X68602758Y-38266661D01*
X68814990Y-38780303D01*
X69207630Y-39173629D01*
X69720900Y-39386757D01*
X70276661Y-39387242D01*
X70790303Y-39175010D01*
X71183629Y-38782370D01*
X71396757Y-38269100D01*
X71397242Y-37713339D01*
X71185010Y-37199697D01*
X70792370Y-36806371D01*
X70279100Y-36593243D01*
X69723339Y-36592758D01*
X69209697Y-36804990D01*
X68816371Y-37197630D01*
X68603243Y-37710900D01*
X68602758Y-38266661D01*
X54737000Y-38266661D01*
X54737000Y-35672000D01*
X82014560Y-35672000D01*
X82014560Y-36972000D01*
X82058838Y-37207317D01*
X82197910Y-37423441D01*
X82410110Y-37568431D01*
X82662000Y-37619440D01*
X82824385Y-37619440D01*
X82648271Y-37692389D01*
X82592590Y-37922984D01*
X83312000Y-38642395D01*
X84031410Y-37922984D01*
X83975729Y-37692389D01*
X83766098Y-37619440D01*
X83962000Y-37619440D01*
X84197317Y-37575162D01*
X84413441Y-37436090D01*
X84558431Y-37223890D01*
X84609440Y-36972000D01*
X84609440Y-35672000D01*
X84565162Y-35436683D01*
X84426090Y-35220559D01*
X84213890Y-35075569D01*
X83962000Y-35024560D01*
X82662000Y-35024560D01*
X82426683Y-35068838D01*
X82210559Y-35207910D01*
X82065569Y-35420110D01*
X82014560Y-35672000D01*
X54737000Y-35672000D01*
X54737000Y-28225750D01*
X62335660Y-28225750D01*
X62335660Y-30066310D01*
X62432333Y-30299699D01*
X62610962Y-30478327D01*
X62844351Y-30575000D01*
X64684910Y-30575000D01*
X64843660Y-30416250D01*
X64843660Y-28067000D01*
X65097660Y-28067000D01*
X65097660Y-30416250D01*
X65256410Y-30575000D01*
X65335920Y-30575000D01*
X65322960Y-30639000D01*
X65322960Y-34639000D01*
X65367238Y-34874317D01*
X65506310Y-35090441D01*
X65718510Y-35235431D01*
X65970400Y-35286440D01*
X69970400Y-35286440D01*
X70205717Y-35242162D01*
X70421841Y-35103090D01*
X70566831Y-34890890D01*
X70617840Y-34639000D01*
X70617840Y-30639000D01*
X70608138Y-30587440D01*
X72970140Y-30587440D01*
X73205457Y-30543162D01*
X73421581Y-30404090D01*
X73566571Y-30191890D01*
X73617580Y-29940000D01*
X73617580Y-27940000D01*
X75527679Y-27940000D01*
X75653354Y-28571810D01*
X76011246Y-29107433D01*
X76164748Y-29210000D01*
X76011246Y-29312567D01*
X75653354Y-29848190D01*
X75527679Y-30480000D01*
X75653354Y-31111810D01*
X76011246Y-31647433D01*
X76164748Y-31750000D01*
X76011246Y-31852567D01*
X75653354Y-32388190D01*
X75527679Y-33020000D01*
X75653354Y-33651810D01*
X76011246Y-34187433D01*
X76546869Y-34545325D01*
X77178679Y-34671000D01*
X77761321Y-34671000D01*
X78393131Y-34545325D01*
X78928754Y-34187433D01*
X79286646Y-33651810D01*
X79311681Y-33525949D01*
X80250804Y-32586827D01*
X80153794Y-32820453D01*
X80153226Y-33470694D01*
X80401538Y-34071655D01*
X80860927Y-34531846D01*
X81461453Y-34781206D01*
X82111694Y-34781774D01*
X82712655Y-34533462D01*
X82947363Y-34299163D01*
X83863443Y-34299163D01*
X83962042Y-34565965D01*
X84571582Y-34792401D01*
X85221377Y-34768341D01*
X85709958Y-34565965D01*
X85808557Y-34299163D01*
X84836000Y-33326605D01*
X83863443Y-34299163D01*
X82947363Y-34299163D01*
X83172846Y-34074073D01*
X83306105Y-33753149D01*
X83417035Y-34020958D01*
X83683837Y-34119557D01*
X84656395Y-33147000D01*
X83683837Y-32174443D01*
X83417035Y-32273042D01*
X83312112Y-32555483D01*
X83174462Y-32222345D01*
X82947351Y-31994837D01*
X83863443Y-31994837D01*
X84836000Y-32967395D01*
X85808557Y-31994837D01*
X85709958Y-31728035D01*
X85100418Y-31501599D01*
X84450623Y-31525659D01*
X83962042Y-31728035D01*
X83863443Y-31994837D01*
X82947351Y-31994837D01*
X82715073Y-31762154D01*
X82114547Y-31512794D01*
X81464306Y-31512226D01*
X80863345Y-31760538D01*
X80746753Y-31876927D01*
X80772000Y-31750000D01*
X80772000Y-27620630D01*
X81298916Y-27093715D01*
X81461453Y-27161206D01*
X82111694Y-27161774D01*
X82712655Y-26913462D01*
X83172846Y-26454073D01*
X83312034Y-26118870D01*
X83449538Y-26451655D01*
X83908927Y-26911846D01*
X84509453Y-27161206D01*
X85159694Y-27161774D01*
X85760655Y-26913462D01*
X86220846Y-26454073D01*
X86360034Y-26118870D01*
X86497538Y-26451655D01*
X86956927Y-26911846D01*
X87557453Y-27161206D01*
X88207694Y-27161774D01*
X88783151Y-26924000D01*
X100952560Y-26924000D01*
X100952560Y-28956000D01*
X100996838Y-29191317D01*
X101135910Y-29407441D01*
X101348110Y-29552431D01*
X101600000Y-29603440D01*
X103632000Y-29603440D01*
X103867317Y-29559162D01*
X104083441Y-29420090D01*
X104228431Y-29207890D01*
X104279440Y-28956000D01*
X104279440Y-26924000D01*
X104235162Y-26688683D01*
X104096090Y-26472559D01*
X103933052Y-26361160D01*
X104022385Y-26264818D01*
X104221975Y-25782944D01*
X104102836Y-25527000D01*
X102743000Y-25527000D01*
X102743000Y-25547000D01*
X102489000Y-25547000D01*
X102489000Y-25527000D01*
X101129164Y-25527000D01*
X101010025Y-25782944D01*
X101209615Y-26264818D01*
X101300097Y-26362398D01*
X101148559Y-26459910D01*
X101003569Y-26672110D01*
X100952560Y-26924000D01*
X88783151Y-26924000D01*
X88808655Y-26913462D01*
X89268846Y-26454073D01*
X89518206Y-25853547D01*
X89518774Y-25203306D01*
X89441818Y-25017056D01*
X101010025Y-25017056D01*
X101129164Y-25273000D01*
X102489000Y-25273000D01*
X102489000Y-23912633D01*
X102743000Y-23912633D01*
X102743000Y-25273000D01*
X104102836Y-25273000D01*
X104221975Y-25017056D01*
X104022385Y-24535182D01*
X103584379Y-24062812D01*
X102998946Y-23794017D01*
X102743000Y-23912633D01*
X102489000Y-23912633D01*
X102233054Y-23794017D01*
X101647621Y-24062812D01*
X101209615Y-24535182D01*
X101010025Y-25017056D01*
X89441818Y-25017056D01*
X89270462Y-24602345D01*
X88811073Y-24142154D01*
X88210547Y-23892794D01*
X87560306Y-23892226D01*
X86959345Y-24140538D01*
X86499154Y-24599927D01*
X86359966Y-24935130D01*
X86222462Y-24602345D01*
X85763073Y-24142154D01*
X85162547Y-23892794D01*
X84512306Y-23892226D01*
X83911345Y-24140538D01*
X83451154Y-24599927D01*
X83311966Y-24935130D01*
X83174462Y-24602345D01*
X82715073Y-24142154D01*
X82114547Y-23892794D01*
X81464306Y-23892226D01*
X80863345Y-24140538D01*
X80403154Y-24599927D01*
X80153794Y-25200453D01*
X80153226Y-25850694D01*
X80221482Y-26015887D01*
X79471185Y-26766185D01*
X79306004Y-27013395D01*
X79256377Y-27262889D01*
X78928754Y-26772567D01*
X78393131Y-26414675D01*
X77761321Y-26289000D01*
X77178679Y-26289000D01*
X76546869Y-26414675D01*
X76011246Y-26772567D01*
X75653354Y-27308190D01*
X75527679Y-27940000D01*
X73617580Y-27940000D01*
X73617580Y-25940000D01*
X73573302Y-25704683D01*
X73434230Y-25488559D01*
X73222030Y-25343569D01*
X72970140Y-25292560D01*
X68970140Y-25292560D01*
X68734823Y-25336838D01*
X68518699Y-25475910D01*
X68373709Y-25688110D01*
X68322700Y-25940000D01*
X68322700Y-29940000D01*
X68332402Y-29991560D01*
X67605660Y-29991560D01*
X67605660Y-28225750D01*
X67446910Y-28067000D01*
X65097660Y-28067000D01*
X64843660Y-28067000D01*
X62494410Y-28067000D01*
X62335660Y-28225750D01*
X54737000Y-28225750D01*
X54737000Y-25813690D01*
X62335660Y-25813690D01*
X62335660Y-27654250D01*
X62494410Y-27813000D01*
X64843660Y-27813000D01*
X64843660Y-25463750D01*
X65097660Y-25463750D01*
X65097660Y-27813000D01*
X67446910Y-27813000D01*
X67605660Y-27654250D01*
X67605660Y-25813690D01*
X67508987Y-25580301D01*
X67330358Y-25401673D01*
X67096969Y-25305000D01*
X65256410Y-25305000D01*
X65097660Y-25463750D01*
X64843660Y-25463750D01*
X64684910Y-25305000D01*
X62844351Y-25305000D01*
X62610962Y-25401673D01*
X62432333Y-25580301D01*
X62335660Y-25813690D01*
X54737000Y-25813690D01*
X54737000Y-21717000D01*
X105264497Y-21717000D01*
X105283000Y-21744692D01*
G36*
X103505000Y-54929370D02*
X102151491Y-53575861D01*
X102476846Y-53251073D01*
X102726206Y-52650547D01*
X102726774Y-52000306D01*
X102478462Y-51399345D01*
X102019073Y-50939154D01*
X101418547Y-50689794D01*
X100768306Y-50689226D01*
X100167345Y-50937538D01*
X99707154Y-51396927D01*
X99457794Y-51997453D01*
X99457226Y-52647694D01*
X99705538Y-53248655D01*
X100164927Y-53708846D01*
X100369763Y-53793901D01*
X100388004Y-53885605D01*
X100447736Y-53975000D01*
X100553185Y-54132815D01*
X101347685Y-54927315D01*
X101287370Y-54902270D01*
X100898337Y-54901931D01*
X100538788Y-55050493D01*
X100263460Y-55325341D01*
X100114270Y-55684630D01*
X100113931Y-56073663D01*
X100262493Y-56433212D01*
X100330000Y-56500837D01*
X100330000Y-57982330D01*
X100167345Y-58049538D01*
X99707154Y-58508927D01*
X99457794Y-59109453D01*
X99457226Y-59759694D01*
X99705538Y-60360655D01*
X100164927Y-60820846D01*
X100765453Y-61070206D01*
X101415694Y-61070774D01*
X102016655Y-60822462D01*
X102362000Y-60477719D01*
X102362000Y-63386917D01*
X102295460Y-63453341D01*
X102146270Y-63812630D01*
X102145931Y-64201663D01*
X102294493Y-64561212D01*
X102569341Y-64836540D01*
X102928630Y-64985730D01*
X103317663Y-64986069D01*
X103505000Y-64908663D01*
X103505000Y-68453000D01*
X99924785Y-68453000D01*
X99965885Y-68391489D01*
X100079959Y-67818000D01*
X99965885Y-67244511D01*
X99641029Y-66758330D01*
X99326248Y-66548000D01*
X99641029Y-66337670D01*
X99965885Y-65851489D01*
X100079959Y-65278000D01*
X99965885Y-64704511D01*
X99641029Y-64218330D01*
X99326248Y-64008000D01*
X99641029Y-63797670D01*
X99965885Y-63311489D01*
X100079959Y-62738000D01*
X99965885Y-62164511D01*
X99641029Y-61678330D01*
X99154848Y-61353474D01*
X98581359Y-61239400D01*
X98522641Y-61239400D01*
X97949152Y-61353474D01*
X97483558Y-61664574D01*
X97478762Y-61639083D01*
X97339690Y-61422959D01*
X97127490Y-61277969D01*
X96875600Y-61226960D01*
X95148400Y-61226960D01*
X94913083Y-61271238D01*
X94696959Y-61410310D01*
X94551969Y-61622510D01*
X94500960Y-61874400D01*
X94500960Y-62509724D01*
X93001787Y-61010551D01*
X93145453Y-61070206D01*
X93795694Y-61070774D01*
X94396655Y-60822462D01*
X94856846Y-60363073D01*
X95106206Y-59762547D01*
X95106774Y-59112306D01*
X94858462Y-58511345D01*
X94399073Y-58051154D01*
X93798547Y-57801794D01*
X93148306Y-57801226D01*
X92547345Y-58049538D01*
X92087154Y-58508927D01*
X91837794Y-59109453D01*
X91837226Y-59759694D01*
X91897990Y-59906754D01*
X91821000Y-59829764D01*
X91821000Y-57912000D01*
X91753329Y-57571794D01*
X91560618Y-57283382D01*
X88773000Y-54495764D01*
X88773000Y-52647694D01*
X91837226Y-52647694D01*
X92085538Y-53248655D01*
X92544927Y-53708846D01*
X93145453Y-53958206D01*
X93795694Y-53958774D01*
X94396655Y-53710462D01*
X94856846Y-53251073D01*
X95106206Y-52650547D01*
X95106774Y-52000306D01*
X94858462Y-51399345D01*
X94399073Y-50939154D01*
X93798547Y-50689794D01*
X93148306Y-50689226D01*
X92547345Y-50937538D01*
X92087154Y-51396927D01*
X91837794Y-51997453D01*
X91837226Y-52647694D01*
X88773000Y-52647694D01*
X88773000Y-51185194D01*
X88808655Y-51170462D01*
X89268846Y-50711073D01*
X89518206Y-50110547D01*
X89518774Y-49460306D01*
X89270462Y-48859345D01*
X88811073Y-48399154D01*
X88773000Y-48383345D01*
X88773000Y-46297694D01*
X91837226Y-46297694D01*
X92085538Y-46898655D01*
X92544927Y-47358846D01*
X93145453Y-47608206D01*
X93795694Y-47608774D01*
X94396655Y-47360462D01*
X94856846Y-46901073D01*
X95106206Y-46300547D01*
X95106208Y-46297694D01*
X99457226Y-46297694D01*
X99705538Y-46898655D01*
X100164927Y-47358846D01*
X100765453Y-47608206D01*
X101415694Y-47608774D01*
X102016655Y-47360462D01*
X102476846Y-46901073D01*
X102726206Y-46300547D01*
X102726774Y-45650306D01*
X102478462Y-45049345D01*
X102019073Y-44589154D01*
X101418547Y-44339794D01*
X100768306Y-44339226D01*
X100167345Y-44587538D01*
X99707154Y-45046927D01*
X99457794Y-45647453D01*
X99457226Y-46297694D01*
X95106208Y-46297694D01*
X95106774Y-45650306D01*
X94858462Y-45049345D01*
X94399073Y-44589154D01*
X93798547Y-44339794D01*
X93148306Y-44339226D01*
X92547345Y-44587538D01*
X92087154Y-45046927D01*
X91837794Y-45647453D01*
X91837226Y-46297694D01*
X88773000Y-46297694D01*
X88773000Y-45072236D01*
X91052618Y-42792618D01*
X91245329Y-42504206D01*
X91313000Y-42164000D01*
X91313000Y-39484236D01*
X91837645Y-38959591D01*
X91837226Y-39439694D01*
X92085538Y-40040655D01*
X92544927Y-40500846D01*
X93145453Y-40750206D01*
X93510003Y-40750524D01*
X93509931Y-40833663D01*
X93658493Y-41193212D01*
X93933341Y-41468540D01*
X94292630Y-41617730D01*
X94681663Y-41618069D01*
X95041212Y-41469507D01*
X95316540Y-41194659D01*
X95465730Y-40835370D01*
X95465813Y-40739817D01*
X96327631Y-39878000D01*
X99638330Y-39878000D01*
X99705538Y-40040655D01*
X100164927Y-40500846D01*
X100765453Y-40750206D01*
X101415694Y-40750774D01*
X102016655Y-40502462D01*
X102476846Y-40043073D01*
X102726206Y-39442547D01*
X102726774Y-38792306D01*
X102478462Y-38191345D01*
X102260498Y-37973000D01*
X103505000Y-37973000D01*
X103505000Y-54929370D01*
X103505000Y-54929370D01*
G37*
X103505000Y-54929370D02*
X102151491Y-53575861D01*
X102476846Y-53251073D01*
X102726206Y-52650547D01*
X102726774Y-52000306D01*
X102478462Y-51399345D01*
X102019073Y-50939154D01*
X101418547Y-50689794D01*
X100768306Y-50689226D01*
X100167345Y-50937538D01*
X99707154Y-51396927D01*
X99457794Y-51997453D01*
X99457226Y-52647694D01*
X99705538Y-53248655D01*
X100164927Y-53708846D01*
X100369763Y-53793901D01*
X100388004Y-53885605D01*
X100447736Y-53975000D01*
X100553185Y-54132815D01*
X101347685Y-54927315D01*
X101287370Y-54902270D01*
X100898337Y-54901931D01*
X100538788Y-55050493D01*
X100263460Y-55325341D01*
X100114270Y-55684630D01*
X100113931Y-56073663D01*
X100262493Y-56433212D01*
X100330000Y-56500837D01*
X100330000Y-57982330D01*
X100167345Y-58049538D01*
X99707154Y-58508927D01*
X99457794Y-59109453D01*
X99457226Y-59759694D01*
X99705538Y-60360655D01*
X100164927Y-60820846D01*
X100765453Y-61070206D01*
X101415694Y-61070774D01*
X102016655Y-60822462D01*
X102362000Y-60477719D01*
X102362000Y-63386917D01*
X102295460Y-63453341D01*
X102146270Y-63812630D01*
X102145931Y-64201663D01*
X102294493Y-64561212D01*
X102569341Y-64836540D01*
X102928630Y-64985730D01*
X103317663Y-64986069D01*
X103505000Y-64908663D01*
X103505000Y-68453000D01*
X99924785Y-68453000D01*
X99965885Y-68391489D01*
X100079959Y-67818000D01*
X99965885Y-67244511D01*
X99641029Y-66758330D01*
X99326248Y-66548000D01*
X99641029Y-66337670D01*
X99965885Y-65851489D01*
X100079959Y-65278000D01*
X99965885Y-64704511D01*
X99641029Y-64218330D01*
X99326248Y-64008000D01*
X99641029Y-63797670D01*
X99965885Y-63311489D01*
X100079959Y-62738000D01*
X99965885Y-62164511D01*
X99641029Y-61678330D01*
X99154848Y-61353474D01*
X98581359Y-61239400D01*
X98522641Y-61239400D01*
X97949152Y-61353474D01*
X97483558Y-61664574D01*
X97478762Y-61639083D01*
X97339690Y-61422959D01*
X97127490Y-61277969D01*
X96875600Y-61226960D01*
X95148400Y-61226960D01*
X94913083Y-61271238D01*
X94696959Y-61410310D01*
X94551969Y-61622510D01*
X94500960Y-61874400D01*
X94500960Y-62509724D01*
X93001787Y-61010551D01*
X93145453Y-61070206D01*
X93795694Y-61070774D01*
X94396655Y-60822462D01*
X94856846Y-60363073D01*
X95106206Y-59762547D01*
X95106774Y-59112306D01*
X94858462Y-58511345D01*
X94399073Y-58051154D01*
X93798547Y-57801794D01*
X93148306Y-57801226D01*
X92547345Y-58049538D01*
X92087154Y-58508927D01*
X91837794Y-59109453D01*
X91837226Y-59759694D01*
X91897990Y-59906754D01*
X91821000Y-59829764D01*
X91821000Y-57912000D01*
X91753329Y-57571794D01*
X91560618Y-57283382D01*
X88773000Y-54495764D01*
X88773000Y-52647694D01*
X91837226Y-52647694D01*
X92085538Y-53248655D01*
X92544927Y-53708846D01*
X93145453Y-53958206D01*
X93795694Y-53958774D01*
X94396655Y-53710462D01*
X94856846Y-53251073D01*
X95106206Y-52650547D01*
X95106774Y-52000306D01*
X94858462Y-51399345D01*
X94399073Y-50939154D01*
X93798547Y-50689794D01*
X93148306Y-50689226D01*
X92547345Y-50937538D01*
X92087154Y-51396927D01*
X91837794Y-51997453D01*
X91837226Y-52647694D01*
X88773000Y-52647694D01*
X88773000Y-51185194D01*
X88808655Y-51170462D01*
X89268846Y-50711073D01*
X89518206Y-50110547D01*
X89518774Y-49460306D01*
X89270462Y-48859345D01*
X88811073Y-48399154D01*
X88773000Y-48383345D01*
X88773000Y-46297694D01*
X91837226Y-46297694D01*
X92085538Y-46898655D01*
X92544927Y-47358846D01*
X93145453Y-47608206D01*
X93795694Y-47608774D01*
X94396655Y-47360462D01*
X94856846Y-46901073D01*
X95106206Y-46300547D01*
X95106208Y-46297694D01*
X99457226Y-46297694D01*
X99705538Y-46898655D01*
X100164927Y-47358846D01*
X100765453Y-47608206D01*
X101415694Y-47608774D01*
X102016655Y-47360462D01*
X102476846Y-46901073D01*
X102726206Y-46300547D01*
X102726774Y-45650306D01*
X102478462Y-45049345D01*
X102019073Y-44589154D01*
X101418547Y-44339794D01*
X100768306Y-44339226D01*
X100167345Y-44587538D01*
X99707154Y-45046927D01*
X99457794Y-45647453D01*
X99457226Y-46297694D01*
X95106208Y-46297694D01*
X95106774Y-45650306D01*
X94858462Y-45049345D01*
X94399073Y-44589154D01*
X93798547Y-44339794D01*
X93148306Y-44339226D01*
X92547345Y-44587538D01*
X92087154Y-45046927D01*
X91837794Y-45647453D01*
X91837226Y-46297694D01*
X88773000Y-46297694D01*
X88773000Y-45072236D01*
X91052618Y-42792618D01*
X91245329Y-42504206D01*
X91313000Y-42164000D01*
X91313000Y-39484236D01*
X91837645Y-38959591D01*
X91837226Y-39439694D01*
X92085538Y-40040655D01*
X92544927Y-40500846D01*
X93145453Y-40750206D01*
X93510003Y-40750524D01*
X93509931Y-40833663D01*
X93658493Y-41193212D01*
X93933341Y-41468540D01*
X94292630Y-41617730D01*
X94681663Y-41618069D01*
X95041212Y-41469507D01*
X95316540Y-41194659D01*
X95465730Y-40835370D01*
X95465813Y-40739817D01*
X96327631Y-39878000D01*
X99638330Y-39878000D01*
X99705538Y-40040655D01*
X100164927Y-40500846D01*
X100765453Y-40750206D01*
X101415694Y-40750774D01*
X102016655Y-40502462D01*
X102476846Y-40043073D01*
X102726206Y-39442547D01*
X102726774Y-38792306D01*
X102478462Y-38191345D01*
X102260498Y-37973000D01*
X103505000Y-37973000D01*
X103505000Y-54929370D01*
M02*
