G04 #@! TF.GenerationSoftware,KiCad,Pcbnew,5.0.2-bee76a0~70~ubuntu18.04.1*
G04 #@! TF.CreationDate,2019-03-17T13:31:41-04:00*
G04 #@! TF.ProjectId,main,6d61696e-2e6b-4696-9361-645f70636258,1*
G04 #@! TF.SameCoordinates,Original*
G04 #@! TF.FileFunction,Soldermask,Top*
G04 #@! TF.FilePolarity,Negative*
%FSLAX46Y46*%
G04 Gerber Fmt 4.6, Leading zero omitted, Abs format (unit mm)*
G04 Created by KiCad (PCBNEW 5.0.2-bee76a0~70~ubuntu18.04.1) date Sun 17 Mar 2019 01:31:41 PM EDT*
%MOMM*%
%LPD*%
G01*
G04 APERTURE LIST*
%ADD10C,0.100000*%
G04 APERTURE END LIST*
D10*
G36*
X103682800Y-74726800D02*
X101549200Y-74726800D01*
X101549200Y-72593200D01*
X103682800Y-72593200D01*
X103682800Y-74726800D01*
X103682800Y-74726800D01*
G37*
G36*
X70277338Y-72855738D02*
X70450373Y-72927412D01*
X70606100Y-73031465D01*
X70738535Y-73163900D01*
X70842588Y-73319627D01*
X70914262Y-73492662D01*
X70950800Y-73676354D01*
X70950800Y-73863646D01*
X70914262Y-74047338D01*
X70842588Y-74220373D01*
X70738535Y-74376100D01*
X70606100Y-74508535D01*
X70450373Y-74612588D01*
X70277338Y-74684262D01*
X70093646Y-74720800D01*
X69906354Y-74720800D01*
X69722662Y-74684262D01*
X69549627Y-74612588D01*
X69393900Y-74508535D01*
X69261465Y-74376100D01*
X69157412Y-74220373D01*
X69085738Y-74047338D01*
X69049200Y-73863646D01*
X69049200Y-73676354D01*
X69085738Y-73492662D01*
X69157412Y-73319627D01*
X69261465Y-73163900D01*
X69393900Y-73031465D01*
X69549627Y-72927412D01*
X69722662Y-72855738D01*
X69906354Y-72819200D01*
X70093646Y-72819200D01*
X70277338Y-72855738D01*
X70277338Y-72855738D01*
G37*
G36*
X74880416Y-72446131D02*
X75007952Y-72498958D01*
X75122737Y-72575655D01*
X75220345Y-72673263D01*
X75297042Y-72788048D01*
X75349869Y-72915584D01*
X75376800Y-73050976D01*
X75376800Y-73189024D01*
X75349869Y-73324416D01*
X75297042Y-73451952D01*
X75220345Y-73566737D01*
X75122737Y-73664345D01*
X75007952Y-73741042D01*
X74880416Y-73793869D01*
X74745024Y-73820800D01*
X74606976Y-73820800D01*
X74471584Y-73793869D01*
X74344048Y-73741042D01*
X74229263Y-73664345D01*
X74131655Y-73566737D01*
X74054958Y-73451952D01*
X74002131Y-73324416D01*
X73975200Y-73189024D01*
X73975200Y-73050976D01*
X74002131Y-72915584D01*
X74054958Y-72788048D01*
X74131655Y-72673263D01*
X74229263Y-72575655D01*
X74344048Y-72498958D01*
X74471584Y-72446131D01*
X74606976Y-72419200D01*
X74745024Y-72419200D01*
X74880416Y-72446131D01*
X74880416Y-72446131D01*
G37*
G36*
X83516416Y-71549131D02*
X83643952Y-71601958D01*
X83758737Y-71678655D01*
X83856345Y-71776263D01*
X83933042Y-71891048D01*
X83985869Y-72018584D01*
X84012800Y-72153976D01*
X84012800Y-72292024D01*
X83985869Y-72427416D01*
X83933042Y-72554952D01*
X83856345Y-72669737D01*
X83758737Y-72767345D01*
X83643952Y-72844042D01*
X83516416Y-72896869D01*
X83381024Y-72923800D01*
X83242976Y-72923800D01*
X83107584Y-72896869D01*
X82980048Y-72844042D01*
X82865263Y-72767345D01*
X82767655Y-72669737D01*
X82690958Y-72554952D01*
X82638131Y-72427416D01*
X82611200Y-72292024D01*
X82611200Y-72153976D01*
X82638131Y-72018584D01*
X82690958Y-71891048D01*
X82767655Y-71776263D01*
X82865263Y-71678655D01*
X82980048Y-71601958D01*
X83107584Y-71549131D01*
X83242976Y-71522200D01*
X83381024Y-71522200D01*
X83516416Y-71549131D01*
X83516416Y-71549131D01*
G37*
G36*
X102746765Y-70060918D02*
X102825129Y-70068636D01*
X102925676Y-70099137D01*
X103026223Y-70129637D01*
X103125283Y-70182586D01*
X103211550Y-70228697D01*
X103211552Y-70228698D01*
X103211551Y-70228698D01*
X103373991Y-70362009D01*
X103507302Y-70524449D01*
X103606363Y-70709777D01*
X103667364Y-70910872D01*
X103687961Y-71120000D01*
X103667364Y-71329128D01*
X103606363Y-71530223D01*
X103596256Y-71549131D01*
X103507303Y-71715550D01*
X103373991Y-71877991D01*
X103211550Y-72011303D01*
X103125283Y-72057414D01*
X103026223Y-72110363D01*
X102925675Y-72140864D01*
X102825129Y-72171364D01*
X102746765Y-72179082D01*
X102668403Y-72186800D01*
X102563597Y-72186800D01*
X102485235Y-72179082D01*
X102406871Y-72171364D01*
X102306324Y-72140863D01*
X102205777Y-72110363D01*
X102106717Y-72057414D01*
X102020450Y-72011303D01*
X101858009Y-71877991D01*
X101724697Y-71715550D01*
X101635744Y-71549131D01*
X101625637Y-71530223D01*
X101564636Y-71329128D01*
X101544039Y-71120000D01*
X101564636Y-70910872D01*
X101625637Y-70709777D01*
X101724698Y-70524449D01*
X101858009Y-70362009D01*
X102020449Y-70228698D01*
X102020448Y-70228698D01*
X102020450Y-70228697D01*
X102106717Y-70182586D01*
X102205777Y-70129637D01*
X102306324Y-70099137D01*
X102406871Y-70068636D01*
X102485235Y-70060918D01*
X102563597Y-70053200D01*
X102668403Y-70053200D01*
X102746765Y-70060918D01*
X102746765Y-70060918D01*
G37*
G36*
X75376800Y-71820800D02*
X73975200Y-71820800D01*
X73975200Y-70419200D01*
X75376800Y-70419200D01*
X75376800Y-71820800D01*
X75376800Y-71820800D01*
G37*
G36*
X84012800Y-70423800D02*
X82611200Y-70423800D01*
X82611200Y-69022200D01*
X84012800Y-69022200D01*
X84012800Y-70423800D01*
X84012800Y-70423800D01*
G37*
G36*
X70277338Y-67555738D02*
X70450373Y-67627412D01*
X70606100Y-67731465D01*
X70738535Y-67863900D01*
X70842588Y-68019627D01*
X70914262Y-68192662D01*
X70950800Y-68376354D01*
X70950800Y-68563646D01*
X70914262Y-68747338D01*
X70842588Y-68920373D01*
X70738535Y-69076100D01*
X70606100Y-69208535D01*
X70450373Y-69312588D01*
X70277338Y-69384262D01*
X70093646Y-69420800D01*
X69906354Y-69420800D01*
X69722662Y-69384262D01*
X69549627Y-69312588D01*
X69393900Y-69208535D01*
X69261465Y-69076100D01*
X69157412Y-68920373D01*
X69085738Y-68747338D01*
X69049200Y-68563646D01*
X69049200Y-68376354D01*
X69085738Y-68192662D01*
X69157412Y-68019627D01*
X69261465Y-67863900D01*
X69393900Y-67731465D01*
X69549627Y-67627412D01*
X69722662Y-67555738D01*
X69906354Y-67519200D01*
X70093646Y-67519200D01*
X70277338Y-67555738D01*
X70277338Y-67555738D01*
G37*
G36*
X98731251Y-66916830D02*
X98731254Y-66916831D01*
X98903619Y-66969117D01*
X98903621Y-66969118D01*
X99062473Y-67054027D01*
X99201707Y-67168293D01*
X99315973Y-67307527D01*
X99315974Y-67307529D01*
X99400883Y-67466381D01*
X99440897Y-67598290D01*
X99453170Y-67638749D01*
X99470824Y-67818000D01*
X99453170Y-67997251D01*
X99400882Y-68169621D01*
X99315973Y-68328473D01*
X99201707Y-68467707D01*
X99062473Y-68581973D01*
X99062471Y-68581974D01*
X98903619Y-68666883D01*
X98763339Y-68709436D01*
X98731251Y-68719170D01*
X98596921Y-68732400D01*
X98507079Y-68732400D01*
X98372749Y-68719170D01*
X98340661Y-68709436D01*
X98200381Y-68666883D01*
X98041529Y-68581974D01*
X98041527Y-68581973D01*
X97902293Y-68467707D01*
X97788027Y-68328473D01*
X97703118Y-68169621D01*
X97650830Y-67997251D01*
X97633176Y-67818000D01*
X97650830Y-67638749D01*
X97663103Y-67598290D01*
X97703117Y-67466381D01*
X97788026Y-67307529D01*
X97788027Y-67307527D01*
X97902293Y-67168293D01*
X98041527Y-67054027D01*
X98200379Y-66969118D01*
X98200381Y-66969117D01*
X98372746Y-66916831D01*
X98372749Y-66916830D01*
X98507079Y-66903600D01*
X98596921Y-66903600D01*
X98731251Y-66916830D01*
X98731251Y-66916830D01*
G37*
G36*
X96191251Y-66916830D02*
X96191254Y-66916831D01*
X96363619Y-66969117D01*
X96363621Y-66969118D01*
X96522473Y-67054027D01*
X96661707Y-67168293D01*
X96775973Y-67307527D01*
X96775974Y-67307529D01*
X96860883Y-67466381D01*
X96900897Y-67598290D01*
X96913170Y-67638749D01*
X96930824Y-67818000D01*
X96913170Y-67997251D01*
X96860882Y-68169621D01*
X96775973Y-68328473D01*
X96661707Y-68467707D01*
X96522473Y-68581973D01*
X96522471Y-68581974D01*
X96363619Y-68666883D01*
X96223339Y-68709436D01*
X96191251Y-68719170D01*
X96056921Y-68732400D01*
X95967079Y-68732400D01*
X95832749Y-68719170D01*
X95800661Y-68709436D01*
X95660381Y-68666883D01*
X95501529Y-68581974D01*
X95501527Y-68581973D01*
X95362293Y-68467707D01*
X95248027Y-68328473D01*
X95163118Y-68169621D01*
X95110830Y-67997251D01*
X95093176Y-67818000D01*
X95110830Y-67638749D01*
X95123103Y-67598290D01*
X95163117Y-67466381D01*
X95248026Y-67307529D01*
X95248027Y-67307527D01*
X95362293Y-67168293D01*
X95501527Y-67054027D01*
X95660379Y-66969118D01*
X95660381Y-66969117D01*
X95832746Y-66916831D01*
X95832749Y-66916830D01*
X95967079Y-66903600D01*
X96056921Y-66903600D01*
X96191251Y-66916830D01*
X96191251Y-66916830D01*
G37*
G36*
X82094357Y-65538071D02*
X82285500Y-65617245D01*
X82457524Y-65732188D01*
X82603812Y-65878476D01*
X82718755Y-66050500D01*
X82797929Y-66241643D01*
X82838290Y-66444554D01*
X82838290Y-66651446D01*
X82797929Y-66854357D01*
X82718755Y-67045500D01*
X82603812Y-67217524D01*
X82457524Y-67363812D01*
X82285500Y-67478755D01*
X82094357Y-67557929D01*
X81891446Y-67598290D01*
X81684554Y-67598290D01*
X81481643Y-67557929D01*
X81290500Y-67478755D01*
X81118476Y-67363812D01*
X80972188Y-67217524D01*
X80857245Y-67045500D01*
X80778071Y-66854357D01*
X80737710Y-66651446D01*
X80737710Y-66444554D01*
X80778071Y-66241643D01*
X80857245Y-66050500D01*
X80972188Y-65878476D01*
X81118476Y-65732188D01*
X81290500Y-65617245D01*
X81481643Y-65538071D01*
X81684554Y-65497710D01*
X81891446Y-65497710D01*
X82094357Y-65538071D01*
X82094357Y-65538071D01*
G37*
G36*
X88190357Y-65538071D02*
X88381500Y-65617245D01*
X88553524Y-65732188D01*
X88699812Y-65878476D01*
X88814755Y-66050500D01*
X88893929Y-66241643D01*
X88934290Y-66444554D01*
X88934290Y-66651446D01*
X88893929Y-66854357D01*
X88814755Y-67045500D01*
X88699812Y-67217524D01*
X88553524Y-67363812D01*
X88381500Y-67478755D01*
X88190357Y-67557929D01*
X87987446Y-67598290D01*
X87780554Y-67598290D01*
X87577643Y-67557929D01*
X87386500Y-67478755D01*
X87214476Y-67363812D01*
X87068188Y-67217524D01*
X86953245Y-67045500D01*
X86874071Y-66854357D01*
X86833710Y-66651446D01*
X86833710Y-66444554D01*
X86874071Y-66241643D01*
X86953245Y-66050500D01*
X87068188Y-65878476D01*
X87214476Y-65732188D01*
X87386500Y-65617245D01*
X87577643Y-65538071D01*
X87780554Y-65497710D01*
X87987446Y-65497710D01*
X88190357Y-65538071D01*
X88190357Y-65538071D01*
G37*
G36*
X85142357Y-65538071D02*
X85333500Y-65617245D01*
X85505524Y-65732188D01*
X85651812Y-65878476D01*
X85766755Y-66050500D01*
X85845929Y-66241643D01*
X85886290Y-66444554D01*
X85886290Y-66651446D01*
X85845929Y-66854357D01*
X85766755Y-67045500D01*
X85651812Y-67217524D01*
X85505524Y-67363812D01*
X85333500Y-67478755D01*
X85142357Y-67557929D01*
X84939446Y-67598290D01*
X84732554Y-67598290D01*
X84529643Y-67557929D01*
X84338500Y-67478755D01*
X84166476Y-67363812D01*
X84020188Y-67217524D01*
X83905245Y-67045500D01*
X83826071Y-66854357D01*
X83785710Y-66651446D01*
X83785710Y-66444554D01*
X83826071Y-66241643D01*
X83905245Y-66050500D01*
X84020188Y-65878476D01*
X84166476Y-65732188D01*
X84338500Y-65617245D01*
X84529643Y-65538071D01*
X84732554Y-65497710D01*
X84939446Y-65497710D01*
X85142357Y-65538071D01*
X85142357Y-65538071D01*
G37*
G36*
X91074240Y-67231260D02*
X89773760Y-67231260D01*
X89773760Y-65930780D01*
X91074240Y-65930780D01*
X91074240Y-67231260D01*
X91074240Y-67231260D01*
G37*
G36*
X77933129Y-64988636D02*
X78033676Y-65019137D01*
X78134223Y-65049637D01*
X78226098Y-65098746D01*
X78319550Y-65148697D01*
X78481991Y-65282009D01*
X78615303Y-65444450D01*
X78643771Y-65497710D01*
X78714363Y-65629777D01*
X78775364Y-65830872D01*
X78795961Y-66040000D01*
X78775364Y-66249128D01*
X78714363Y-66450223D01*
X78661414Y-66549283D01*
X78615303Y-66635550D01*
X78481991Y-66797991D01*
X78319550Y-66931303D01*
X78248805Y-66969117D01*
X78134223Y-67030363D01*
X78033675Y-67060864D01*
X77933129Y-67091364D01*
X77854765Y-67099082D01*
X77776403Y-67106800D01*
X77163597Y-67106800D01*
X77085235Y-67099082D01*
X77006871Y-67091364D01*
X76906325Y-67060864D01*
X76805777Y-67030363D01*
X76691195Y-66969117D01*
X76620450Y-66931303D01*
X76458009Y-66797991D01*
X76324697Y-66635550D01*
X76278586Y-66549283D01*
X76225637Y-66450223D01*
X76164636Y-66249128D01*
X76144039Y-66040000D01*
X76164636Y-65830872D01*
X76225637Y-65629777D01*
X76296229Y-65497710D01*
X76324697Y-65444450D01*
X76458009Y-65282009D01*
X76620450Y-65148697D01*
X76713902Y-65098746D01*
X76805777Y-65049637D01*
X76906325Y-65019136D01*
X77006871Y-64988636D01*
X77163597Y-64973200D01*
X77776403Y-64973200D01*
X77933129Y-64988636D01*
X77933129Y-64988636D01*
G37*
G36*
X102250240Y-66723260D02*
X100949760Y-66723260D01*
X100949760Y-65422780D01*
X102250240Y-65422780D01*
X102250240Y-66723260D01*
X102250240Y-66723260D01*
G37*
G36*
X96191251Y-64376830D02*
X96191254Y-64376831D01*
X96363619Y-64429117D01*
X96363621Y-64429118D01*
X96522473Y-64514027D01*
X96661707Y-64628293D01*
X96775973Y-64767527D01*
X96860882Y-64926379D01*
X96913170Y-65098749D01*
X96930824Y-65278000D01*
X96913170Y-65457251D01*
X96913169Y-65457254D01*
X96864637Y-65617245D01*
X96860882Y-65629621D01*
X96775973Y-65788473D01*
X96661707Y-65927707D01*
X96522473Y-66041973D01*
X96522471Y-66041974D01*
X96363619Y-66126883D01*
X96223339Y-66169436D01*
X96191251Y-66179170D01*
X96056921Y-66192400D01*
X95967079Y-66192400D01*
X95832749Y-66179170D01*
X95800661Y-66169436D01*
X95660381Y-66126883D01*
X95501529Y-66041974D01*
X95501527Y-66041973D01*
X95362293Y-65927707D01*
X95248027Y-65788473D01*
X95163118Y-65629621D01*
X95159364Y-65617245D01*
X95110831Y-65457254D01*
X95110830Y-65457251D01*
X95093176Y-65278000D01*
X95110830Y-65098749D01*
X95163118Y-64926379D01*
X95248027Y-64767527D01*
X95362293Y-64628293D01*
X95501527Y-64514027D01*
X95660379Y-64429118D01*
X95660381Y-64429117D01*
X95832746Y-64376831D01*
X95832749Y-64376830D01*
X95967079Y-64363600D01*
X96056921Y-64363600D01*
X96191251Y-64376830D01*
X96191251Y-64376830D01*
G37*
G36*
X98731251Y-64376830D02*
X98731254Y-64376831D01*
X98903619Y-64429117D01*
X98903621Y-64429118D01*
X99062473Y-64514027D01*
X99201707Y-64628293D01*
X99315973Y-64767527D01*
X99400882Y-64926379D01*
X99453170Y-65098749D01*
X99470824Y-65278000D01*
X99453170Y-65457251D01*
X99453169Y-65457254D01*
X99404637Y-65617245D01*
X99400882Y-65629621D01*
X99315973Y-65788473D01*
X99201707Y-65927707D01*
X99062473Y-66041973D01*
X99062471Y-66041974D01*
X98903619Y-66126883D01*
X98763339Y-66169436D01*
X98731251Y-66179170D01*
X98596921Y-66192400D01*
X98507079Y-66192400D01*
X98372749Y-66179170D01*
X98340661Y-66169436D01*
X98200381Y-66126883D01*
X98041529Y-66041974D01*
X98041527Y-66041973D01*
X97902293Y-65927707D01*
X97788027Y-65788473D01*
X97703118Y-65629621D01*
X97699364Y-65617245D01*
X97650831Y-65457254D01*
X97650830Y-65457251D01*
X97633176Y-65278000D01*
X97650830Y-65098749D01*
X97703118Y-64926379D01*
X97788027Y-64767527D01*
X97902293Y-64628293D01*
X98041527Y-64514027D01*
X98200379Y-64429118D01*
X98200381Y-64429117D01*
X98372746Y-64376831D01*
X98372749Y-64376830D01*
X98507079Y-64363600D01*
X98596921Y-64363600D01*
X98731251Y-64376830D01*
X98731251Y-64376830D01*
G37*
G36*
X91074240Y-65133220D02*
X89773760Y-65133220D01*
X89773760Y-63832740D01*
X91074240Y-63832740D01*
X91074240Y-65133220D01*
X91074240Y-65133220D01*
G37*
G36*
X102250240Y-64625220D02*
X100949760Y-64625220D01*
X100949760Y-63324740D01*
X102250240Y-63324740D01*
X102250240Y-64625220D01*
X102250240Y-64625220D01*
G37*
G36*
X77933129Y-62448636D02*
X78033675Y-62479136D01*
X78134223Y-62509637D01*
X78226098Y-62558746D01*
X78319550Y-62608697D01*
X78481991Y-62742009D01*
X78615303Y-62904450D01*
X78661414Y-62990717D01*
X78714363Y-63089777D01*
X78775364Y-63290872D01*
X78795961Y-63500000D01*
X78775364Y-63709128D01*
X78714363Y-63910223D01*
X78661414Y-64009283D01*
X78615303Y-64095550D01*
X78481991Y-64257991D01*
X78319550Y-64391303D01*
X78248805Y-64429117D01*
X78134223Y-64490363D01*
X78033676Y-64520863D01*
X77933129Y-64551364D01*
X77854765Y-64559082D01*
X77776403Y-64566800D01*
X77163597Y-64566800D01*
X77085235Y-64559082D01*
X77006871Y-64551364D01*
X76906324Y-64520863D01*
X76805777Y-64490363D01*
X76691195Y-64429117D01*
X76620450Y-64391303D01*
X76458009Y-64257991D01*
X76324697Y-64095550D01*
X76278586Y-64009283D01*
X76225637Y-63910223D01*
X76164636Y-63709128D01*
X76144039Y-63500000D01*
X76164636Y-63290872D01*
X76225637Y-63089777D01*
X76278586Y-62990717D01*
X76324697Y-62904450D01*
X76458009Y-62742009D01*
X76620450Y-62608697D01*
X76713902Y-62558746D01*
X76805777Y-62509637D01*
X76906325Y-62479136D01*
X77006871Y-62448636D01*
X77163597Y-62433200D01*
X77776403Y-62433200D01*
X77933129Y-62448636D01*
X77933129Y-62448636D01*
G37*
G36*
X96926400Y-63652400D02*
X95097600Y-63652400D01*
X95097600Y-61823600D01*
X96926400Y-61823600D01*
X96926400Y-63652400D01*
X96926400Y-63652400D01*
G37*
G36*
X98731251Y-61836830D02*
X98731254Y-61836831D01*
X98903619Y-61889117D01*
X98903621Y-61889118D01*
X99062473Y-61974027D01*
X99201707Y-62088293D01*
X99315973Y-62227527D01*
X99400882Y-62386379D01*
X99453170Y-62558749D01*
X99470824Y-62738000D01*
X99453170Y-62917251D01*
X99400882Y-63089621D01*
X99315973Y-63248473D01*
X99201707Y-63387707D01*
X99062473Y-63501973D01*
X99062471Y-63501974D01*
X98903619Y-63586883D01*
X98763339Y-63629436D01*
X98731251Y-63639170D01*
X98596921Y-63652400D01*
X98507079Y-63652400D01*
X98372749Y-63639170D01*
X98340661Y-63629436D01*
X98200381Y-63586883D01*
X98041529Y-63501974D01*
X98041527Y-63501973D01*
X97902293Y-63387707D01*
X97788027Y-63248473D01*
X97703118Y-63089621D01*
X97650830Y-62917251D01*
X97633176Y-62738000D01*
X97650830Y-62558749D01*
X97703118Y-62386379D01*
X97788027Y-62227527D01*
X97902293Y-62088293D01*
X98041527Y-61974027D01*
X98200379Y-61889118D01*
X98200381Y-61889117D01*
X98372746Y-61836831D01*
X98372749Y-61836830D01*
X98507079Y-61823600D01*
X98596921Y-61823600D01*
X98731251Y-61836830D01*
X98731251Y-61836830D01*
G37*
G36*
X77933129Y-59908636D02*
X78015091Y-59933499D01*
X78134223Y-59969637D01*
X78150411Y-59978290D01*
X78319550Y-60068697D01*
X78319552Y-60068698D01*
X78319551Y-60068698D01*
X78481991Y-60202009D01*
X78615302Y-60364449D01*
X78714363Y-60549777D01*
X78775364Y-60750872D01*
X78795961Y-60960000D01*
X78775364Y-61169128D01*
X78714363Y-61370223D01*
X78661414Y-61469283D01*
X78615303Y-61555550D01*
X78481991Y-61717991D01*
X78319550Y-61851303D01*
X78248805Y-61889117D01*
X78134223Y-61950363D01*
X78033675Y-61980864D01*
X77933129Y-62011364D01*
X77854765Y-62019082D01*
X77776403Y-62026800D01*
X77163597Y-62026800D01*
X77085235Y-62019082D01*
X77006871Y-62011364D01*
X76906325Y-61980864D01*
X76805777Y-61950363D01*
X76691195Y-61889117D01*
X76620450Y-61851303D01*
X76458009Y-61717991D01*
X76324697Y-61555550D01*
X76278586Y-61469283D01*
X76225637Y-61370223D01*
X76164636Y-61169128D01*
X76144039Y-60960000D01*
X76164636Y-60750872D01*
X76225637Y-60549777D01*
X76324698Y-60364449D01*
X76458009Y-60202009D01*
X76620449Y-60068698D01*
X76620448Y-60068698D01*
X76620450Y-60068697D01*
X76789589Y-59978290D01*
X76805777Y-59969637D01*
X76924909Y-59933499D01*
X77006871Y-59908636D01*
X77163597Y-59893200D01*
X77776403Y-59893200D01*
X77933129Y-59908636D01*
X77933129Y-59908636D01*
G37*
G36*
X101398357Y-58426071D02*
X101589500Y-58505245D01*
X101761524Y-58620188D01*
X101907812Y-58766476D01*
X102022755Y-58938500D01*
X102101929Y-59129643D01*
X102142290Y-59332554D01*
X102142290Y-59539446D01*
X102101929Y-59742357D01*
X102022755Y-59933500D01*
X101907812Y-60105524D01*
X101761524Y-60251812D01*
X101589500Y-60366755D01*
X101398357Y-60445929D01*
X101195446Y-60486290D01*
X100988554Y-60486290D01*
X100785643Y-60445929D01*
X100594500Y-60366755D01*
X100422476Y-60251812D01*
X100276188Y-60105524D01*
X100161245Y-59933500D01*
X100082071Y-59742357D01*
X100041710Y-59539446D01*
X100041710Y-59332554D01*
X100082071Y-59129643D01*
X100161245Y-58938500D01*
X100276188Y-58766476D01*
X100422476Y-58620188D01*
X100594500Y-58505245D01*
X100785643Y-58426071D01*
X100988554Y-58385710D01*
X101195446Y-58385710D01*
X101398357Y-58426071D01*
X101398357Y-58426071D01*
G37*
G36*
X93778357Y-58426071D02*
X93969500Y-58505245D01*
X94141524Y-58620188D01*
X94287812Y-58766476D01*
X94402755Y-58938500D01*
X94481929Y-59129643D01*
X94522290Y-59332554D01*
X94522290Y-59539446D01*
X94481929Y-59742357D01*
X94402755Y-59933500D01*
X94287812Y-60105524D01*
X94141524Y-60251812D01*
X93969500Y-60366755D01*
X93778357Y-60445929D01*
X93575446Y-60486290D01*
X93368554Y-60486290D01*
X93165643Y-60445929D01*
X92974500Y-60366755D01*
X92802476Y-60251812D01*
X92656188Y-60105524D01*
X92541245Y-59933500D01*
X92462071Y-59742357D01*
X92421710Y-59539446D01*
X92421710Y-59332554D01*
X92462071Y-59129643D01*
X92541245Y-58938500D01*
X92656188Y-58766476D01*
X92802476Y-58620188D01*
X92974500Y-58505245D01*
X93165643Y-58426071D01*
X93368554Y-58385710D01*
X93575446Y-58385710D01*
X93778357Y-58426071D01*
X93778357Y-58426071D01*
G37*
G36*
X88190357Y-57918071D02*
X88381500Y-57997245D01*
X88553524Y-58112188D01*
X88699812Y-58258476D01*
X88814755Y-58430500D01*
X88893929Y-58621643D01*
X88934290Y-58824554D01*
X88934290Y-59031446D01*
X88893929Y-59234357D01*
X88814755Y-59425500D01*
X88699812Y-59597524D01*
X88553524Y-59743812D01*
X88381500Y-59858755D01*
X88190357Y-59937929D01*
X87987446Y-59978290D01*
X87780554Y-59978290D01*
X87577643Y-59937929D01*
X87386500Y-59858755D01*
X87214476Y-59743812D01*
X87068188Y-59597524D01*
X86953245Y-59425500D01*
X86874071Y-59234357D01*
X86833710Y-59031446D01*
X86833710Y-58824554D01*
X86874071Y-58621643D01*
X86953245Y-58430500D01*
X87068188Y-58258476D01*
X87214476Y-58112188D01*
X87386500Y-57997245D01*
X87577643Y-57918071D01*
X87780554Y-57877710D01*
X87987446Y-57877710D01*
X88190357Y-57918071D01*
X88190357Y-57918071D01*
G37*
G36*
X82094357Y-57918071D02*
X82285500Y-57997245D01*
X82457524Y-58112188D01*
X82603812Y-58258476D01*
X82718755Y-58430500D01*
X82797929Y-58621643D01*
X82838290Y-58824554D01*
X82838290Y-59031446D01*
X82797929Y-59234357D01*
X82718755Y-59425500D01*
X82603812Y-59597524D01*
X82457524Y-59743812D01*
X82285500Y-59858755D01*
X82094357Y-59937929D01*
X81891446Y-59978290D01*
X81684554Y-59978290D01*
X81481643Y-59937929D01*
X81290500Y-59858755D01*
X81118476Y-59743812D01*
X80972188Y-59597524D01*
X80857245Y-59425500D01*
X80778071Y-59234357D01*
X80737710Y-59031446D01*
X80737710Y-58824554D01*
X80778071Y-58621643D01*
X80857245Y-58430500D01*
X80972188Y-58258476D01*
X81118476Y-58112188D01*
X81290500Y-57997245D01*
X81481643Y-57918071D01*
X81684554Y-57877710D01*
X81891446Y-57877710D01*
X82094357Y-57918071D01*
X82094357Y-57918071D01*
G37*
G36*
X85142357Y-57918071D02*
X85333500Y-57997245D01*
X85505524Y-58112188D01*
X85651812Y-58258476D01*
X85766755Y-58430500D01*
X85845929Y-58621643D01*
X85886290Y-58824554D01*
X85886290Y-59031446D01*
X85845929Y-59234357D01*
X85766755Y-59425500D01*
X85651812Y-59597524D01*
X85505524Y-59743812D01*
X85333500Y-59858755D01*
X85142357Y-59937929D01*
X84939446Y-59978290D01*
X84732554Y-59978290D01*
X84529643Y-59937929D01*
X84338500Y-59858755D01*
X84166476Y-59743812D01*
X84020188Y-59597524D01*
X83905245Y-59425500D01*
X83826071Y-59234357D01*
X83785710Y-59031446D01*
X83785710Y-58824554D01*
X83826071Y-58621643D01*
X83905245Y-58430500D01*
X84020188Y-58258476D01*
X84166476Y-58112188D01*
X84338500Y-57997245D01*
X84529643Y-57918071D01*
X84732554Y-57877710D01*
X84939446Y-57877710D01*
X85142357Y-57918071D01*
X85142357Y-57918071D01*
G37*
G36*
X70277338Y-57615738D02*
X70450373Y-57687412D01*
X70606100Y-57791465D01*
X70738535Y-57923900D01*
X70842588Y-58079627D01*
X70914262Y-58252662D01*
X70950800Y-58436354D01*
X70950800Y-58623646D01*
X70914262Y-58807338D01*
X70842588Y-58980373D01*
X70738535Y-59136100D01*
X70606100Y-59268535D01*
X70450373Y-59372588D01*
X70277338Y-59444262D01*
X70093646Y-59480800D01*
X69906354Y-59480800D01*
X69722662Y-59444262D01*
X69549627Y-59372588D01*
X69393900Y-59268535D01*
X69261465Y-59136100D01*
X69157412Y-58980373D01*
X69085738Y-58807338D01*
X69049200Y-58623646D01*
X69049200Y-58436354D01*
X69085738Y-58252662D01*
X69157412Y-58079627D01*
X69261465Y-57923900D01*
X69393900Y-57791465D01*
X69549627Y-57687412D01*
X69722662Y-57615738D01*
X69906354Y-57579200D01*
X70093646Y-57579200D01*
X70277338Y-57615738D01*
X70277338Y-57615738D01*
G37*
G36*
X96986090Y-57280850D02*
X96084390Y-57280850D01*
X96084390Y-56379150D01*
X96986090Y-56379150D01*
X96986090Y-57280850D01*
X96986090Y-57280850D01*
G37*
G36*
X94923610Y-57280850D02*
X94021910Y-57280850D01*
X94021910Y-56379150D01*
X94923610Y-56379150D01*
X94923610Y-57280850D01*
X94923610Y-57280850D01*
G37*
G36*
X75007416Y-55555131D02*
X75134952Y-55607958D01*
X75249737Y-55684655D01*
X75347345Y-55782263D01*
X75424042Y-55897048D01*
X75476869Y-56024584D01*
X75503800Y-56159976D01*
X75503800Y-56298024D01*
X75476869Y-56433416D01*
X75424042Y-56560952D01*
X75347345Y-56675737D01*
X75249737Y-56773345D01*
X75134952Y-56850042D01*
X75007416Y-56902869D01*
X74872024Y-56929800D01*
X74733976Y-56929800D01*
X74598584Y-56902869D01*
X74471048Y-56850042D01*
X74356263Y-56773345D01*
X74258655Y-56675737D01*
X74181958Y-56560952D01*
X74129131Y-56433416D01*
X74102200Y-56298024D01*
X74102200Y-56159976D01*
X74129131Y-56024584D01*
X74181958Y-55897048D01*
X74258655Y-55782263D01*
X74356263Y-55684655D01*
X74471048Y-55607958D01*
X74598584Y-55555131D01*
X74733976Y-55528200D01*
X74872024Y-55528200D01*
X75007416Y-55555131D01*
X75007416Y-55555131D01*
G37*
G36*
X92924630Y-56330850D02*
X92022930Y-56330850D01*
X92022930Y-55429150D01*
X92924630Y-55429150D01*
X92924630Y-56330850D01*
X92924630Y-56330850D01*
G37*
G36*
X98985070Y-56330850D02*
X98083370Y-56330850D01*
X98083370Y-55429150D01*
X98985070Y-55429150D01*
X98985070Y-56330850D01*
X98985070Y-56330850D01*
G37*
G36*
X83516416Y-54912131D02*
X83643952Y-54964958D01*
X83758737Y-55041655D01*
X83856345Y-55139263D01*
X83933042Y-55254048D01*
X83985869Y-55381584D01*
X84012800Y-55516976D01*
X84012800Y-55655024D01*
X83985869Y-55790416D01*
X83933042Y-55917952D01*
X83856345Y-56032737D01*
X83758737Y-56130345D01*
X83643952Y-56207042D01*
X83516416Y-56259869D01*
X83381024Y-56286800D01*
X83242976Y-56286800D01*
X83107584Y-56259869D01*
X82980048Y-56207042D01*
X82865263Y-56130345D01*
X82767655Y-56032737D01*
X82690958Y-55917952D01*
X82638131Y-55790416D01*
X82611200Y-55655024D01*
X82611200Y-55516976D01*
X82638131Y-55381584D01*
X82690958Y-55254048D01*
X82767655Y-55139263D01*
X82865263Y-55041655D01*
X82980048Y-54964958D01*
X83107584Y-54912131D01*
X83242976Y-54885200D01*
X83381024Y-54885200D01*
X83516416Y-54912131D01*
X83516416Y-54912131D01*
G37*
G36*
X96986090Y-55380850D02*
X96084390Y-55380850D01*
X96084390Y-54479150D01*
X96986090Y-54479150D01*
X96986090Y-55380850D01*
X96986090Y-55380850D01*
G37*
G36*
X94923610Y-55380850D02*
X94021910Y-55380850D01*
X94021910Y-54479150D01*
X94923610Y-54479150D01*
X94923610Y-55380850D01*
X94923610Y-55380850D01*
G37*
G36*
X75503800Y-54929800D02*
X74102200Y-54929800D01*
X74102200Y-53528200D01*
X75503800Y-53528200D01*
X75503800Y-54929800D01*
X75503800Y-54929800D01*
G37*
G36*
X70277338Y-52315738D02*
X70450373Y-52387412D01*
X70606100Y-52491465D01*
X70738535Y-52623900D01*
X70842588Y-52779627D01*
X70914262Y-52952662D01*
X70950800Y-53136354D01*
X70950800Y-53323646D01*
X70914262Y-53507338D01*
X70842588Y-53680373D01*
X70738535Y-53836100D01*
X70606100Y-53968535D01*
X70450373Y-54072588D01*
X70277338Y-54144262D01*
X70093646Y-54180800D01*
X69906354Y-54180800D01*
X69722662Y-54144262D01*
X69549627Y-54072588D01*
X69393900Y-53968535D01*
X69261465Y-53836100D01*
X69157412Y-53680373D01*
X69085738Y-53507338D01*
X69049200Y-53323646D01*
X69049200Y-53136354D01*
X69085738Y-52952662D01*
X69157412Y-52779627D01*
X69261465Y-52623900D01*
X69393900Y-52491465D01*
X69549627Y-52387412D01*
X69722662Y-52315738D01*
X69906354Y-52279200D01*
X70093646Y-52279200D01*
X70277338Y-52315738D01*
X70277338Y-52315738D01*
G37*
G36*
X84012800Y-53786800D02*
X82611200Y-53786800D01*
X82611200Y-52385200D01*
X84012800Y-52385200D01*
X84012800Y-53786800D01*
X84012800Y-53786800D01*
G37*
G36*
X93778357Y-51314071D02*
X93969500Y-51393245D01*
X94141524Y-51508188D01*
X94287812Y-51654476D01*
X94402755Y-51826500D01*
X94481929Y-52017643D01*
X94522290Y-52220554D01*
X94522290Y-52427446D01*
X94481929Y-52630357D01*
X94402755Y-52821500D01*
X94287812Y-52993524D01*
X94141524Y-53139812D01*
X93969500Y-53254755D01*
X93778357Y-53333929D01*
X93575446Y-53374290D01*
X93368554Y-53374290D01*
X93165643Y-53333929D01*
X92974500Y-53254755D01*
X92802476Y-53139812D01*
X92656188Y-52993524D01*
X92541245Y-52821500D01*
X92462071Y-52630357D01*
X92421710Y-52427446D01*
X92421710Y-52220554D01*
X92462071Y-52017643D01*
X92541245Y-51826500D01*
X92656188Y-51654476D01*
X92802476Y-51508188D01*
X92974500Y-51393245D01*
X93165643Y-51314071D01*
X93368554Y-51273710D01*
X93575446Y-51273710D01*
X93778357Y-51314071D01*
X93778357Y-51314071D01*
G37*
G36*
X101398357Y-51314071D02*
X101589500Y-51393245D01*
X101761524Y-51508188D01*
X101907812Y-51654476D01*
X102022755Y-51826500D01*
X102101929Y-52017643D01*
X102142290Y-52220554D01*
X102142290Y-52427446D01*
X102101929Y-52630357D01*
X102022755Y-52821500D01*
X101907812Y-52993524D01*
X101761524Y-53139812D01*
X101589500Y-53254755D01*
X101398357Y-53333929D01*
X101195446Y-53374290D01*
X100988554Y-53374290D01*
X100785643Y-53333929D01*
X100594500Y-53254755D01*
X100422476Y-53139812D01*
X100276188Y-52993524D01*
X100161245Y-52821500D01*
X100082071Y-52630357D01*
X100041710Y-52427446D01*
X100041710Y-52220554D01*
X100082071Y-52017643D01*
X100161245Y-51826500D01*
X100276188Y-51654476D01*
X100422476Y-51508188D01*
X100594500Y-51393245D01*
X100785643Y-51314071D01*
X100988554Y-51273710D01*
X101195446Y-51273710D01*
X101398357Y-51314071D01*
X101398357Y-51314071D01*
G37*
G36*
X88190357Y-48774071D02*
X88381500Y-48853245D01*
X88553524Y-48968188D01*
X88699812Y-49114476D01*
X88814755Y-49286500D01*
X88893929Y-49477643D01*
X88934290Y-49680554D01*
X88934290Y-49887446D01*
X88893929Y-50090357D01*
X88814755Y-50281500D01*
X88699812Y-50453524D01*
X88553524Y-50599812D01*
X88381500Y-50714755D01*
X88190357Y-50793929D01*
X87987446Y-50834290D01*
X87780554Y-50834290D01*
X87577643Y-50793929D01*
X87386500Y-50714755D01*
X87214476Y-50599812D01*
X87068188Y-50453524D01*
X86953245Y-50281500D01*
X86874071Y-50090357D01*
X86833710Y-49887446D01*
X86833710Y-49680554D01*
X86874071Y-49477643D01*
X86953245Y-49286500D01*
X87068188Y-49114476D01*
X87214476Y-48968188D01*
X87386500Y-48853245D01*
X87577643Y-48774071D01*
X87780554Y-48733710D01*
X87987446Y-48733710D01*
X88190357Y-48774071D01*
X88190357Y-48774071D01*
G37*
G36*
X82094357Y-48774071D02*
X82285500Y-48853245D01*
X82457524Y-48968188D01*
X82603812Y-49114476D01*
X82718755Y-49286500D01*
X82797929Y-49477643D01*
X82838290Y-49680554D01*
X82838290Y-49887446D01*
X82797929Y-50090357D01*
X82718755Y-50281500D01*
X82603812Y-50453524D01*
X82457524Y-50599812D01*
X82285500Y-50714755D01*
X82094357Y-50793929D01*
X81891446Y-50834290D01*
X81684554Y-50834290D01*
X81481643Y-50793929D01*
X81290500Y-50714755D01*
X81118476Y-50599812D01*
X80972188Y-50453524D01*
X80857245Y-50281500D01*
X80778071Y-50090357D01*
X80737710Y-49887446D01*
X80737710Y-49680554D01*
X80778071Y-49477643D01*
X80857245Y-49286500D01*
X80972188Y-49114476D01*
X81118476Y-48968188D01*
X81290500Y-48853245D01*
X81481643Y-48774071D01*
X81684554Y-48733710D01*
X81891446Y-48733710D01*
X82094357Y-48774071D01*
X82094357Y-48774071D01*
G37*
G36*
X85142357Y-48774071D02*
X85333500Y-48853245D01*
X85505524Y-48968188D01*
X85651812Y-49114476D01*
X85766755Y-49286500D01*
X85845929Y-49477643D01*
X85886290Y-49680554D01*
X85886290Y-49887446D01*
X85845929Y-50090357D01*
X85766755Y-50281500D01*
X85651812Y-50453524D01*
X85505524Y-50599812D01*
X85333500Y-50714755D01*
X85142357Y-50793929D01*
X84939446Y-50834290D01*
X84732554Y-50834290D01*
X84529643Y-50793929D01*
X84338500Y-50714755D01*
X84166476Y-50599812D01*
X84020188Y-50453524D01*
X83905245Y-50281500D01*
X83826071Y-50090357D01*
X83785710Y-49887446D01*
X83785710Y-49680554D01*
X83826071Y-49477643D01*
X83905245Y-49286500D01*
X84020188Y-49114476D01*
X84166476Y-48968188D01*
X84338500Y-48853245D01*
X84529643Y-48774071D01*
X84732554Y-48733710D01*
X84939446Y-48733710D01*
X85142357Y-48774071D01*
X85142357Y-48774071D01*
G37*
G36*
X77854765Y-48470918D02*
X77933129Y-48478636D01*
X78033676Y-48509137D01*
X78134223Y-48539637D01*
X78233283Y-48592586D01*
X78319550Y-48638697D01*
X78319552Y-48638698D01*
X78319551Y-48638698D01*
X78481991Y-48772009D01*
X78615302Y-48934449D01*
X78714363Y-49119777D01*
X78714363Y-49119778D01*
X78764938Y-49286500D01*
X78775364Y-49320872D01*
X78795961Y-49530000D01*
X78775364Y-49739128D01*
X78714363Y-49940223D01*
X78661414Y-50039283D01*
X78615303Y-50125550D01*
X78481991Y-50287991D01*
X78319550Y-50421303D01*
X78259274Y-50453521D01*
X78134223Y-50520363D01*
X78033676Y-50550863D01*
X77933129Y-50581364D01*
X77854765Y-50589082D01*
X77776403Y-50596800D01*
X77163597Y-50596800D01*
X77085235Y-50589082D01*
X77006871Y-50581364D01*
X76906324Y-50550863D01*
X76805777Y-50520363D01*
X76680726Y-50453521D01*
X76620450Y-50421303D01*
X76458009Y-50287991D01*
X76324697Y-50125550D01*
X76278586Y-50039283D01*
X76225637Y-49940223D01*
X76164636Y-49739128D01*
X76144039Y-49530000D01*
X76164636Y-49320872D01*
X76175063Y-49286500D01*
X76225637Y-49119778D01*
X76225637Y-49119777D01*
X76324698Y-48934449D01*
X76458009Y-48772009D01*
X76620449Y-48638698D01*
X76620448Y-48638698D01*
X76620450Y-48638697D01*
X76706717Y-48592586D01*
X76805777Y-48539637D01*
X76906324Y-48509137D01*
X77006871Y-48478636D01*
X77085235Y-48470918D01*
X77163597Y-48463200D01*
X77776403Y-48463200D01*
X77854765Y-48470918D01*
X77854765Y-48470918D01*
G37*
G36*
X91074240Y-50467260D02*
X89773760Y-50467260D01*
X89773760Y-49166780D01*
X91074240Y-49166780D01*
X91074240Y-50467260D01*
X91074240Y-50467260D01*
G37*
G36*
X91074240Y-48369220D02*
X89773760Y-48369220D01*
X89773760Y-47068740D01*
X91074240Y-47068740D01*
X91074240Y-48369220D01*
X91074240Y-48369220D01*
G37*
G36*
X77854765Y-45930918D02*
X77933129Y-45938636D01*
X78033676Y-45969137D01*
X78134223Y-45999637D01*
X78233283Y-46052586D01*
X78319550Y-46098697D01*
X78319552Y-46098698D01*
X78319551Y-46098698D01*
X78481991Y-46232009D01*
X78615302Y-46394449D01*
X78714363Y-46579777D01*
X78714363Y-46579778D01*
X78775364Y-46780871D01*
X78776245Y-46789814D01*
X78795961Y-46990000D01*
X78775364Y-47199128D01*
X78714363Y-47400223D01*
X78661414Y-47499283D01*
X78615303Y-47585550D01*
X78481991Y-47747991D01*
X78319550Y-47881303D01*
X78233283Y-47927414D01*
X78134223Y-47980363D01*
X78033676Y-48010863D01*
X77933129Y-48041364D01*
X77854765Y-48049082D01*
X77776403Y-48056800D01*
X77163597Y-48056800D01*
X77085235Y-48049082D01*
X77006871Y-48041364D01*
X76906324Y-48010863D01*
X76805777Y-47980363D01*
X76706717Y-47927414D01*
X76620450Y-47881303D01*
X76458009Y-47747991D01*
X76324697Y-47585550D01*
X76278586Y-47499283D01*
X76225637Y-47400223D01*
X76164636Y-47199128D01*
X76144039Y-46990000D01*
X76163755Y-46789814D01*
X76164636Y-46780871D01*
X76225637Y-46579778D01*
X76225637Y-46579777D01*
X76324698Y-46394449D01*
X76458009Y-46232009D01*
X76620449Y-46098698D01*
X76620448Y-46098698D01*
X76620450Y-46098697D01*
X76706717Y-46052586D01*
X76805777Y-45999637D01*
X76906324Y-45969137D01*
X77006871Y-45938636D01*
X77085235Y-45930918D01*
X77163597Y-45923200D01*
X77776403Y-45923200D01*
X77854765Y-45930918D01*
X77854765Y-45930918D01*
G37*
G36*
X101398357Y-44964071D02*
X101589500Y-45043245D01*
X101761524Y-45158188D01*
X101907812Y-45304476D01*
X102022755Y-45476500D01*
X102101929Y-45667643D01*
X102142290Y-45870554D01*
X102142290Y-46077446D01*
X102101929Y-46280357D01*
X102022755Y-46471500D01*
X101907812Y-46643524D01*
X101761524Y-46789812D01*
X101589500Y-46904755D01*
X101398357Y-46983929D01*
X101195446Y-47024290D01*
X100988554Y-47024290D01*
X100785643Y-46983929D01*
X100594500Y-46904755D01*
X100422476Y-46789812D01*
X100276188Y-46643524D01*
X100161245Y-46471500D01*
X100082071Y-46280357D01*
X100041710Y-46077446D01*
X100041710Y-45870554D01*
X100082071Y-45667643D01*
X100161245Y-45476500D01*
X100276188Y-45304476D01*
X100422476Y-45158188D01*
X100594500Y-45043245D01*
X100785643Y-44964071D01*
X100988554Y-44923710D01*
X101195446Y-44923710D01*
X101398357Y-44964071D01*
X101398357Y-44964071D01*
G37*
G36*
X93778357Y-44964071D02*
X93969500Y-45043245D01*
X94141524Y-45158188D01*
X94287812Y-45304476D01*
X94402755Y-45476500D01*
X94481929Y-45667643D01*
X94522290Y-45870554D01*
X94522290Y-46077446D01*
X94481929Y-46280357D01*
X94402755Y-46471500D01*
X94287812Y-46643524D01*
X94141524Y-46789812D01*
X93969500Y-46904755D01*
X93778357Y-46983929D01*
X93575446Y-47024290D01*
X93368554Y-47024290D01*
X93165643Y-46983929D01*
X92974500Y-46904755D01*
X92802476Y-46789812D01*
X92656188Y-46643524D01*
X92541245Y-46471500D01*
X92462071Y-46280357D01*
X92421710Y-46077446D01*
X92421710Y-45870554D01*
X92462071Y-45667643D01*
X92541245Y-45476500D01*
X92656188Y-45304476D01*
X92802476Y-45158188D01*
X92974500Y-45043245D01*
X93165643Y-44964071D01*
X93368554Y-44923710D01*
X93575446Y-44923710D01*
X93778357Y-44964071D01*
X93778357Y-44964071D01*
G37*
G36*
X77854765Y-43390918D02*
X77933129Y-43398636D01*
X78033676Y-43429137D01*
X78134223Y-43459637D01*
X78233283Y-43512586D01*
X78319550Y-43558697D01*
X78319552Y-43558698D01*
X78319551Y-43558698D01*
X78481991Y-43692009D01*
X78615302Y-43854449D01*
X78714363Y-44039777D01*
X78775364Y-44240872D01*
X78795961Y-44450000D01*
X78775364Y-44659128D01*
X78714363Y-44860223D01*
X78680428Y-44923710D01*
X78615303Y-45045550D01*
X78481991Y-45207991D01*
X78319550Y-45341303D01*
X78233283Y-45387414D01*
X78134223Y-45440363D01*
X78033675Y-45470864D01*
X77933129Y-45501364D01*
X77776403Y-45516800D01*
X77163597Y-45516800D01*
X77085235Y-45509082D01*
X77006871Y-45501364D01*
X76906325Y-45470864D01*
X76805777Y-45440363D01*
X76706717Y-45387414D01*
X76620450Y-45341303D01*
X76458009Y-45207991D01*
X76324697Y-45045550D01*
X76259572Y-44923710D01*
X76225637Y-44860223D01*
X76164636Y-44659128D01*
X76144039Y-44450000D01*
X76164636Y-44240872D01*
X76225637Y-44039777D01*
X76324698Y-43854449D01*
X76458009Y-43692009D01*
X76620449Y-43558698D01*
X76620448Y-43558698D01*
X76620450Y-43558697D01*
X76706717Y-43512586D01*
X76805777Y-43459637D01*
X76906324Y-43429137D01*
X77006871Y-43398636D01*
X77085235Y-43390918D01*
X77163597Y-43383200D01*
X77776403Y-43383200D01*
X77854765Y-43390918D01*
X77854765Y-43390918D01*
G37*
G36*
X70277338Y-42375738D02*
X70450373Y-42447412D01*
X70606100Y-42551465D01*
X70738535Y-42683900D01*
X70842588Y-42839627D01*
X70914262Y-43012662D01*
X70950800Y-43196354D01*
X70950800Y-43383646D01*
X70914262Y-43567338D01*
X70842588Y-43740373D01*
X70738535Y-43896100D01*
X70606100Y-44028535D01*
X70450373Y-44132588D01*
X70277338Y-44204262D01*
X70093646Y-44240800D01*
X69906354Y-44240800D01*
X69722662Y-44204262D01*
X69549627Y-44132588D01*
X69393900Y-44028535D01*
X69261465Y-43896100D01*
X69157412Y-43740373D01*
X69085738Y-43567338D01*
X69049200Y-43383646D01*
X69049200Y-43196354D01*
X69085738Y-43012662D01*
X69157412Y-42839627D01*
X69261465Y-42683900D01*
X69393900Y-42551465D01*
X69549627Y-42447412D01*
X69722662Y-42375738D01*
X69906354Y-42339200D01*
X70093646Y-42339200D01*
X70277338Y-42375738D01*
X70277338Y-42375738D01*
G37*
G36*
X94923610Y-44072850D02*
X94021910Y-44072850D01*
X94021910Y-43171150D01*
X94923610Y-43171150D01*
X94923610Y-44072850D01*
X94923610Y-44072850D01*
G37*
G36*
X96986090Y-44072850D02*
X96084390Y-44072850D01*
X96084390Y-43171150D01*
X96986090Y-43171150D01*
X96986090Y-44072850D01*
X96986090Y-44072850D01*
G37*
G36*
X85142357Y-41154071D02*
X85333500Y-41233245D01*
X85505524Y-41348188D01*
X85651812Y-41494476D01*
X85766755Y-41666500D01*
X85845929Y-41857643D01*
X85886290Y-42060554D01*
X85886290Y-42267446D01*
X85845929Y-42470357D01*
X85766755Y-42661500D01*
X85651812Y-42833524D01*
X85505524Y-42979812D01*
X85333500Y-43094755D01*
X85142357Y-43173929D01*
X84939446Y-43214290D01*
X84732554Y-43214290D01*
X84529643Y-43173929D01*
X84338500Y-43094755D01*
X84166476Y-42979812D01*
X84020188Y-42833524D01*
X83905245Y-42661500D01*
X83826071Y-42470357D01*
X83785710Y-42267446D01*
X83785710Y-42060554D01*
X83826071Y-41857643D01*
X83905245Y-41666500D01*
X84020188Y-41494476D01*
X84166476Y-41348188D01*
X84338500Y-41233245D01*
X84529643Y-41154071D01*
X84732554Y-41113710D01*
X84939446Y-41113710D01*
X85142357Y-41154071D01*
X85142357Y-41154071D01*
G37*
G36*
X88190357Y-41154071D02*
X88381500Y-41233245D01*
X88553524Y-41348188D01*
X88699812Y-41494476D01*
X88814755Y-41666500D01*
X88893929Y-41857643D01*
X88934290Y-42060554D01*
X88934290Y-42267446D01*
X88893929Y-42470357D01*
X88814755Y-42661500D01*
X88699812Y-42833524D01*
X88553524Y-42979812D01*
X88381500Y-43094755D01*
X88190357Y-43173929D01*
X87987446Y-43214290D01*
X87780554Y-43214290D01*
X87577643Y-43173929D01*
X87386500Y-43094755D01*
X87214476Y-42979812D01*
X87068188Y-42833524D01*
X86953245Y-42661500D01*
X86874071Y-42470357D01*
X86833710Y-42267446D01*
X86833710Y-42060554D01*
X86874071Y-41857643D01*
X86953245Y-41666500D01*
X87068188Y-41494476D01*
X87214476Y-41348188D01*
X87386500Y-41233245D01*
X87577643Y-41154071D01*
X87780554Y-41113710D01*
X87987446Y-41113710D01*
X88190357Y-41154071D01*
X88190357Y-41154071D01*
G37*
G36*
X82094357Y-41154071D02*
X82285500Y-41233245D01*
X82457524Y-41348188D01*
X82603812Y-41494476D01*
X82718755Y-41666500D01*
X82797929Y-41857643D01*
X82838290Y-42060554D01*
X82838290Y-42267446D01*
X82797929Y-42470357D01*
X82718755Y-42661500D01*
X82603812Y-42833524D01*
X82457524Y-42979812D01*
X82285500Y-43094755D01*
X82094357Y-43173929D01*
X81891446Y-43214290D01*
X81684554Y-43214290D01*
X81481643Y-43173929D01*
X81290500Y-43094755D01*
X81118476Y-42979812D01*
X80972188Y-42833524D01*
X80857245Y-42661500D01*
X80778071Y-42470357D01*
X80737710Y-42267446D01*
X80737710Y-42060554D01*
X80778071Y-41857643D01*
X80857245Y-41666500D01*
X80972188Y-41494476D01*
X81118476Y-41348188D01*
X81290500Y-41233245D01*
X81481643Y-41154071D01*
X81684554Y-41113710D01*
X81891446Y-41113710D01*
X82094357Y-41154071D01*
X82094357Y-41154071D01*
G37*
G36*
X92924630Y-43122850D02*
X92022930Y-43122850D01*
X92022930Y-42221150D01*
X92924630Y-42221150D01*
X92924630Y-43122850D01*
X92924630Y-43122850D01*
G37*
G36*
X98985070Y-43122850D02*
X98083370Y-43122850D01*
X98083370Y-42221150D01*
X98985070Y-42221150D01*
X98985070Y-43122850D01*
X98985070Y-43122850D01*
G37*
G36*
X94923610Y-42172850D02*
X94021910Y-42172850D01*
X94021910Y-41271150D01*
X94923610Y-41271150D01*
X94923610Y-42172850D01*
X94923610Y-42172850D01*
G37*
G36*
X96986090Y-42172850D02*
X96084390Y-42172850D01*
X96084390Y-41271150D01*
X96986090Y-41271150D01*
X96986090Y-42172850D01*
X96986090Y-42172850D01*
G37*
G36*
X75007416Y-39045131D02*
X75134952Y-39097958D01*
X75249737Y-39174655D01*
X75347345Y-39272263D01*
X75424042Y-39387048D01*
X75476869Y-39514584D01*
X75503800Y-39649976D01*
X75503800Y-39788024D01*
X75476869Y-39923416D01*
X75424042Y-40050952D01*
X75347345Y-40165737D01*
X75249737Y-40263345D01*
X75134952Y-40340042D01*
X75007416Y-40392869D01*
X74872024Y-40419800D01*
X74733976Y-40419800D01*
X74598584Y-40392869D01*
X74471048Y-40340042D01*
X74356263Y-40263345D01*
X74258655Y-40165737D01*
X74181958Y-40050952D01*
X74129131Y-39923416D01*
X74102200Y-39788024D01*
X74102200Y-39649976D01*
X74129131Y-39514584D01*
X74181958Y-39387048D01*
X74258655Y-39272263D01*
X74356263Y-39174655D01*
X74471048Y-39097958D01*
X74598584Y-39045131D01*
X74733976Y-39018200D01*
X74872024Y-39018200D01*
X75007416Y-39045131D01*
X75007416Y-39045131D01*
G37*
G36*
X101398357Y-38106071D02*
X101589500Y-38185245D01*
X101761524Y-38300188D01*
X101907812Y-38446476D01*
X102022755Y-38618500D01*
X102101929Y-38809643D01*
X102142290Y-39012554D01*
X102142290Y-39219446D01*
X102101929Y-39422357D01*
X102022755Y-39613500D01*
X101907812Y-39785524D01*
X101761524Y-39931812D01*
X101589500Y-40046755D01*
X101398357Y-40125929D01*
X101195446Y-40166290D01*
X100988554Y-40166290D01*
X100785643Y-40125929D01*
X100594500Y-40046755D01*
X100422476Y-39931812D01*
X100276188Y-39785524D01*
X100161245Y-39613500D01*
X100082071Y-39422357D01*
X100041710Y-39219446D01*
X100041710Y-39012554D01*
X100082071Y-38809643D01*
X100161245Y-38618500D01*
X100276188Y-38446476D01*
X100422476Y-38300188D01*
X100594500Y-38185245D01*
X100785643Y-38106071D01*
X100988554Y-38065710D01*
X101195446Y-38065710D01*
X101398357Y-38106071D01*
X101398357Y-38106071D01*
G37*
G36*
X93778357Y-38106071D02*
X93969500Y-38185245D01*
X94141524Y-38300188D01*
X94287812Y-38446476D01*
X94402755Y-38618500D01*
X94481929Y-38809643D01*
X94522290Y-39012554D01*
X94522290Y-39219446D01*
X94481929Y-39422357D01*
X94402755Y-39613500D01*
X94287812Y-39785524D01*
X94141524Y-39931812D01*
X93969500Y-40046755D01*
X93778357Y-40125929D01*
X93575446Y-40166290D01*
X93368554Y-40166290D01*
X93165643Y-40125929D01*
X92974500Y-40046755D01*
X92802476Y-39931812D01*
X92656188Y-39785524D01*
X92541245Y-39613500D01*
X92462071Y-39422357D01*
X92421710Y-39219446D01*
X92421710Y-39012554D01*
X92462071Y-38809643D01*
X92541245Y-38618500D01*
X92656188Y-38446476D01*
X92802476Y-38300188D01*
X92974500Y-38185245D01*
X93165643Y-38106071D01*
X93368554Y-38065710D01*
X93575446Y-38065710D01*
X93778357Y-38106071D01*
X93778357Y-38106071D01*
G37*
G36*
X83516416Y-38148131D02*
X83643952Y-38200958D01*
X83758737Y-38277655D01*
X83856345Y-38375263D01*
X83933042Y-38490048D01*
X83985869Y-38617584D01*
X84012800Y-38752976D01*
X84012800Y-38891024D01*
X83985869Y-39026416D01*
X83933042Y-39153952D01*
X83856345Y-39268737D01*
X83758737Y-39366345D01*
X83643952Y-39443042D01*
X83516416Y-39495869D01*
X83381024Y-39522800D01*
X83242976Y-39522800D01*
X83107584Y-39495869D01*
X82980048Y-39443042D01*
X82865263Y-39366345D01*
X82767655Y-39268737D01*
X82690958Y-39153952D01*
X82638131Y-39026416D01*
X82611200Y-38891024D01*
X82611200Y-38752976D01*
X82638131Y-38617584D01*
X82690958Y-38490048D01*
X82767655Y-38375263D01*
X82865263Y-38277655D01*
X82980048Y-38200958D01*
X83107584Y-38148131D01*
X83242976Y-38121200D01*
X83381024Y-38121200D01*
X83516416Y-38148131D01*
X83516416Y-38148131D01*
G37*
G36*
X70277338Y-37075738D02*
X70450373Y-37147412D01*
X70606100Y-37251465D01*
X70738535Y-37383900D01*
X70842588Y-37539627D01*
X70914262Y-37712662D01*
X70950800Y-37896354D01*
X70950800Y-38083646D01*
X70914262Y-38267338D01*
X70842588Y-38440373D01*
X70738535Y-38596100D01*
X70606100Y-38728535D01*
X70450373Y-38832588D01*
X70277338Y-38904262D01*
X70093646Y-38940800D01*
X69906354Y-38940800D01*
X69722662Y-38904262D01*
X69549627Y-38832588D01*
X69393900Y-38728535D01*
X69261465Y-38596100D01*
X69157412Y-38440373D01*
X69085738Y-38267338D01*
X69049200Y-38083646D01*
X69049200Y-37896354D01*
X69085738Y-37712662D01*
X69157412Y-37539627D01*
X69261465Y-37383900D01*
X69393900Y-37251465D01*
X69549627Y-37147412D01*
X69722662Y-37075738D01*
X69906354Y-37039200D01*
X70093646Y-37039200D01*
X70277338Y-37075738D01*
X70277338Y-37075738D01*
G37*
G36*
X75503800Y-38419800D02*
X74102200Y-38419800D01*
X74102200Y-37018200D01*
X75503800Y-37018200D01*
X75503800Y-38419800D01*
X75503800Y-38419800D01*
G37*
G36*
X84012800Y-37022800D02*
X82611200Y-37022800D01*
X82611200Y-35621200D01*
X84012800Y-35621200D01*
X84012800Y-37022800D01*
X84012800Y-37022800D01*
G37*
G36*
X96191251Y-35166830D02*
X96191254Y-35166831D01*
X96363619Y-35219117D01*
X96363621Y-35219118D01*
X96522473Y-35304027D01*
X96661707Y-35418293D01*
X96775973Y-35557527D01*
X96860882Y-35716379D01*
X96913170Y-35888749D01*
X96930824Y-36068000D01*
X96913170Y-36247251D01*
X96860882Y-36419621D01*
X96775973Y-36578473D01*
X96661707Y-36717707D01*
X96522473Y-36831973D01*
X96522471Y-36831974D01*
X96363619Y-36916883D01*
X96223339Y-36959436D01*
X96191251Y-36969170D01*
X96056921Y-36982400D01*
X95967079Y-36982400D01*
X95832749Y-36969170D01*
X95800661Y-36959436D01*
X95660381Y-36916883D01*
X95501529Y-36831974D01*
X95501527Y-36831973D01*
X95362293Y-36717707D01*
X95248027Y-36578473D01*
X95163118Y-36419621D01*
X95110830Y-36247251D01*
X95093176Y-36068000D01*
X95110830Y-35888749D01*
X95163118Y-35716379D01*
X95248027Y-35557527D01*
X95362293Y-35418293D01*
X95501527Y-35304027D01*
X95660379Y-35219118D01*
X95660381Y-35219117D01*
X95832746Y-35166831D01*
X95832749Y-35166830D01*
X95967079Y-35153600D01*
X96056921Y-35153600D01*
X96191251Y-35166830D01*
X96191251Y-35166830D01*
G37*
G36*
X98731251Y-35166830D02*
X98731254Y-35166831D01*
X98903619Y-35219117D01*
X98903621Y-35219118D01*
X99062473Y-35304027D01*
X99201707Y-35418293D01*
X99315973Y-35557527D01*
X99400882Y-35716379D01*
X99453170Y-35888749D01*
X99470824Y-36068000D01*
X99453170Y-36247251D01*
X99400882Y-36419621D01*
X99315973Y-36578473D01*
X99201707Y-36717707D01*
X99062473Y-36831973D01*
X99062471Y-36831974D01*
X98903619Y-36916883D01*
X98763339Y-36959436D01*
X98731251Y-36969170D01*
X98596921Y-36982400D01*
X98507079Y-36982400D01*
X98372749Y-36969170D01*
X98340661Y-36959436D01*
X98200381Y-36916883D01*
X98041529Y-36831974D01*
X98041527Y-36831973D01*
X97902293Y-36717707D01*
X97788027Y-36578473D01*
X97703118Y-36419621D01*
X97650830Y-36247251D01*
X97633176Y-36068000D01*
X97650830Y-35888749D01*
X97703118Y-35716379D01*
X97788027Y-35557527D01*
X97902293Y-35418293D01*
X98041527Y-35304027D01*
X98200379Y-35219118D01*
X98200381Y-35219117D01*
X98372746Y-35166831D01*
X98372749Y-35166830D01*
X98507079Y-35153600D01*
X98596921Y-35153600D01*
X98731251Y-35166830D01*
X98731251Y-35166830D01*
G37*
G36*
X102250240Y-35227260D02*
X100949760Y-35227260D01*
X100949760Y-33926780D01*
X102250240Y-33926780D01*
X102250240Y-35227260D01*
X102250240Y-35227260D01*
G37*
G36*
X70021200Y-34689800D02*
X65919600Y-34689800D01*
X65919600Y-30588200D01*
X70021200Y-30588200D01*
X70021200Y-34689800D01*
X70021200Y-34689800D01*
G37*
G36*
X96191251Y-32626830D02*
X96191254Y-32626831D01*
X96363619Y-32679117D01*
X96363621Y-32679118D01*
X96522473Y-32764027D01*
X96661707Y-32878293D01*
X96775973Y-33017527D01*
X96775974Y-33017529D01*
X96860883Y-33176381D01*
X96876884Y-33229129D01*
X96913170Y-33348749D01*
X96930824Y-33528000D01*
X96913170Y-33707251D01*
X96913169Y-33707254D01*
X96880023Y-33816524D01*
X96860882Y-33879621D01*
X96775973Y-34038473D01*
X96661707Y-34177707D01*
X96522473Y-34291973D01*
X96522471Y-34291974D01*
X96363619Y-34376883D01*
X96223339Y-34419436D01*
X96191251Y-34429170D01*
X96056921Y-34442400D01*
X95967079Y-34442400D01*
X95832749Y-34429170D01*
X95800661Y-34419436D01*
X95660381Y-34376883D01*
X95501529Y-34291974D01*
X95501527Y-34291973D01*
X95362293Y-34177707D01*
X95248027Y-34038473D01*
X95163118Y-33879621D01*
X95143978Y-33816524D01*
X95110831Y-33707254D01*
X95110830Y-33707251D01*
X95093176Y-33528000D01*
X95110830Y-33348749D01*
X95147116Y-33229129D01*
X95163117Y-33176381D01*
X95248026Y-33017529D01*
X95248027Y-33017527D01*
X95362293Y-32878293D01*
X95501527Y-32764027D01*
X95660379Y-32679118D01*
X95660381Y-32679117D01*
X95832746Y-32626831D01*
X95832749Y-32626830D01*
X95967079Y-32613600D01*
X96056921Y-32613600D01*
X96191251Y-32626830D01*
X96191251Y-32626830D01*
G37*
G36*
X98731251Y-32626830D02*
X98731254Y-32626831D01*
X98903619Y-32679117D01*
X98903621Y-32679118D01*
X99062473Y-32764027D01*
X99201707Y-32878293D01*
X99315973Y-33017527D01*
X99315974Y-33017529D01*
X99400883Y-33176381D01*
X99416884Y-33229129D01*
X99453170Y-33348749D01*
X99470824Y-33528000D01*
X99453170Y-33707251D01*
X99453169Y-33707254D01*
X99420023Y-33816524D01*
X99400882Y-33879621D01*
X99315973Y-34038473D01*
X99201707Y-34177707D01*
X99062473Y-34291973D01*
X99062471Y-34291974D01*
X98903619Y-34376883D01*
X98763339Y-34419436D01*
X98731251Y-34429170D01*
X98596921Y-34442400D01*
X98507079Y-34442400D01*
X98372749Y-34429170D01*
X98340661Y-34419436D01*
X98200381Y-34376883D01*
X98041529Y-34291974D01*
X98041527Y-34291973D01*
X97902293Y-34177707D01*
X97788027Y-34038473D01*
X97703118Y-33879621D01*
X97683978Y-33816524D01*
X97650831Y-33707254D01*
X97650830Y-33707251D01*
X97633176Y-33528000D01*
X97650830Y-33348749D01*
X97687116Y-33229129D01*
X97703117Y-33176381D01*
X97788026Y-33017529D01*
X97788027Y-33017527D01*
X97902293Y-32878293D01*
X98041527Y-32764027D01*
X98200379Y-32679118D01*
X98200381Y-32679117D01*
X98372746Y-32626831D01*
X98372749Y-32626830D01*
X98507079Y-32613600D01*
X98596921Y-32613600D01*
X98731251Y-32626830D01*
X98731251Y-32626830D01*
G37*
G36*
X91074240Y-34211260D02*
X89773760Y-34211260D01*
X89773760Y-32910780D01*
X91074240Y-32910780D01*
X91074240Y-34211260D01*
X91074240Y-34211260D01*
G37*
G36*
X88190357Y-32137071D02*
X88381500Y-32216245D01*
X88553524Y-32331188D01*
X88699812Y-32477476D01*
X88814755Y-32649500D01*
X88893929Y-32840643D01*
X88934290Y-33043554D01*
X88934290Y-33250446D01*
X88893929Y-33453357D01*
X88814755Y-33644500D01*
X88699812Y-33816524D01*
X88553524Y-33962812D01*
X88381500Y-34077755D01*
X88190357Y-34156929D01*
X87987446Y-34197290D01*
X87780554Y-34197290D01*
X87577643Y-34156929D01*
X87386500Y-34077755D01*
X87214476Y-33962812D01*
X87068188Y-33816524D01*
X86953245Y-33644500D01*
X86874071Y-33453357D01*
X86833710Y-33250446D01*
X86833710Y-33043554D01*
X86874071Y-32840643D01*
X86953245Y-32649500D01*
X87068188Y-32477476D01*
X87214476Y-32331188D01*
X87386500Y-32216245D01*
X87577643Y-32137071D01*
X87780554Y-32096710D01*
X87987446Y-32096710D01*
X88190357Y-32137071D01*
X88190357Y-32137071D01*
G37*
G36*
X85142357Y-32137071D02*
X85333500Y-32216245D01*
X85505524Y-32331188D01*
X85651812Y-32477476D01*
X85766755Y-32649500D01*
X85845929Y-32840643D01*
X85886290Y-33043554D01*
X85886290Y-33250446D01*
X85845929Y-33453357D01*
X85766755Y-33644500D01*
X85651812Y-33816524D01*
X85505524Y-33962812D01*
X85333500Y-34077755D01*
X85142357Y-34156929D01*
X84939446Y-34197290D01*
X84732554Y-34197290D01*
X84529643Y-34156929D01*
X84338500Y-34077755D01*
X84166476Y-33962812D01*
X84020188Y-33816524D01*
X83905245Y-33644500D01*
X83826071Y-33453357D01*
X83785710Y-33250446D01*
X83785710Y-33043554D01*
X83826071Y-32840643D01*
X83905245Y-32649500D01*
X84020188Y-32477476D01*
X84166476Y-32331188D01*
X84338500Y-32216245D01*
X84529643Y-32137071D01*
X84732554Y-32096710D01*
X84939446Y-32096710D01*
X85142357Y-32137071D01*
X85142357Y-32137071D01*
G37*
G36*
X82094357Y-32137071D02*
X82285500Y-32216245D01*
X82457524Y-32331188D01*
X82603812Y-32477476D01*
X82718755Y-32649500D01*
X82797929Y-32840643D01*
X82838290Y-33043554D01*
X82838290Y-33250446D01*
X82797929Y-33453357D01*
X82718755Y-33644500D01*
X82603812Y-33816524D01*
X82457524Y-33962812D01*
X82285500Y-34077755D01*
X82094357Y-34156929D01*
X81891446Y-34197290D01*
X81684554Y-34197290D01*
X81481643Y-34156929D01*
X81290500Y-34077755D01*
X81118476Y-33962812D01*
X80972188Y-33816524D01*
X80857245Y-33644500D01*
X80778071Y-33453357D01*
X80737710Y-33250446D01*
X80737710Y-33043554D01*
X80778071Y-32840643D01*
X80857245Y-32649500D01*
X80972188Y-32477476D01*
X81118476Y-32331188D01*
X81290500Y-32216245D01*
X81481643Y-32137071D01*
X81684554Y-32096710D01*
X81891446Y-32096710D01*
X82094357Y-32137071D01*
X82094357Y-32137071D01*
G37*
G36*
X77933129Y-31968636D02*
X78033675Y-31999136D01*
X78134223Y-32029637D01*
X78233283Y-32082586D01*
X78319550Y-32128697D01*
X78481991Y-32262009D01*
X78615303Y-32424450D01*
X78661414Y-32510717D01*
X78714363Y-32609777D01*
X78719536Y-32626830D01*
X78775364Y-32810871D01*
X78795961Y-33020000D01*
X78775364Y-33229129D01*
X78744864Y-33329675D01*
X78714363Y-33430223D01*
X78701997Y-33453357D01*
X78615303Y-33615550D01*
X78481991Y-33777991D01*
X78319550Y-33911303D01*
X78233283Y-33957414D01*
X78134223Y-34010363D01*
X78041563Y-34038471D01*
X77933129Y-34071364D01*
X77868239Y-34077755D01*
X77776403Y-34086800D01*
X77163597Y-34086800D01*
X77071761Y-34077755D01*
X77006871Y-34071364D01*
X76898437Y-34038471D01*
X76805777Y-34010363D01*
X76706717Y-33957414D01*
X76620450Y-33911303D01*
X76458009Y-33777991D01*
X76324697Y-33615550D01*
X76238003Y-33453357D01*
X76225637Y-33430223D01*
X76195136Y-33329675D01*
X76164636Y-33229129D01*
X76144039Y-33020000D01*
X76164636Y-32810871D01*
X76220464Y-32626830D01*
X76225637Y-32609777D01*
X76278586Y-32510717D01*
X76324697Y-32424450D01*
X76458009Y-32262009D01*
X76620450Y-32128697D01*
X76706717Y-32082586D01*
X76805777Y-32029637D01*
X76906325Y-31999136D01*
X77006871Y-31968636D01*
X77163597Y-31953200D01*
X77776403Y-31953200D01*
X77933129Y-31968636D01*
X77933129Y-31968636D01*
G37*
G36*
X102250240Y-33129220D02*
X100949760Y-33129220D01*
X100949760Y-31828740D01*
X102250240Y-31828740D01*
X102250240Y-33129220D01*
X102250240Y-33129220D01*
G37*
G36*
X91074240Y-32113220D02*
X89773760Y-32113220D01*
X89773760Y-30812740D01*
X91074240Y-30812740D01*
X91074240Y-32113220D01*
X91074240Y-32113220D01*
G37*
G36*
X96926400Y-31902400D02*
X95097600Y-31902400D01*
X95097600Y-30073600D01*
X96926400Y-30073600D01*
X96926400Y-31902400D01*
X96926400Y-31902400D01*
G37*
G36*
X98731251Y-30086830D02*
X98731254Y-30086831D01*
X98903619Y-30139117D01*
X98903621Y-30139118D01*
X99062473Y-30224027D01*
X99201707Y-30338293D01*
X99315973Y-30477527D01*
X99400882Y-30636379D01*
X99400883Y-30636381D01*
X99416884Y-30689129D01*
X99453170Y-30808749D01*
X99470824Y-30988000D01*
X99453170Y-31167251D01*
X99400882Y-31339621D01*
X99315973Y-31498473D01*
X99201707Y-31637707D01*
X99062473Y-31751973D01*
X99062471Y-31751974D01*
X98903619Y-31836883D01*
X98763339Y-31879436D01*
X98731251Y-31889170D01*
X98596921Y-31902400D01*
X98507079Y-31902400D01*
X98372749Y-31889170D01*
X98340661Y-31879436D01*
X98200381Y-31836883D01*
X98041529Y-31751974D01*
X98041527Y-31751973D01*
X97902293Y-31637707D01*
X97788027Y-31498473D01*
X97703118Y-31339621D01*
X97650830Y-31167251D01*
X97633176Y-30988000D01*
X97650830Y-30808749D01*
X97687116Y-30689129D01*
X97703117Y-30636381D01*
X97703118Y-30636379D01*
X97788027Y-30477527D01*
X97902293Y-30338293D01*
X98041527Y-30224027D01*
X98200379Y-30139118D01*
X98200381Y-30139117D01*
X98372746Y-30086831D01*
X98372749Y-30086830D01*
X98507079Y-30073600D01*
X98596921Y-30073600D01*
X98731251Y-30086830D01*
X98731251Y-30086830D01*
G37*
G36*
X77933129Y-29428636D02*
X78033675Y-29459136D01*
X78134223Y-29489637D01*
X78233283Y-29542586D01*
X78319550Y-29588697D01*
X78319552Y-29588698D01*
X78319551Y-29588698D01*
X78481991Y-29722009D01*
X78615302Y-29884449D01*
X78714363Y-30069777D01*
X78775364Y-30270872D01*
X78795961Y-30480000D01*
X78775364Y-30689128D01*
X78714363Y-30890223D01*
X78662100Y-30988000D01*
X78615303Y-31075550D01*
X78481991Y-31237991D01*
X78319550Y-31371303D01*
X78233283Y-31417414D01*
X78134223Y-31470363D01*
X78041563Y-31498471D01*
X77933129Y-31531364D01*
X77854765Y-31539082D01*
X77776403Y-31546800D01*
X77163597Y-31546800D01*
X77085235Y-31539082D01*
X77006871Y-31531364D01*
X76898437Y-31498471D01*
X76805777Y-31470363D01*
X76706717Y-31417414D01*
X76620450Y-31371303D01*
X76458009Y-31237991D01*
X76324697Y-31075550D01*
X76277900Y-30988000D01*
X76225637Y-30890223D01*
X76164636Y-30689128D01*
X76144039Y-30480000D01*
X76164636Y-30270872D01*
X76225637Y-30069777D01*
X76324698Y-29884449D01*
X76458009Y-29722009D01*
X76620449Y-29588698D01*
X76620448Y-29588698D01*
X76620450Y-29588697D01*
X76706717Y-29542586D01*
X76805777Y-29489637D01*
X76906325Y-29459136D01*
X77006871Y-29428636D01*
X77163597Y-29413200D01*
X77776403Y-29413200D01*
X77933129Y-29428636D01*
X77933129Y-29428636D01*
G37*
G36*
X67021460Y-29990800D02*
X62919860Y-29990800D01*
X62919860Y-25889200D01*
X67021460Y-25889200D01*
X67021460Y-29990800D01*
X67021460Y-29990800D01*
G37*
G36*
X73020940Y-29990800D02*
X68919340Y-29990800D01*
X68919340Y-25889200D01*
X73020940Y-25889200D01*
X73020940Y-29990800D01*
X73020940Y-29990800D01*
G37*
G36*
X77933129Y-26888636D02*
X78033676Y-26919137D01*
X78134223Y-26949637D01*
X78233283Y-27002586D01*
X78319550Y-27048697D01*
X78319552Y-27048698D01*
X78319551Y-27048698D01*
X78481991Y-27182009D01*
X78615302Y-27344449D01*
X78714363Y-27529777D01*
X78775364Y-27730872D01*
X78795961Y-27940000D01*
X78775364Y-28149128D01*
X78714363Y-28350223D01*
X78661414Y-28449283D01*
X78615303Y-28535550D01*
X78481991Y-28697991D01*
X78319550Y-28831303D01*
X78233283Y-28877414D01*
X78134223Y-28930363D01*
X78033676Y-28960863D01*
X77933129Y-28991364D01*
X77854765Y-28999082D01*
X77776403Y-29006800D01*
X77163597Y-29006800D01*
X77085235Y-28999082D01*
X77006871Y-28991364D01*
X76906324Y-28960863D01*
X76805777Y-28930363D01*
X76706717Y-28877414D01*
X76620450Y-28831303D01*
X76458009Y-28697991D01*
X76324697Y-28535550D01*
X76278586Y-28449283D01*
X76225637Y-28350223D01*
X76164636Y-28149128D01*
X76144039Y-27940000D01*
X76164636Y-27730872D01*
X76225637Y-27529777D01*
X76324698Y-27344449D01*
X76458009Y-27182009D01*
X76620449Y-27048698D01*
X76620448Y-27048698D01*
X76620450Y-27048697D01*
X76706717Y-27002586D01*
X76805777Y-26949637D01*
X76906325Y-26919136D01*
X77006871Y-26888636D01*
X77163597Y-26873200D01*
X77776403Y-26873200D01*
X77933129Y-26888636D01*
X77933129Y-26888636D01*
G37*
G36*
X103682800Y-29006800D02*
X101549200Y-29006800D01*
X101549200Y-26873200D01*
X103682800Y-26873200D01*
X103682800Y-29006800D01*
X103682800Y-29006800D01*
G37*
G36*
X82094357Y-24517071D02*
X82285500Y-24596245D01*
X82457524Y-24711188D01*
X82603812Y-24857476D01*
X82718755Y-25029500D01*
X82797929Y-25220643D01*
X82838290Y-25423554D01*
X82838290Y-25630446D01*
X82797929Y-25833357D01*
X82718755Y-26024500D01*
X82603812Y-26196524D01*
X82457524Y-26342812D01*
X82285500Y-26457755D01*
X82094357Y-26536929D01*
X81891446Y-26577290D01*
X81684554Y-26577290D01*
X81481643Y-26536929D01*
X81290500Y-26457755D01*
X81118476Y-26342812D01*
X80972188Y-26196524D01*
X80857245Y-26024500D01*
X80778071Y-25833357D01*
X80737710Y-25630446D01*
X80737710Y-25423554D01*
X80778071Y-25220643D01*
X80857245Y-25029500D01*
X80972188Y-24857476D01*
X81118476Y-24711188D01*
X81290500Y-24596245D01*
X81481643Y-24517071D01*
X81684554Y-24476710D01*
X81891446Y-24476710D01*
X82094357Y-24517071D01*
X82094357Y-24517071D01*
G37*
G36*
X85142357Y-24517071D02*
X85333500Y-24596245D01*
X85505524Y-24711188D01*
X85651812Y-24857476D01*
X85766755Y-25029500D01*
X85845929Y-25220643D01*
X85886290Y-25423554D01*
X85886290Y-25630446D01*
X85845929Y-25833357D01*
X85766755Y-26024500D01*
X85651812Y-26196524D01*
X85505524Y-26342812D01*
X85333500Y-26457755D01*
X85142357Y-26536929D01*
X84939446Y-26577290D01*
X84732554Y-26577290D01*
X84529643Y-26536929D01*
X84338500Y-26457755D01*
X84166476Y-26342812D01*
X84020188Y-26196524D01*
X83905245Y-26024500D01*
X83826071Y-25833357D01*
X83785710Y-25630446D01*
X83785710Y-25423554D01*
X83826071Y-25220643D01*
X83905245Y-25029500D01*
X84020188Y-24857476D01*
X84166476Y-24711188D01*
X84338500Y-24596245D01*
X84529643Y-24517071D01*
X84732554Y-24476710D01*
X84939446Y-24476710D01*
X85142357Y-24517071D01*
X85142357Y-24517071D01*
G37*
G36*
X88190357Y-24517071D02*
X88381500Y-24596245D01*
X88553524Y-24711188D01*
X88699812Y-24857476D01*
X88814755Y-25029500D01*
X88893929Y-25220643D01*
X88934290Y-25423554D01*
X88934290Y-25630446D01*
X88893929Y-25833357D01*
X88814755Y-26024500D01*
X88699812Y-26196524D01*
X88553524Y-26342812D01*
X88381500Y-26457755D01*
X88190357Y-26536929D01*
X87987446Y-26577290D01*
X87780554Y-26577290D01*
X87577643Y-26536929D01*
X87386500Y-26457755D01*
X87214476Y-26342812D01*
X87068188Y-26196524D01*
X86953245Y-26024500D01*
X86874071Y-25833357D01*
X86833710Y-25630446D01*
X86833710Y-25423554D01*
X86874071Y-25220643D01*
X86953245Y-25029500D01*
X87068188Y-24857476D01*
X87214476Y-24711188D01*
X87386500Y-24596245D01*
X87577643Y-24517071D01*
X87780554Y-24476710D01*
X87987446Y-24476710D01*
X88190357Y-24517071D01*
X88190357Y-24517071D01*
G37*
G36*
X102746765Y-24340918D02*
X102825129Y-24348636D01*
X102925675Y-24379136D01*
X103026223Y-24409637D01*
X103125283Y-24462586D01*
X103211550Y-24508697D01*
X103373991Y-24642009D01*
X103507303Y-24804450D01*
X103553414Y-24890717D01*
X103606363Y-24989777D01*
X103606363Y-24989778D01*
X103667364Y-25190871D01*
X103687961Y-25400000D01*
X103667364Y-25609129D01*
X103636864Y-25709675D01*
X103606363Y-25810223D01*
X103593997Y-25833357D01*
X103507303Y-25995550D01*
X103373991Y-26157991D01*
X103211550Y-26291303D01*
X103125283Y-26337414D01*
X103026223Y-26390363D01*
X102925676Y-26420863D01*
X102825129Y-26451364D01*
X102760239Y-26457755D01*
X102668403Y-26466800D01*
X102563597Y-26466800D01*
X102471761Y-26457755D01*
X102406871Y-26451364D01*
X102306324Y-26420863D01*
X102205777Y-26390363D01*
X102106717Y-26337414D01*
X102020450Y-26291303D01*
X101858009Y-26157991D01*
X101724697Y-25995550D01*
X101638003Y-25833357D01*
X101625637Y-25810223D01*
X101595136Y-25709675D01*
X101564636Y-25609129D01*
X101544039Y-25400000D01*
X101564636Y-25190871D01*
X101625637Y-24989778D01*
X101625637Y-24989777D01*
X101678586Y-24890717D01*
X101724697Y-24804450D01*
X101858009Y-24642009D01*
X102020450Y-24508697D01*
X102106717Y-24462586D01*
X102205777Y-24409637D01*
X102306324Y-24379137D01*
X102406871Y-24348636D01*
X102563597Y-24333200D01*
X102668403Y-24333200D01*
X102746765Y-24340918D01*
X102746765Y-24340918D01*
G37*
M02*
