G04 #@! TF.FileFunction,Legend,Bot*
%FSLAX46Y46*%
G04 Gerber Fmt 4.6, Leading zero omitted, Abs format (unit mm)*
G04 Created by KiCad (PCBNEW 4.0.2-stable) date 2016-05-18 09:51:30*
%MOMM*%
G01*
G04 APERTURE LIST*
%ADD10C,0.100000*%
%ADD11C,0.300000*%
G04 APERTURE END LIST*
D10*
D11*
X59144857Y-38221144D02*
X59216286Y-38435430D01*
X59287714Y-38506858D01*
X59430571Y-38578287D01*
X59644857Y-38578287D01*
X59787714Y-38506858D01*
X59859143Y-38435430D01*
X59930571Y-38292572D01*
X59930571Y-37721144D01*
X58430571Y-37721144D01*
X58430571Y-38221144D01*
X58502000Y-38364001D01*
X58573429Y-38435430D01*
X58716286Y-38506858D01*
X58859143Y-38506858D01*
X59002000Y-38435430D01*
X59073429Y-38364001D01*
X59144857Y-38221144D01*
X59144857Y-37721144D01*
X59930571Y-39221144D02*
X58930571Y-39221144D01*
X59216286Y-39221144D02*
X59073429Y-39292572D01*
X59002000Y-39364001D01*
X58930571Y-39506858D01*
X58930571Y-39649715D01*
X59859143Y-40721143D02*
X59930571Y-40578286D01*
X59930571Y-40292572D01*
X59859143Y-40149715D01*
X59716286Y-40078286D01*
X59144857Y-40078286D01*
X59002000Y-40149715D01*
X58930571Y-40292572D01*
X58930571Y-40578286D01*
X59002000Y-40721143D01*
X59144857Y-40792572D01*
X59287714Y-40792572D01*
X59430571Y-40078286D01*
X59930571Y-42078286D02*
X59144857Y-42078286D01*
X59002000Y-42006857D01*
X58930571Y-41864000D01*
X58930571Y-41578286D01*
X59002000Y-41435429D01*
X59859143Y-42078286D02*
X59930571Y-41935429D01*
X59930571Y-41578286D01*
X59859143Y-41435429D01*
X59716286Y-41364000D01*
X59573429Y-41364000D01*
X59430571Y-41435429D01*
X59359143Y-41578286D01*
X59359143Y-41935429D01*
X59287714Y-42078286D01*
X59930571Y-43435429D02*
X58430571Y-43435429D01*
X59859143Y-43435429D02*
X59930571Y-43292572D01*
X59930571Y-43006858D01*
X59859143Y-42864000D01*
X59787714Y-42792572D01*
X59644857Y-42721143D01*
X59216286Y-42721143D01*
X59073429Y-42792572D01*
X59002000Y-42864000D01*
X58930571Y-43006858D01*
X58930571Y-43292572D01*
X59002000Y-43435429D01*
X59930571Y-44149715D02*
X58430571Y-44149715D01*
X59002000Y-44149715D02*
X58930571Y-44292572D01*
X58930571Y-44578286D01*
X59002000Y-44721143D01*
X59073429Y-44792572D01*
X59216286Y-44864001D01*
X59644857Y-44864001D01*
X59787714Y-44792572D01*
X59859143Y-44721143D01*
X59930571Y-44578286D01*
X59930571Y-44292572D01*
X59859143Y-44149715D01*
X59930571Y-45721144D02*
X59859143Y-45578286D01*
X59787714Y-45506858D01*
X59644857Y-45435429D01*
X59216286Y-45435429D01*
X59073429Y-45506858D01*
X59002000Y-45578286D01*
X58930571Y-45721144D01*
X58930571Y-45935429D01*
X59002000Y-46078286D01*
X59073429Y-46149715D01*
X59216286Y-46221144D01*
X59644857Y-46221144D01*
X59787714Y-46149715D01*
X59859143Y-46078286D01*
X59930571Y-45935429D01*
X59930571Y-45721144D01*
X59930571Y-47506858D02*
X59144857Y-47506858D01*
X59002000Y-47435429D01*
X58930571Y-47292572D01*
X58930571Y-47006858D01*
X59002000Y-46864001D01*
X59859143Y-47506858D02*
X59930571Y-47364001D01*
X59930571Y-47006858D01*
X59859143Y-46864001D01*
X59716286Y-46792572D01*
X59573429Y-46792572D01*
X59430571Y-46864001D01*
X59359143Y-47006858D01*
X59359143Y-47364001D01*
X59287714Y-47506858D01*
X59930571Y-48221144D02*
X58930571Y-48221144D01*
X59216286Y-48221144D02*
X59073429Y-48292572D01*
X59002000Y-48364001D01*
X58930571Y-48506858D01*
X58930571Y-48649715D01*
X59930571Y-49792572D02*
X58430571Y-49792572D01*
X59859143Y-49792572D02*
X59930571Y-49649715D01*
X59930571Y-49364001D01*
X59859143Y-49221143D01*
X59787714Y-49149715D01*
X59644857Y-49078286D01*
X59216286Y-49078286D01*
X59073429Y-49149715D01*
X59002000Y-49221143D01*
X58930571Y-49364001D01*
X58930571Y-49649715D01*
X59002000Y-49792572D01*
X59930571Y-51649715D02*
X58430571Y-51649715D01*
X58430571Y-52221143D01*
X58502000Y-52364001D01*
X58573429Y-52435429D01*
X58716286Y-52506858D01*
X58930571Y-52506858D01*
X59073429Y-52435429D01*
X59144857Y-52364001D01*
X59216286Y-52221143D01*
X59216286Y-51649715D01*
X59930571Y-53364001D02*
X59859143Y-53221143D01*
X59787714Y-53149715D01*
X59644857Y-53078286D01*
X59216286Y-53078286D01*
X59073429Y-53149715D01*
X59002000Y-53221143D01*
X58930571Y-53364001D01*
X58930571Y-53578286D01*
X59002000Y-53721143D01*
X59073429Y-53792572D01*
X59216286Y-53864001D01*
X59644857Y-53864001D01*
X59787714Y-53792572D01*
X59859143Y-53721143D01*
X59930571Y-53578286D01*
X59930571Y-53364001D01*
X58930571Y-54364001D02*
X59930571Y-54649715D01*
X59216286Y-54935429D01*
X59930571Y-55221144D01*
X58930571Y-55506858D01*
X59859143Y-56649715D02*
X59930571Y-56506858D01*
X59930571Y-56221144D01*
X59859143Y-56078287D01*
X59716286Y-56006858D01*
X59144857Y-56006858D01*
X59002000Y-56078287D01*
X58930571Y-56221144D01*
X58930571Y-56506858D01*
X59002000Y-56649715D01*
X59144857Y-56721144D01*
X59287714Y-56721144D01*
X59430571Y-56006858D01*
X59930571Y-57364001D02*
X58930571Y-57364001D01*
X59216286Y-57364001D02*
X59073429Y-57435429D01*
X59002000Y-57506858D01*
X58930571Y-57649715D01*
X58930571Y-57792572D01*
X59859143Y-59364000D02*
X59930571Y-59578286D01*
X59930571Y-59935429D01*
X59859143Y-60078286D01*
X59787714Y-60149715D01*
X59644857Y-60221143D01*
X59502000Y-60221143D01*
X59359143Y-60149715D01*
X59287714Y-60078286D01*
X59216286Y-59935429D01*
X59144857Y-59649715D01*
X59073429Y-59506857D01*
X59002000Y-59435429D01*
X58859143Y-59364000D01*
X58716286Y-59364000D01*
X58573429Y-59435429D01*
X58502000Y-59506857D01*
X58430571Y-59649715D01*
X58430571Y-60006857D01*
X58502000Y-60221143D01*
X58930571Y-61506857D02*
X59930571Y-61506857D01*
X58930571Y-60864000D02*
X59716286Y-60864000D01*
X59859143Y-60935428D01*
X59930571Y-61078286D01*
X59930571Y-61292571D01*
X59859143Y-61435428D01*
X59787714Y-61506857D01*
X58930571Y-62221143D02*
X60430571Y-62221143D01*
X59002000Y-62221143D02*
X58930571Y-62364000D01*
X58930571Y-62649714D01*
X59002000Y-62792571D01*
X59073429Y-62864000D01*
X59216286Y-62935429D01*
X59644857Y-62935429D01*
X59787714Y-62864000D01*
X59859143Y-62792571D01*
X59930571Y-62649714D01*
X59930571Y-62364000D01*
X59859143Y-62221143D01*
X58930571Y-63578286D02*
X60430571Y-63578286D01*
X59002000Y-63578286D02*
X58930571Y-63721143D01*
X58930571Y-64006857D01*
X59002000Y-64149714D01*
X59073429Y-64221143D01*
X59216286Y-64292572D01*
X59644857Y-64292572D01*
X59787714Y-64221143D01*
X59859143Y-64149714D01*
X59930571Y-64006857D01*
X59930571Y-63721143D01*
X59859143Y-63578286D01*
X59930571Y-65149715D02*
X59859143Y-65006857D01*
X59716286Y-64935429D01*
X58430571Y-64935429D01*
X58930571Y-65578286D02*
X59930571Y-65935429D01*
X58930571Y-66292571D02*
X59930571Y-65935429D01*
X60287714Y-65792571D01*
X60359143Y-65721143D01*
X60430571Y-65578286D01*
X58930571Y-67864000D02*
X59930571Y-68221143D01*
X58930571Y-68578285D01*
X58430571Y-69435428D02*
X58430571Y-69578285D01*
X58502000Y-69721142D01*
X58573429Y-69792571D01*
X58716286Y-69864000D01*
X59002000Y-69935428D01*
X59359143Y-69935428D01*
X59644857Y-69864000D01*
X59787714Y-69792571D01*
X59859143Y-69721142D01*
X59930571Y-69578285D01*
X59930571Y-69435428D01*
X59859143Y-69292571D01*
X59787714Y-69221142D01*
X59644857Y-69149714D01*
X59359143Y-69078285D01*
X59002000Y-69078285D01*
X58716286Y-69149714D01*
X58573429Y-69221142D01*
X58502000Y-69292571D01*
X58430571Y-69435428D01*
X59787714Y-70578285D02*
X59859143Y-70649713D01*
X59930571Y-70578285D01*
X59859143Y-70506856D01*
X59787714Y-70578285D01*
X59930571Y-70578285D01*
X58573429Y-71221142D02*
X58502000Y-71292571D01*
X58430571Y-71435428D01*
X58430571Y-71792571D01*
X58502000Y-71935428D01*
X58573429Y-72006857D01*
X58716286Y-72078285D01*
X58859143Y-72078285D01*
X59073429Y-72006857D01*
X59930571Y-71149714D01*
X59930571Y-72078285D01*
X61544857Y-44614000D02*
X61616286Y-44828286D01*
X61687714Y-44899714D01*
X61830571Y-44971143D01*
X62044857Y-44971143D01*
X62187714Y-44899714D01*
X62259143Y-44828286D01*
X62330571Y-44685428D01*
X62330571Y-44114000D01*
X60830571Y-44114000D01*
X60830571Y-44614000D01*
X60902000Y-44756857D01*
X60973429Y-44828286D01*
X61116286Y-44899714D01*
X61259143Y-44899714D01*
X61402000Y-44828286D01*
X61473429Y-44756857D01*
X61544857Y-44614000D01*
X61544857Y-44114000D01*
X61330571Y-45471143D02*
X62330571Y-45828286D01*
X61330571Y-46185428D02*
X62330571Y-45828286D01*
X62687714Y-45685428D01*
X62759143Y-45614000D01*
X62830571Y-45471143D01*
X62187714Y-47899714D02*
X62259143Y-47971142D01*
X62330571Y-47899714D01*
X62259143Y-47828285D01*
X62187714Y-47899714D01*
X62330571Y-47899714D01*
X61402000Y-47899714D02*
X61473429Y-47971142D01*
X61544857Y-47899714D01*
X61473429Y-47828285D01*
X61402000Y-47899714D01*
X61544857Y-47899714D01*
X61616286Y-50042571D02*
X62330571Y-50042571D01*
X60830571Y-49542571D02*
X61616286Y-50042571D01*
X60830571Y-50542571D01*
X62330571Y-51685428D02*
X61544857Y-51685428D01*
X61402000Y-51613999D01*
X61330571Y-51471142D01*
X61330571Y-51185428D01*
X61402000Y-51042571D01*
X62259143Y-51685428D02*
X62330571Y-51542571D01*
X62330571Y-51185428D01*
X62259143Y-51042571D01*
X62116286Y-50971142D01*
X61973429Y-50971142D01*
X61830571Y-51042571D01*
X61759143Y-51185428D01*
X61759143Y-51542571D01*
X61687714Y-51685428D01*
X61330571Y-52399714D02*
X62330571Y-52399714D01*
X61473429Y-52399714D02*
X61402000Y-52471142D01*
X61330571Y-52614000D01*
X61330571Y-52828285D01*
X61402000Y-52971142D01*
X61544857Y-53042571D01*
X62330571Y-53042571D01*
X61330571Y-53756857D02*
X62330571Y-53756857D01*
X61473429Y-53756857D02*
X61402000Y-53828285D01*
X61330571Y-53971143D01*
X61330571Y-54185428D01*
X61402000Y-54328285D01*
X61544857Y-54399714D01*
X62330571Y-54399714D01*
X62330571Y-55114000D02*
X61330571Y-55114000D01*
X60830571Y-55114000D02*
X60902000Y-55042571D01*
X60973429Y-55114000D01*
X60902000Y-55185428D01*
X60830571Y-55114000D01*
X60973429Y-55114000D01*
X62259143Y-56471143D02*
X62330571Y-56328286D01*
X62330571Y-56042572D01*
X62259143Y-55899714D01*
X62187714Y-55828286D01*
X62044857Y-55756857D01*
X61616286Y-55756857D01*
X61473429Y-55828286D01*
X61402000Y-55899714D01*
X61330571Y-56042572D01*
X61330571Y-56328286D01*
X61402000Y-56471143D01*
X62330571Y-57114000D02*
X60830571Y-57114000D01*
X61759143Y-57256857D02*
X62330571Y-57685428D01*
X61330571Y-57685428D02*
X61902000Y-57114000D01*
X60902000Y-60256857D02*
X60830571Y-60114000D01*
X60830571Y-59899714D01*
X60902000Y-59685429D01*
X61044857Y-59542571D01*
X61187714Y-59471143D01*
X61473429Y-59399714D01*
X61687714Y-59399714D01*
X61973429Y-59471143D01*
X62116286Y-59542571D01*
X62259143Y-59685429D01*
X62330571Y-59899714D01*
X62330571Y-60042571D01*
X62259143Y-60256857D01*
X62187714Y-60328286D01*
X61687714Y-60328286D01*
X61687714Y-60042571D01*
X62330571Y-61614000D02*
X61544857Y-61614000D01*
X61402000Y-61542571D01*
X61330571Y-61399714D01*
X61330571Y-61114000D01*
X61402000Y-60971143D01*
X62259143Y-61614000D02*
X62330571Y-61471143D01*
X62330571Y-61114000D01*
X62259143Y-60971143D01*
X62116286Y-60899714D01*
X61973429Y-60899714D01*
X61830571Y-60971143D01*
X61759143Y-61114000D01*
X61759143Y-61471143D01*
X61687714Y-61614000D01*
X61330571Y-62971143D02*
X62544857Y-62971143D01*
X62687714Y-62899714D01*
X62759143Y-62828286D01*
X62830571Y-62685429D01*
X62830571Y-62471143D01*
X62759143Y-62328286D01*
X62259143Y-62971143D02*
X62330571Y-62828286D01*
X62330571Y-62542572D01*
X62259143Y-62399714D01*
X62187714Y-62328286D01*
X62044857Y-62256857D01*
X61616286Y-62256857D01*
X61473429Y-62328286D01*
X61402000Y-62399714D01*
X61330571Y-62542572D01*
X61330571Y-62828286D01*
X61402000Y-62971143D01*
X61330571Y-63685429D02*
X62330571Y-63685429D01*
X61473429Y-63685429D02*
X61402000Y-63756857D01*
X61330571Y-63899715D01*
X61330571Y-64114000D01*
X61402000Y-64256857D01*
X61544857Y-64328286D01*
X62330571Y-64328286D01*
X62259143Y-65614000D02*
X62330571Y-65471143D01*
X62330571Y-65185429D01*
X62259143Y-65042572D01*
X62116286Y-64971143D01*
X61544857Y-64971143D01*
X61402000Y-65042572D01*
X61330571Y-65185429D01*
X61330571Y-65471143D01*
X61402000Y-65614000D01*
X61544857Y-65685429D01*
X61687714Y-65685429D01*
X61830571Y-64971143D01*
M02*
