G04 #@! TF.FileFunction,Soldermask,Bot*
%FSLAX46Y46*%
G04 Gerber Fmt 4.6, Leading zero omitted, Abs format (unit mm)*
G04 Created by KiCad (PCBNEW 4.0.2-stable) date 2016-05-18 09:51:30*
%MOMM*%
G01*
G04 APERTURE LIST*
%ADD10C,0.100000*%
%ADD11C,2.398980*%
%ADD12R,1.700000X1.700000*%
%ADD13C,1.700000*%
%ADD14R,2.127200X2.127200*%
%ADD15O,2.127200X2.127200*%
%ADD16R,2.432000X2.432000*%
%ADD17O,2.432000X2.432000*%
%ADD18O,2.940000X2.432000*%
%ADD19R,4.400000X4.400000*%
%ADD20C,2.200000*%
G04 APERTURE END LIST*
D10*
D11*
X101092000Y-39116000D03*
X93472000Y-39116000D03*
D12*
X74803000Y-37719000D03*
D13*
X74803000Y-39719000D03*
D12*
X74803000Y-54229000D03*
D13*
X74803000Y-56229000D03*
D12*
X74676000Y-71120000D03*
D13*
X74676000Y-73120000D03*
D14*
X96012000Y-62738000D03*
D15*
X98552000Y-62738000D03*
X96012000Y-65278000D03*
X98552000Y-65278000D03*
X96012000Y-67818000D03*
X98552000Y-67818000D03*
D16*
X102616000Y-73660000D03*
D17*
X102616000Y-71120000D03*
D14*
X96012000Y-30988000D03*
D15*
X98552000Y-30988000D03*
X96012000Y-33528000D03*
X98552000Y-33528000D03*
X96012000Y-36068000D03*
X98552000Y-36068000D03*
D16*
X102616000Y-27940000D03*
D17*
X102616000Y-25400000D03*
D11*
X81788000Y-33147000D03*
X81788000Y-25527000D03*
X84836000Y-25527000D03*
X84836000Y-33147000D03*
X81788000Y-49784000D03*
X81788000Y-42164000D03*
X84836000Y-42164000D03*
X84836000Y-49784000D03*
X81788000Y-66548000D03*
X81788000Y-58928000D03*
X84836000Y-58928000D03*
X84836000Y-66548000D03*
X87884000Y-33147000D03*
X87884000Y-25527000D03*
X87884000Y-49784000D03*
X87884000Y-42164000D03*
X87884000Y-66548000D03*
X87884000Y-58928000D03*
X93472000Y-59436000D03*
X101092000Y-59436000D03*
X101092000Y-52324000D03*
X93472000Y-52324000D03*
X93472000Y-45974000D03*
X101092000Y-45974000D03*
D18*
X77470000Y-30480000D03*
X77470000Y-27940000D03*
X77470000Y-33020000D03*
X77470000Y-46990000D03*
X77470000Y-44450000D03*
X77470000Y-49530000D03*
X77470000Y-63500000D03*
X77470000Y-60960000D03*
X77470000Y-66040000D03*
D13*
X83312000Y-38822000D03*
D12*
X83312000Y-36322000D03*
D13*
X83312000Y-55586000D03*
D12*
X83312000Y-53086000D03*
D13*
X83312000Y-72223000D03*
D12*
X83312000Y-69723000D03*
D19*
X70970140Y-27940000D03*
X64970660Y-27940000D03*
X67970400Y-32639000D03*
D20*
X70000000Y-37990000D03*
X70000000Y-43290000D03*
X70000000Y-53230000D03*
X70000000Y-58530000D03*
X70000000Y-68470000D03*
X70000000Y-73770000D03*
M02*
