G04 #@! TF.GenerationSoftware,KiCad,Pcbnew,5.0.2-bee76a0~70~ubuntu18.04.1*
G04 #@! TF.CreationDate,2019-03-17T13:31:41-04:00*
G04 #@! TF.ProjectId,main,6d61696e-2e6b-4696-9361-645f70636258,1*
G04 #@! TF.SameCoordinates,Original*
G04 #@! TF.FileFunction,Legend,Bot*
G04 #@! TF.FilePolarity,Positive*
%FSLAX46Y46*%
G04 Gerber Fmt 4.6, Leading zero omitted, Abs format (unit mm)*
G04 Created by KiCad (PCBNEW 5.0.2-bee76a0~70~ubuntu18.04.1) date Sun 17 Mar 2019 01:31:41 PM EDT*
%MOMM*%
%LPD*%
G01*
G04 APERTURE LIST*
%ADD10C,0.300000*%
G04 APERTURE END LIST*
D10*
X59069857Y-38221142D02*
X59141285Y-38435428D01*
X59212714Y-38506857D01*
X59355571Y-38578285D01*
X59569857Y-38578285D01*
X59712714Y-38506857D01*
X59784142Y-38435428D01*
X59855571Y-38292571D01*
X59855571Y-37721142D01*
X58355571Y-37721142D01*
X58355571Y-38221142D01*
X58427000Y-38364000D01*
X58498428Y-38435428D01*
X58641285Y-38506857D01*
X58784142Y-38506857D01*
X58927000Y-38435428D01*
X58998428Y-38364000D01*
X59069857Y-38221142D01*
X59069857Y-37721142D01*
X59855571Y-39221142D02*
X58855571Y-39221142D01*
X59141285Y-39221142D02*
X58998428Y-39292571D01*
X58927000Y-39364000D01*
X58855571Y-39506857D01*
X58855571Y-39649714D01*
X59784142Y-40721142D02*
X59855571Y-40578285D01*
X59855571Y-40292571D01*
X59784142Y-40149714D01*
X59641285Y-40078285D01*
X59069857Y-40078285D01*
X58927000Y-40149714D01*
X58855571Y-40292571D01*
X58855571Y-40578285D01*
X58927000Y-40721142D01*
X59069857Y-40792571D01*
X59212714Y-40792571D01*
X59355571Y-40078285D01*
X59855571Y-42078285D02*
X59069857Y-42078285D01*
X58927000Y-42006857D01*
X58855571Y-41864000D01*
X58855571Y-41578285D01*
X58927000Y-41435428D01*
X59784142Y-42078285D02*
X59855571Y-41935428D01*
X59855571Y-41578285D01*
X59784142Y-41435428D01*
X59641285Y-41364000D01*
X59498428Y-41364000D01*
X59355571Y-41435428D01*
X59284142Y-41578285D01*
X59284142Y-41935428D01*
X59212714Y-42078285D01*
X59855571Y-43435428D02*
X58355571Y-43435428D01*
X59784142Y-43435428D02*
X59855571Y-43292571D01*
X59855571Y-43006857D01*
X59784142Y-42864000D01*
X59712714Y-42792571D01*
X59569857Y-42721142D01*
X59141285Y-42721142D01*
X58998428Y-42792571D01*
X58927000Y-42864000D01*
X58855571Y-43006857D01*
X58855571Y-43292571D01*
X58927000Y-43435428D01*
X59855571Y-44149714D02*
X58355571Y-44149714D01*
X58927000Y-44149714D02*
X58855571Y-44292571D01*
X58855571Y-44578285D01*
X58927000Y-44721142D01*
X58998428Y-44792571D01*
X59141285Y-44864000D01*
X59569857Y-44864000D01*
X59712714Y-44792571D01*
X59784142Y-44721142D01*
X59855571Y-44578285D01*
X59855571Y-44292571D01*
X59784142Y-44149714D01*
X59855571Y-45721142D02*
X59784142Y-45578285D01*
X59712714Y-45506857D01*
X59569857Y-45435428D01*
X59141285Y-45435428D01*
X58998428Y-45506857D01*
X58927000Y-45578285D01*
X58855571Y-45721142D01*
X58855571Y-45935428D01*
X58927000Y-46078285D01*
X58998428Y-46149714D01*
X59141285Y-46221142D01*
X59569857Y-46221142D01*
X59712714Y-46149714D01*
X59784142Y-46078285D01*
X59855571Y-45935428D01*
X59855571Y-45721142D01*
X59855571Y-47506857D02*
X59069857Y-47506857D01*
X58927000Y-47435428D01*
X58855571Y-47292571D01*
X58855571Y-47006857D01*
X58927000Y-46864000D01*
X59784142Y-47506857D02*
X59855571Y-47364000D01*
X59855571Y-47006857D01*
X59784142Y-46864000D01*
X59641285Y-46792571D01*
X59498428Y-46792571D01*
X59355571Y-46864000D01*
X59284142Y-47006857D01*
X59284142Y-47364000D01*
X59212714Y-47506857D01*
X59855571Y-48221142D02*
X58855571Y-48221142D01*
X59141285Y-48221142D02*
X58998428Y-48292571D01*
X58927000Y-48364000D01*
X58855571Y-48506857D01*
X58855571Y-48649714D01*
X59855571Y-49792571D02*
X58355571Y-49792571D01*
X59784142Y-49792571D02*
X59855571Y-49649714D01*
X59855571Y-49364000D01*
X59784142Y-49221142D01*
X59712714Y-49149714D01*
X59569857Y-49078285D01*
X59141285Y-49078285D01*
X58998428Y-49149714D01*
X58927000Y-49221142D01*
X58855571Y-49364000D01*
X58855571Y-49649714D01*
X58927000Y-49792571D01*
X59855571Y-51649714D02*
X58355571Y-51649714D01*
X58355571Y-52221142D01*
X58427000Y-52364000D01*
X58498428Y-52435428D01*
X58641285Y-52506857D01*
X58855571Y-52506857D01*
X58998428Y-52435428D01*
X59069857Y-52364000D01*
X59141285Y-52221142D01*
X59141285Y-51649714D01*
X59855571Y-53364000D02*
X59784142Y-53221142D01*
X59712714Y-53149714D01*
X59569857Y-53078285D01*
X59141285Y-53078285D01*
X58998428Y-53149714D01*
X58927000Y-53221142D01*
X58855571Y-53364000D01*
X58855571Y-53578285D01*
X58927000Y-53721142D01*
X58998428Y-53792571D01*
X59141285Y-53864000D01*
X59569857Y-53864000D01*
X59712714Y-53792571D01*
X59784142Y-53721142D01*
X59855571Y-53578285D01*
X59855571Y-53364000D01*
X58855571Y-54364000D02*
X59855571Y-54649714D01*
X59141285Y-54935428D01*
X59855571Y-55221142D01*
X58855571Y-55506857D01*
X59784142Y-56649714D02*
X59855571Y-56506857D01*
X59855571Y-56221142D01*
X59784142Y-56078285D01*
X59641285Y-56006857D01*
X59069857Y-56006857D01*
X58927000Y-56078285D01*
X58855571Y-56221142D01*
X58855571Y-56506857D01*
X58927000Y-56649714D01*
X59069857Y-56721142D01*
X59212714Y-56721142D01*
X59355571Y-56006857D01*
X59855571Y-57364000D02*
X58855571Y-57364000D01*
X59141285Y-57364000D02*
X58998428Y-57435428D01*
X58927000Y-57506857D01*
X58855571Y-57649714D01*
X58855571Y-57792571D01*
X59784142Y-59364000D02*
X59855571Y-59578285D01*
X59855571Y-59935428D01*
X59784142Y-60078285D01*
X59712714Y-60149714D01*
X59569857Y-60221142D01*
X59427000Y-60221142D01*
X59284142Y-60149714D01*
X59212714Y-60078285D01*
X59141285Y-59935428D01*
X59069857Y-59649714D01*
X58998428Y-59506857D01*
X58927000Y-59435428D01*
X58784142Y-59364000D01*
X58641285Y-59364000D01*
X58498428Y-59435428D01*
X58427000Y-59506857D01*
X58355571Y-59649714D01*
X58355571Y-60006857D01*
X58427000Y-60221142D01*
X58855571Y-61506857D02*
X59855571Y-61506857D01*
X58855571Y-60864000D02*
X59641285Y-60864000D01*
X59784142Y-60935428D01*
X59855571Y-61078285D01*
X59855571Y-61292571D01*
X59784142Y-61435428D01*
X59712714Y-61506857D01*
X58855571Y-62221142D02*
X60355571Y-62221142D01*
X58927000Y-62221142D02*
X58855571Y-62364000D01*
X58855571Y-62649714D01*
X58927000Y-62792571D01*
X58998428Y-62864000D01*
X59141285Y-62935428D01*
X59569857Y-62935428D01*
X59712714Y-62864000D01*
X59784142Y-62792571D01*
X59855571Y-62649714D01*
X59855571Y-62364000D01*
X59784142Y-62221142D01*
X58855571Y-63578285D02*
X60355571Y-63578285D01*
X58927000Y-63578285D02*
X58855571Y-63721142D01*
X58855571Y-64006857D01*
X58927000Y-64149714D01*
X58998428Y-64221142D01*
X59141285Y-64292571D01*
X59569857Y-64292571D01*
X59712714Y-64221142D01*
X59784142Y-64149714D01*
X59855571Y-64006857D01*
X59855571Y-63721142D01*
X59784142Y-63578285D01*
X59855571Y-65149714D02*
X59784142Y-65006857D01*
X59641285Y-64935428D01*
X58355571Y-64935428D01*
X58855571Y-65578285D02*
X59855571Y-65935428D01*
X58855571Y-66292571D02*
X59855571Y-65935428D01*
X60212714Y-65792571D01*
X60284142Y-65721142D01*
X60355571Y-65578285D01*
X58855571Y-67864000D02*
X59855571Y-68221142D01*
X58855571Y-68578285D01*
X58355571Y-69435428D02*
X58355571Y-69578285D01*
X58427000Y-69721142D01*
X58498428Y-69792571D01*
X58641285Y-69864000D01*
X58927000Y-69935428D01*
X59284142Y-69935428D01*
X59569857Y-69864000D01*
X59712714Y-69792571D01*
X59784142Y-69721142D01*
X59855571Y-69578285D01*
X59855571Y-69435428D01*
X59784142Y-69292571D01*
X59712714Y-69221142D01*
X59569857Y-69149714D01*
X59284142Y-69078285D01*
X58927000Y-69078285D01*
X58641285Y-69149714D01*
X58498428Y-69221142D01*
X58427000Y-69292571D01*
X58355571Y-69435428D01*
X59712714Y-70578285D02*
X59784142Y-70649714D01*
X59855571Y-70578285D01*
X59784142Y-70506857D01*
X59712714Y-70578285D01*
X59855571Y-70578285D01*
X58498428Y-71221142D02*
X58427000Y-71292571D01*
X58355571Y-71435428D01*
X58355571Y-71792571D01*
X58427000Y-71935428D01*
X58498428Y-72006857D01*
X58641285Y-72078285D01*
X58784142Y-72078285D01*
X58998428Y-72006857D01*
X59855571Y-71149714D01*
X59855571Y-72078285D01*
X61619857Y-44614000D02*
X61691285Y-44828285D01*
X61762714Y-44899714D01*
X61905571Y-44971142D01*
X62119857Y-44971142D01*
X62262714Y-44899714D01*
X62334142Y-44828285D01*
X62405571Y-44685428D01*
X62405571Y-44114000D01*
X60905571Y-44114000D01*
X60905571Y-44614000D01*
X60977000Y-44756857D01*
X61048428Y-44828285D01*
X61191285Y-44899714D01*
X61334142Y-44899714D01*
X61477000Y-44828285D01*
X61548428Y-44756857D01*
X61619857Y-44614000D01*
X61619857Y-44114000D01*
X61405571Y-45471142D02*
X62405571Y-45828285D01*
X61405571Y-46185428D02*
X62405571Y-45828285D01*
X62762714Y-45685428D01*
X62834142Y-45614000D01*
X62905571Y-45471142D01*
X62262714Y-47899714D02*
X62334142Y-47971142D01*
X62405571Y-47899714D01*
X62334142Y-47828285D01*
X62262714Y-47899714D01*
X62405571Y-47899714D01*
X61477000Y-47899714D02*
X61548428Y-47971142D01*
X61619857Y-47899714D01*
X61548428Y-47828285D01*
X61477000Y-47899714D01*
X61619857Y-47899714D01*
X61691285Y-50042571D02*
X62405571Y-50042571D01*
X60905571Y-49542571D02*
X61691285Y-50042571D01*
X60905571Y-50542571D01*
X62405571Y-51685428D02*
X61619857Y-51685428D01*
X61477000Y-51613999D01*
X61405571Y-51471142D01*
X61405571Y-51185428D01*
X61477000Y-51042571D01*
X62334142Y-51685428D02*
X62405571Y-51542571D01*
X62405571Y-51185428D01*
X62334142Y-51042571D01*
X62191285Y-50971142D01*
X62048428Y-50971142D01*
X61905571Y-51042571D01*
X61834142Y-51185428D01*
X61834142Y-51542571D01*
X61762714Y-51685428D01*
X61405571Y-52399714D02*
X62405571Y-52399714D01*
X61548428Y-52399714D02*
X61477000Y-52471142D01*
X61405571Y-52613999D01*
X61405571Y-52828285D01*
X61477000Y-52971142D01*
X61619857Y-53042571D01*
X62405571Y-53042571D01*
X61405571Y-53756857D02*
X62405571Y-53756857D01*
X61548428Y-53756857D02*
X61477000Y-53828285D01*
X61405571Y-53971142D01*
X61405571Y-54185428D01*
X61477000Y-54328285D01*
X61619857Y-54399714D01*
X62405571Y-54399714D01*
X62405571Y-55113999D02*
X61405571Y-55113999D01*
X60905571Y-55113999D02*
X60977000Y-55042571D01*
X61048428Y-55113999D01*
X60977000Y-55185428D01*
X60905571Y-55113999D01*
X61048428Y-55113999D01*
X62334142Y-56471142D02*
X62405571Y-56328285D01*
X62405571Y-56042571D01*
X62334142Y-55899714D01*
X62262714Y-55828285D01*
X62119857Y-55756857D01*
X61691285Y-55756857D01*
X61548428Y-55828285D01*
X61477000Y-55899714D01*
X61405571Y-56042571D01*
X61405571Y-56328285D01*
X61477000Y-56471142D01*
X62405571Y-57113999D02*
X60905571Y-57113999D01*
X61834142Y-57256857D02*
X62405571Y-57685428D01*
X61405571Y-57685428D02*
X61977000Y-57113999D01*
X60977000Y-60256857D02*
X60905571Y-60113999D01*
X60905571Y-59899714D01*
X60977000Y-59685428D01*
X61119857Y-59542571D01*
X61262714Y-59471142D01*
X61548428Y-59399714D01*
X61762714Y-59399714D01*
X62048428Y-59471142D01*
X62191285Y-59542571D01*
X62334142Y-59685428D01*
X62405571Y-59899714D01*
X62405571Y-60042571D01*
X62334142Y-60256857D01*
X62262714Y-60328285D01*
X61762714Y-60328285D01*
X61762714Y-60042571D01*
X62405571Y-61613999D02*
X61619857Y-61613999D01*
X61477000Y-61542571D01*
X61405571Y-61399714D01*
X61405571Y-61113999D01*
X61477000Y-60971142D01*
X62334142Y-61613999D02*
X62405571Y-61471142D01*
X62405571Y-61113999D01*
X62334142Y-60971142D01*
X62191285Y-60899714D01*
X62048428Y-60899714D01*
X61905571Y-60971142D01*
X61834142Y-61113999D01*
X61834142Y-61471142D01*
X61762714Y-61613999D01*
X61405571Y-62971142D02*
X62619857Y-62971142D01*
X62762714Y-62899714D01*
X62834142Y-62828285D01*
X62905571Y-62685428D01*
X62905571Y-62471142D01*
X62834142Y-62328285D01*
X62334142Y-62971142D02*
X62405571Y-62828285D01*
X62405571Y-62542571D01*
X62334142Y-62399714D01*
X62262714Y-62328285D01*
X62119857Y-62256857D01*
X61691285Y-62256857D01*
X61548428Y-62328285D01*
X61477000Y-62399714D01*
X61405571Y-62542571D01*
X61405571Y-62828285D01*
X61477000Y-62971142D01*
X61405571Y-63685428D02*
X62405571Y-63685428D01*
X61548428Y-63685428D02*
X61477000Y-63756857D01*
X61405571Y-63899714D01*
X61405571Y-64113999D01*
X61477000Y-64256857D01*
X61619857Y-64328285D01*
X62405571Y-64328285D01*
X62334142Y-65613999D02*
X62405571Y-65471142D01*
X62405571Y-65185428D01*
X62334142Y-65042571D01*
X62191285Y-64971142D01*
X61619857Y-64971142D01*
X61477000Y-65042571D01*
X61405571Y-65185428D01*
X61405571Y-65471142D01*
X61477000Y-65613999D01*
X61619857Y-65685428D01*
X61762714Y-65685428D01*
X61905571Y-64971142D01*
M02*
