M48
;DRILL file {KiCad 4.0.2-stable} date 2016-04-18 07:05:44
;FORMAT={-:-/ absolute / inch / decimal}
FMAT,2
INCH,TZ
T1C0.031
T2C0.032
T3C0.039
T4C0.040
T5C0.045
%
G90
G05
M72
T1
X2.95Y-1.5
X2.95Y-1.5787
X2.95Y-2.125
X2.95Y-2.2037
X2.95Y-2.8
X2.95Y-2.8787
X4.1Y-1.05
X4.1Y-1.1287
X4.1Y-1.7
X4.1Y-1.7787
X4.1Y-2.35
X4.1Y-2.4287
T2
X2.25Y-1.5
X2.25Y-1.7
X2.25Y-2.05
X2.25Y-2.25
X2.25Y-2.6
X2.25Y-2.8
X2.75Y-1.5
X2.75Y-1.7
X2.75Y-2.05
X2.75Y-2.25
X2.75Y-2.6
X2.75Y-2.8
T3
X3.6Y-1.05
X3.6Y-1.25
X3.6Y-1.7
X3.6Y-1.9
X3.6Y-2.35
X3.6Y-2.55
X3.9Y-1.05
X3.9Y-1.25
X3.9Y-1.7
X3.9Y-1.9
X3.9Y-2.35
X3.9Y-2.55
X4.05Y-1.3
X4.05Y-1.95
X4.05Y-2.6
X4.35Y-1.3
X4.35Y-1.95
X4.35Y-2.6
X4.6Y-1.45
X4.6Y-2.7
X4.9Y-1.45
X4.9Y-2.7
X5.Y-1.35
X5.Y-2.6
X5.3Y-1.35
X5.3Y-2.6
T4
X4.7Y-1.1
X4.7Y-1.2
X4.7Y-1.3
X4.7Y-2.35
X4.7Y-2.45
X4.7Y-2.55
X4.8Y-1.1
X4.8Y-1.2
X4.8Y-1.3
X4.8Y-2.35
X4.8Y-2.45
X4.8Y-2.55
X5.7Y-1.
X5.7Y-1.1
X5.7Y-2.8
X5.7Y-2.9
T5
X3.4Y-1.1
X3.4Y-1.2
X3.4Y-1.3
X3.4Y-1.75
X3.4Y-1.85
X3.4Y-1.95
X3.4Y-2.4
X3.4Y-2.5
X3.4Y-2.6
T3
X2.5579Y-1.1106G85X2.5579Y-1.1893
G05
X2.6366Y-1.335G85X2.7153Y-1.335
G05
X2.7941Y-1.1106G85X2.7941Y-1.1893
G05
T0
M30
