G04 #@! TF.FileFunction,Legend,Top*
%FSLAX46Y46*%
G04 Gerber Fmt 4.6, Leading zero omitted, Abs format (unit mm)*
G04 Created by KiCad (PCBNEW 4.0.2-stable) date 2016-04-27 07:39:18*
%MOMM*%
G01*
G04 APERTURE LIST*
%ADD10C,0.100000*%
%ADD11C,0.300000*%
%ADD12C,0.200000*%
%ADD13C,0.150000*%
G04 APERTURE END LIST*
D10*
D11*
X56349287Y-21403571D02*
X56849287Y-22903571D01*
X57349287Y-21403571D01*
X57849287Y-22903571D02*
X57849287Y-21903571D01*
X57849287Y-21403571D02*
X57777858Y-21475000D01*
X57849287Y-21546429D01*
X57920715Y-21475000D01*
X57849287Y-21403571D01*
X57849287Y-21546429D01*
X58563573Y-21903571D02*
X58563573Y-22903571D01*
X58563573Y-22046429D02*
X58635001Y-21975000D01*
X58777859Y-21903571D01*
X58992144Y-21903571D01*
X59135001Y-21975000D01*
X59206430Y-22117857D01*
X59206430Y-22903571D01*
X61777859Y-21403571D02*
X61063573Y-21403571D01*
X60992144Y-22117857D01*
X61063573Y-22046429D01*
X61206430Y-21975000D01*
X61563573Y-21975000D01*
X61706430Y-22046429D01*
X61777859Y-22117857D01*
X61849287Y-22260714D01*
X61849287Y-22617857D01*
X61777859Y-22760714D01*
X61706430Y-22832143D01*
X61563573Y-22903571D01*
X61206430Y-22903571D01*
X61063573Y-22832143D01*
X60992144Y-22760714D01*
X62277858Y-21403571D02*
X62777858Y-22903571D01*
X63277858Y-21403571D01*
X64706429Y-21903571D02*
X65277858Y-21903571D01*
X64920715Y-21403571D02*
X64920715Y-22689286D01*
X64992143Y-22832143D01*
X65135001Y-22903571D01*
X65277858Y-22903571D01*
X65992144Y-22903571D02*
X65849286Y-22832143D01*
X65777858Y-22760714D01*
X65706429Y-22617857D01*
X65706429Y-22189286D01*
X65777858Y-22046429D01*
X65849286Y-21975000D01*
X65992144Y-21903571D01*
X66206429Y-21903571D01*
X66349286Y-21975000D01*
X66420715Y-22046429D01*
X66492144Y-22189286D01*
X66492144Y-22617857D01*
X66420715Y-22760714D01*
X66349286Y-22832143D01*
X66206429Y-22903571D01*
X65992144Y-22903571D01*
X68135001Y-21403571D02*
X69063572Y-21403571D01*
X68563572Y-21975000D01*
X68777858Y-21975000D01*
X68920715Y-22046429D01*
X68992144Y-22117857D01*
X69063572Y-22260714D01*
X69063572Y-22617857D01*
X68992144Y-22760714D01*
X68920715Y-22832143D01*
X68777858Y-22903571D01*
X68349286Y-22903571D01*
X68206429Y-22832143D01*
X68135001Y-22760714D01*
X70420715Y-21403571D02*
X69706429Y-21403571D01*
X69635000Y-22117857D01*
X69706429Y-22046429D01*
X69849286Y-21975000D01*
X70206429Y-21975000D01*
X70349286Y-22046429D01*
X70420715Y-22117857D01*
X70492143Y-22260714D01*
X70492143Y-22617857D01*
X70420715Y-22760714D01*
X70349286Y-22832143D01*
X70206429Y-22903571D01*
X69849286Y-22903571D01*
X69706429Y-22832143D01*
X69635000Y-22760714D01*
X70920714Y-21403571D02*
X71420714Y-22903571D01*
X71920714Y-21403571D01*
X55923571Y-72048571D02*
X55923571Y-72905714D01*
X55923571Y-72477142D02*
X54423571Y-72477142D01*
X54637857Y-72619999D01*
X54780714Y-72762857D01*
X54852143Y-72905714D01*
X54566429Y-71477143D02*
X54495000Y-71405714D01*
X54423571Y-71262857D01*
X54423571Y-70905714D01*
X54495000Y-70762857D01*
X54566429Y-70691428D01*
X54709286Y-70620000D01*
X54852143Y-70620000D01*
X55066429Y-70691428D01*
X55923571Y-71548571D01*
X55923571Y-70620000D01*
X54423571Y-70191429D02*
X55923571Y-69691429D01*
X54423571Y-69191429D01*
X54423571Y-56165713D02*
X54423571Y-56879999D01*
X55137857Y-56951428D01*
X55066429Y-56879999D01*
X54995000Y-56737142D01*
X54995000Y-56379999D01*
X55066429Y-56237142D01*
X55137857Y-56165713D01*
X55280714Y-56094285D01*
X55637857Y-56094285D01*
X55780714Y-56165713D01*
X55852143Y-56237142D01*
X55923571Y-56379999D01*
X55923571Y-56737142D01*
X55852143Y-56879999D01*
X55780714Y-56951428D01*
X54423571Y-55665714D02*
X55923571Y-55165714D01*
X54423571Y-54665714D01*
X54423571Y-42497142D02*
X54423571Y-41568571D01*
X54995000Y-42068571D01*
X54995000Y-41854285D01*
X55066429Y-41711428D01*
X55137857Y-41639999D01*
X55280714Y-41568571D01*
X55637857Y-41568571D01*
X55780714Y-41639999D01*
X55852143Y-41711428D01*
X55923571Y-41854285D01*
X55923571Y-42282857D01*
X55852143Y-42425714D01*
X55780714Y-42497142D01*
X54423571Y-41140000D02*
X55923571Y-40640000D01*
X54423571Y-40140000D01*
X54423571Y-39782857D02*
X54423571Y-38854286D01*
X54995000Y-39354286D01*
X54995000Y-39140000D01*
X55066429Y-38997143D01*
X55137857Y-38925714D01*
X55280714Y-38854286D01*
X55637857Y-38854286D01*
X55780714Y-38925714D01*
X55852143Y-38997143D01*
X55923571Y-39140000D01*
X55923571Y-39568572D01*
X55852143Y-39711429D01*
X55780714Y-39782857D01*
X105727428Y-27762857D02*
X104584571Y-27762857D01*
X105156000Y-27191429D02*
X105156000Y-28334286D01*
X105727428Y-25362857D02*
X104584571Y-25362857D01*
X105727428Y-73482857D02*
X104584571Y-73482857D01*
X105156000Y-72911429D02*
X105156000Y-74054286D01*
X105727428Y-71082857D02*
X104584571Y-71082857D01*
D12*
X94440667Y-75598381D02*
X94440667Y-74598381D01*
X94821620Y-74598381D01*
X94916858Y-74646000D01*
X94964477Y-74693619D01*
X95012096Y-74788857D01*
X95012096Y-74931714D01*
X94964477Y-75026952D01*
X94916858Y-75074571D01*
X94821620Y-75122190D01*
X94440667Y-75122190D01*
X95964477Y-75598381D02*
X95393048Y-75598381D01*
X95678762Y-75598381D02*
X95678762Y-74598381D01*
X95583524Y-74741238D01*
X95488286Y-74836476D01*
X95393048Y-74884095D01*
X96440667Y-75550762D02*
X96440667Y-75598381D01*
X96393048Y-75693619D01*
X96345429Y-75741238D01*
X97631143Y-75598381D02*
X97631143Y-74598381D01*
X98012096Y-74598381D01*
X98107334Y-74646000D01*
X98154953Y-74693619D01*
X98202572Y-74788857D01*
X98202572Y-74931714D01*
X98154953Y-75026952D01*
X98107334Y-75074571D01*
X98012096Y-75122190D01*
X97631143Y-75122190D01*
X98535905Y-74598381D02*
X99154953Y-74598381D01*
X98821619Y-74979333D01*
X98964477Y-74979333D01*
X99059715Y-75026952D01*
X99107334Y-75074571D01*
X99154953Y-75169810D01*
X99154953Y-75407905D01*
X99107334Y-75503143D01*
X99059715Y-75550762D01*
X98964477Y-75598381D01*
X98678762Y-75598381D01*
X98583524Y-75550762D01*
X98535905Y-75503143D01*
X94869239Y-77103143D02*
X94821620Y-77150762D01*
X94678763Y-77198381D01*
X94583525Y-77198381D01*
X94440667Y-77150762D01*
X94345429Y-77055524D01*
X94297810Y-76960286D01*
X94250191Y-76769810D01*
X94250191Y-76626952D01*
X94297810Y-76436476D01*
X94345429Y-76341238D01*
X94440667Y-76246000D01*
X94583525Y-76198381D01*
X94678763Y-76198381D01*
X94821620Y-76246000D01*
X94869239Y-76293619D01*
X95488286Y-76198381D02*
X95678763Y-76198381D01*
X95774001Y-76246000D01*
X95869239Y-76341238D01*
X95916858Y-76531714D01*
X95916858Y-76865048D01*
X95869239Y-77055524D01*
X95774001Y-77150762D01*
X95678763Y-77198381D01*
X95488286Y-77198381D01*
X95393048Y-77150762D01*
X95297810Y-77055524D01*
X95250191Y-76865048D01*
X95250191Y-76531714D01*
X95297810Y-76341238D01*
X95393048Y-76246000D01*
X95488286Y-76198381D01*
X96345429Y-77198381D02*
X96345429Y-76198381D01*
X96916858Y-77198381D01*
X96916858Y-76198381D01*
X97726382Y-76674571D02*
X97393048Y-76674571D01*
X97393048Y-77198381D02*
X97393048Y-76198381D01*
X97869239Y-76198381D01*
X98250191Y-77198381D02*
X98250191Y-76198381D01*
X99250191Y-76246000D02*
X99154953Y-76198381D01*
X99012096Y-76198381D01*
X98869238Y-76246000D01*
X98774000Y-76341238D01*
X98726381Y-76436476D01*
X98678762Y-76626952D01*
X98678762Y-76769810D01*
X98726381Y-76960286D01*
X98774000Y-77055524D01*
X98869238Y-77150762D01*
X99012096Y-77198381D01*
X99107334Y-77198381D01*
X99250191Y-77150762D01*
X99297810Y-77103143D01*
X99297810Y-76769810D01*
X99107334Y-76769810D01*
X92710000Y-77216000D02*
G75*
G03X92710000Y-77216000I-254000J0D01*
G01*
X91694000Y-77216000D02*
G75*
G03X91694000Y-77216000I-254000J0D01*
G01*
X92710000Y-75692000D02*
G75*
G03X92710000Y-75692000I-254000J0D01*
G01*
X91694000Y-75692000D02*
G75*
G03X91694000Y-75692000I-254000J0D01*
G01*
X92710000Y-74168000D02*
G75*
G03X92710000Y-74168000I-254000J0D01*
G01*
X91694000Y-74168000D02*
G75*
G03X91694000Y-74168000I-254000J0D01*
G01*
X93472000Y-73406000D02*
X90424000Y-73406000D01*
X93472000Y-78232000D02*
X93472000Y-73406000D01*
X90424000Y-78232000D02*
X93472000Y-78232000D01*
X90424000Y-73406000D02*
X90424000Y-78232000D01*
X87153905Y-73798381D02*
X87772953Y-73798381D01*
X87439619Y-74179333D01*
X87582477Y-74179333D01*
X87677715Y-74226952D01*
X87725334Y-74274571D01*
X87772953Y-74369810D01*
X87772953Y-74607905D01*
X87725334Y-74703143D01*
X87677715Y-74750762D01*
X87582477Y-74798381D01*
X87296762Y-74798381D01*
X87201524Y-74750762D01*
X87153905Y-74703143D01*
X88058667Y-73798381D02*
X88392000Y-74798381D01*
X88725334Y-73798381D01*
X88963429Y-73798381D02*
X89582477Y-73798381D01*
X89249143Y-74179333D01*
X89392001Y-74179333D01*
X89487239Y-74226952D01*
X89534858Y-74274571D01*
X89582477Y-74369810D01*
X89582477Y-74607905D01*
X89534858Y-74703143D01*
X89487239Y-74750762D01*
X89392001Y-74798381D01*
X89106286Y-74798381D01*
X89011048Y-74750762D01*
X88963429Y-74703143D01*
X88201524Y-75398381D02*
X87725333Y-75398381D01*
X87677714Y-75874571D01*
X87725333Y-75826952D01*
X87820571Y-75779333D01*
X88058667Y-75779333D01*
X88153905Y-75826952D01*
X88201524Y-75874571D01*
X88249143Y-75969810D01*
X88249143Y-76207905D01*
X88201524Y-76303143D01*
X88153905Y-76350762D01*
X88058667Y-76398381D01*
X87820571Y-76398381D01*
X87725333Y-76350762D01*
X87677714Y-76303143D01*
X88534857Y-75398381D02*
X88868190Y-76398381D01*
X89201524Y-75398381D01*
X87772953Y-77998381D02*
X87201524Y-77998381D01*
X87487238Y-77998381D02*
X87487238Y-76998381D01*
X87392000Y-77141238D01*
X87296762Y-77236476D01*
X87201524Y-77284095D01*
X88153905Y-77093619D02*
X88201524Y-77046000D01*
X88296762Y-76998381D01*
X88534858Y-76998381D01*
X88630096Y-77046000D01*
X88677715Y-77093619D01*
X88725334Y-77188857D01*
X88725334Y-77284095D01*
X88677715Y-77426952D01*
X88106286Y-77998381D01*
X88725334Y-77998381D01*
X89011048Y-76998381D02*
X89344381Y-77998381D01*
X89677715Y-76998381D01*
D13*
X60769500Y-23439120D02*
X60769500Y-32440880D01*
X57269380Y-23439120D02*
X57269380Y-32440880D01*
X57269380Y-32440880D02*
X71770240Y-32440880D01*
X71770240Y-32440880D02*
X71770240Y-23439120D01*
X71770240Y-23439120D02*
X57269380Y-23439120D01*
X99822000Y-40386000D02*
X94742000Y-40386000D01*
X94742000Y-40386000D02*
X94742000Y-37846000D01*
X94742000Y-37846000D02*
X99822000Y-37846000D01*
X99822000Y-37846000D02*
X99822000Y-40386000D01*
X98186240Y-43971160D02*
X98186240Y-43922900D01*
X97485200Y-41172180D02*
X98186240Y-41172180D01*
X98186240Y-41172180D02*
X98186240Y-41421100D01*
X98186240Y-43971160D02*
X98186240Y-44171820D01*
X98186240Y-44171820D02*
X97485200Y-44171820D01*
X77302000Y-38794000D02*
X72304000Y-38794000D01*
X77294000Y-38934000D02*
X74957000Y-38934000D01*
X74649000Y-38934000D02*
X72312000Y-38934000D01*
X77278000Y-39074000D02*
X75276000Y-39074000D01*
X74330000Y-39074000D02*
X72328000Y-39074000D01*
X77254000Y-39214000D02*
X75423000Y-39214000D01*
X74183000Y-39214000D02*
X72352000Y-39214000D01*
X77221000Y-39354000D02*
X75515000Y-39354000D01*
X74091000Y-39354000D02*
X72385000Y-39354000D01*
X77180000Y-39494000D02*
X75571000Y-39494000D01*
X74035000Y-39494000D02*
X72426000Y-39494000D01*
X77130000Y-39634000D02*
X75598000Y-39634000D01*
X74008000Y-39634000D02*
X72476000Y-39634000D01*
X77069000Y-39774000D02*
X75601000Y-39774000D01*
X74005000Y-39774000D02*
X72537000Y-39774000D01*
X76999000Y-39914000D02*
X75579000Y-39914000D01*
X74027000Y-39914000D02*
X72607000Y-39914000D01*
X76917000Y-40054000D02*
X75529000Y-40054000D01*
X74077000Y-40054000D02*
X72689000Y-40054000D01*
X76822000Y-40194000D02*
X75447000Y-40194000D01*
X74159000Y-40194000D02*
X72784000Y-40194000D01*
X76711000Y-40334000D02*
X75315000Y-40334000D01*
X74291000Y-40334000D02*
X72895000Y-40334000D01*
X76583000Y-40474000D02*
X75068000Y-40474000D01*
X74538000Y-40474000D02*
X73023000Y-40474000D01*
X76434000Y-40614000D02*
X73172000Y-40614000D01*
X76255000Y-40754000D02*
X73351000Y-40754000D01*
X76036000Y-40894000D02*
X73570000Y-40894000D01*
X75747000Y-41034000D02*
X73859000Y-41034000D01*
X75275000Y-41174000D02*
X74331000Y-41174000D01*
X75603000Y-39719000D02*
G75*
G03X75603000Y-39719000I-800000J0D01*
G01*
X77340500Y-38719000D02*
G75*
G03X77340500Y-38719000I-2537500J0D01*
G01*
X77302000Y-55304000D02*
X72304000Y-55304000D01*
X77294000Y-55444000D02*
X74957000Y-55444000D01*
X74649000Y-55444000D02*
X72312000Y-55444000D01*
X77278000Y-55584000D02*
X75276000Y-55584000D01*
X74330000Y-55584000D02*
X72328000Y-55584000D01*
X77254000Y-55724000D02*
X75423000Y-55724000D01*
X74183000Y-55724000D02*
X72352000Y-55724000D01*
X77221000Y-55864000D02*
X75515000Y-55864000D01*
X74091000Y-55864000D02*
X72385000Y-55864000D01*
X77180000Y-56004000D02*
X75571000Y-56004000D01*
X74035000Y-56004000D02*
X72426000Y-56004000D01*
X77130000Y-56144000D02*
X75598000Y-56144000D01*
X74008000Y-56144000D02*
X72476000Y-56144000D01*
X77069000Y-56284000D02*
X75601000Y-56284000D01*
X74005000Y-56284000D02*
X72537000Y-56284000D01*
X76999000Y-56424000D02*
X75579000Y-56424000D01*
X74027000Y-56424000D02*
X72607000Y-56424000D01*
X76917000Y-56564000D02*
X75529000Y-56564000D01*
X74077000Y-56564000D02*
X72689000Y-56564000D01*
X76822000Y-56704000D02*
X75447000Y-56704000D01*
X74159000Y-56704000D02*
X72784000Y-56704000D01*
X76711000Y-56844000D02*
X75315000Y-56844000D01*
X74291000Y-56844000D02*
X72895000Y-56844000D01*
X76583000Y-56984000D02*
X75068000Y-56984000D01*
X74538000Y-56984000D02*
X73023000Y-56984000D01*
X76434000Y-57124000D02*
X73172000Y-57124000D01*
X76255000Y-57264000D02*
X73351000Y-57264000D01*
X76036000Y-57404000D02*
X73570000Y-57404000D01*
X75747000Y-57544000D02*
X73859000Y-57544000D01*
X75275000Y-57684000D02*
X74331000Y-57684000D01*
X75603000Y-56229000D02*
G75*
G03X75603000Y-56229000I-800000J0D01*
G01*
X77340500Y-55229000D02*
G75*
G03X77340500Y-55229000I-2537500J0D01*
G01*
X77175000Y-72195000D02*
X72177000Y-72195000D01*
X77167000Y-72335000D02*
X74830000Y-72335000D01*
X74522000Y-72335000D02*
X72185000Y-72335000D01*
X77151000Y-72475000D02*
X75149000Y-72475000D01*
X74203000Y-72475000D02*
X72201000Y-72475000D01*
X77127000Y-72615000D02*
X75296000Y-72615000D01*
X74056000Y-72615000D02*
X72225000Y-72615000D01*
X77094000Y-72755000D02*
X75388000Y-72755000D01*
X73964000Y-72755000D02*
X72258000Y-72755000D01*
X77053000Y-72895000D02*
X75444000Y-72895000D01*
X73908000Y-72895000D02*
X72299000Y-72895000D01*
X77003000Y-73035000D02*
X75471000Y-73035000D01*
X73881000Y-73035000D02*
X72349000Y-73035000D01*
X76942000Y-73175000D02*
X75474000Y-73175000D01*
X73878000Y-73175000D02*
X72410000Y-73175000D01*
X76872000Y-73315000D02*
X75452000Y-73315000D01*
X73900000Y-73315000D02*
X72480000Y-73315000D01*
X76790000Y-73455000D02*
X75402000Y-73455000D01*
X73950000Y-73455000D02*
X72562000Y-73455000D01*
X76695000Y-73595000D02*
X75320000Y-73595000D01*
X74032000Y-73595000D02*
X72657000Y-73595000D01*
X76584000Y-73735000D02*
X75188000Y-73735000D01*
X74164000Y-73735000D02*
X72768000Y-73735000D01*
X76456000Y-73875000D02*
X74941000Y-73875000D01*
X74411000Y-73875000D02*
X72896000Y-73875000D01*
X76307000Y-74015000D02*
X73045000Y-74015000D01*
X76128000Y-74155000D02*
X73224000Y-74155000D01*
X75909000Y-74295000D02*
X73443000Y-74295000D01*
X75620000Y-74435000D02*
X73732000Y-74435000D01*
X75148000Y-74575000D02*
X74204000Y-74575000D01*
X75476000Y-73120000D02*
G75*
G03X75476000Y-73120000I-800000J0D01*
G01*
X77213500Y-72120000D02*
G75*
G03X77213500Y-72120000I-2537500J0D01*
G01*
X91174000Y-34112000D02*
X91174000Y-31412000D01*
X89674000Y-34112000D02*
X89674000Y-31412000D01*
X90574000Y-32612000D02*
X90324000Y-32612000D01*
X90324000Y-32612000D02*
X90474000Y-32762000D01*
X90074000Y-32862000D02*
X90774000Y-32862000D01*
X90424000Y-32512000D02*
X90424000Y-32162000D01*
X90424000Y-32862000D02*
X90074000Y-32512000D01*
X90074000Y-32512000D02*
X90774000Y-32512000D01*
X90774000Y-32512000D02*
X90424000Y-32862000D01*
X91174000Y-50368000D02*
X91174000Y-47668000D01*
X89674000Y-50368000D02*
X89674000Y-47668000D01*
X90574000Y-48868000D02*
X90324000Y-48868000D01*
X90324000Y-48868000D02*
X90474000Y-49018000D01*
X90074000Y-49118000D02*
X90774000Y-49118000D01*
X90424000Y-48768000D02*
X90424000Y-48418000D01*
X90424000Y-49118000D02*
X90074000Y-48768000D01*
X90074000Y-48768000D02*
X90774000Y-48768000D01*
X90774000Y-48768000D02*
X90424000Y-49118000D01*
X91174000Y-67132000D02*
X91174000Y-64432000D01*
X89674000Y-67132000D02*
X89674000Y-64432000D01*
X90574000Y-65632000D02*
X90324000Y-65632000D01*
X90324000Y-65632000D02*
X90474000Y-65782000D01*
X90074000Y-65882000D02*
X90774000Y-65882000D01*
X90424000Y-65532000D02*
X90424000Y-65182000D01*
X90424000Y-65882000D02*
X90074000Y-65532000D01*
X90074000Y-65532000D02*
X90774000Y-65532000D01*
X90774000Y-65532000D02*
X90424000Y-65882000D01*
X102350000Y-66624000D02*
X102350000Y-63924000D01*
X100850000Y-66624000D02*
X100850000Y-63924000D01*
X101750000Y-65124000D02*
X101500000Y-65124000D01*
X101500000Y-65124000D02*
X101650000Y-65274000D01*
X101250000Y-65374000D02*
X101950000Y-65374000D01*
X101600000Y-65024000D02*
X101600000Y-64674000D01*
X101600000Y-65374000D02*
X101250000Y-65024000D01*
X101250000Y-65024000D02*
X101950000Y-65024000D01*
X101950000Y-65024000D02*
X101600000Y-65374000D01*
X100850000Y-31928000D02*
X100850000Y-34628000D01*
X102350000Y-31928000D02*
X102350000Y-34628000D01*
X101450000Y-33428000D02*
X101700000Y-33428000D01*
X101700000Y-33428000D02*
X101550000Y-33278000D01*
X101950000Y-33178000D02*
X101250000Y-33178000D01*
X101600000Y-33528000D02*
X101600000Y-33878000D01*
X101600000Y-33178000D02*
X101950000Y-33528000D01*
X101950000Y-33528000D02*
X101250000Y-33528000D01*
X101250000Y-33528000D02*
X101600000Y-33178000D01*
X94742000Y-64008000D02*
X94742000Y-69088000D01*
X94462000Y-61188000D02*
X96012000Y-61188000D01*
X97282000Y-61468000D02*
X97282000Y-64008000D01*
X97282000Y-64008000D02*
X94742000Y-64008000D01*
X94742000Y-69088000D02*
X99822000Y-69088000D01*
X99822000Y-69088000D02*
X99822000Y-64008000D01*
X94462000Y-61188000D02*
X94462000Y-62738000D01*
X99822000Y-61468000D02*
X97282000Y-61468000D01*
X99822000Y-64008000D02*
X99822000Y-61468000D01*
X101346000Y-72390000D02*
X101346000Y-69850000D01*
X101066000Y-75210000D02*
X101066000Y-73660000D01*
X101346000Y-72390000D02*
X103886000Y-72390000D01*
X104166000Y-73660000D02*
X104166000Y-75210000D01*
X104166000Y-75210000D02*
X101066000Y-75210000D01*
X103886000Y-72390000D02*
X103886000Y-69850000D01*
X103886000Y-69850000D02*
X101346000Y-69850000D01*
X94742000Y-32258000D02*
X94742000Y-37338000D01*
X94462000Y-29438000D02*
X96012000Y-29438000D01*
X97282000Y-29718000D02*
X97282000Y-32258000D01*
X97282000Y-32258000D02*
X94742000Y-32258000D01*
X94742000Y-37338000D02*
X99822000Y-37338000D01*
X99822000Y-37338000D02*
X99822000Y-32258000D01*
X94462000Y-29438000D02*
X94462000Y-30988000D01*
X99822000Y-29718000D02*
X97282000Y-29718000D01*
X99822000Y-32258000D02*
X99822000Y-29718000D01*
X101346000Y-26670000D02*
X101346000Y-24130000D01*
X101066000Y-29490000D02*
X101066000Y-27940000D01*
X101346000Y-26670000D02*
X103886000Y-26670000D01*
X104166000Y-27940000D02*
X104166000Y-29490000D01*
X104166000Y-29490000D02*
X101066000Y-29490000D01*
X103886000Y-26670000D02*
X103886000Y-24130000D01*
X103886000Y-24130000D02*
X101346000Y-24130000D01*
X98186240Y-57179160D02*
X98186240Y-57130900D01*
X97485200Y-54380180D02*
X98186240Y-54380180D01*
X98186240Y-54380180D02*
X98186240Y-54629100D01*
X98186240Y-57179160D02*
X98186240Y-57379820D01*
X98186240Y-57379820D02*
X97485200Y-57379820D01*
X92821760Y-54580840D02*
X92821760Y-54629100D01*
X93522800Y-57379820D02*
X92821760Y-57379820D01*
X92821760Y-57379820D02*
X92821760Y-57130900D01*
X92821760Y-54580840D02*
X92821760Y-54380180D01*
X92821760Y-54380180D02*
X93522800Y-54380180D01*
X92821760Y-41372840D02*
X92821760Y-41421100D01*
X93522800Y-44171820D02*
X92821760Y-44171820D01*
X92821760Y-44171820D02*
X92821760Y-43922900D01*
X92821760Y-41372840D02*
X92821760Y-41172180D01*
X92821760Y-41172180D02*
X93522800Y-41172180D01*
X80518000Y-31877000D02*
X80518000Y-26797000D01*
X80518000Y-26797000D02*
X83058000Y-26797000D01*
X83058000Y-26797000D02*
X83058000Y-31877000D01*
X83058000Y-31877000D02*
X80518000Y-31877000D01*
X86106000Y-26797000D02*
X86106000Y-31877000D01*
X86106000Y-31877000D02*
X83566000Y-31877000D01*
X83566000Y-31877000D02*
X83566000Y-26797000D01*
X83566000Y-26797000D02*
X86106000Y-26797000D01*
X80518000Y-48514000D02*
X80518000Y-43434000D01*
X80518000Y-43434000D02*
X83058000Y-43434000D01*
X83058000Y-43434000D02*
X83058000Y-48514000D01*
X83058000Y-48514000D02*
X80518000Y-48514000D01*
X86106000Y-43434000D02*
X86106000Y-48514000D01*
X86106000Y-48514000D02*
X83566000Y-48514000D01*
X83566000Y-48514000D02*
X83566000Y-43434000D01*
X83566000Y-43434000D02*
X86106000Y-43434000D01*
X80518000Y-65278000D02*
X80518000Y-60198000D01*
X80518000Y-60198000D02*
X83058000Y-60198000D01*
X83058000Y-60198000D02*
X83058000Y-65278000D01*
X83058000Y-65278000D02*
X80518000Y-65278000D01*
X86106000Y-60198000D02*
X86106000Y-65278000D01*
X86106000Y-65278000D02*
X83566000Y-65278000D01*
X83566000Y-65278000D02*
X83566000Y-60198000D01*
X83566000Y-60198000D02*
X86106000Y-60198000D01*
X86614000Y-31877000D02*
X86614000Y-26797000D01*
X86614000Y-26797000D02*
X89154000Y-26797000D01*
X89154000Y-26797000D02*
X89154000Y-31877000D01*
X89154000Y-31877000D02*
X86614000Y-31877000D01*
X86614000Y-48514000D02*
X86614000Y-43434000D01*
X86614000Y-43434000D02*
X89154000Y-43434000D01*
X89154000Y-43434000D02*
X89154000Y-48514000D01*
X89154000Y-48514000D02*
X86614000Y-48514000D01*
X86614000Y-65278000D02*
X86614000Y-60198000D01*
X86614000Y-60198000D02*
X89154000Y-60198000D01*
X89154000Y-60198000D02*
X89154000Y-65278000D01*
X89154000Y-65278000D02*
X86614000Y-65278000D01*
X94742000Y-58166000D02*
X99822000Y-58166000D01*
X99822000Y-58166000D02*
X99822000Y-60706000D01*
X99822000Y-60706000D02*
X94742000Y-60706000D01*
X94742000Y-60706000D02*
X94742000Y-58166000D01*
X99822000Y-53594000D02*
X94742000Y-53594000D01*
X94742000Y-53594000D02*
X94742000Y-51054000D01*
X94742000Y-51054000D02*
X99822000Y-51054000D01*
X99822000Y-51054000D02*
X99822000Y-53594000D01*
X94742000Y-44704000D02*
X99822000Y-44704000D01*
X99822000Y-44704000D02*
X99822000Y-47244000D01*
X99822000Y-47244000D02*
X94742000Y-47244000D01*
X94742000Y-47244000D02*
X94742000Y-44704000D01*
X75819000Y-25654000D02*
X79248000Y-25654000D01*
X75819000Y-35306000D02*
X79248000Y-35306000D01*
X74676000Y-25146000D02*
X74676000Y-35814000D01*
X75692000Y-28702000D02*
X74422000Y-28702000D01*
X75692000Y-32258000D02*
X74422000Y-32258000D01*
X75819000Y-35814000D02*
X75819000Y-25146000D01*
X79248000Y-25146000D02*
X79248000Y-35814000D01*
X74422000Y-35814000D02*
X79248000Y-35814000D01*
X74422000Y-25146000D02*
X79248000Y-25146000D01*
X74422000Y-25146000D02*
X74422000Y-35814000D01*
X75819000Y-42164000D02*
X79248000Y-42164000D01*
X75819000Y-51816000D02*
X79248000Y-51816000D01*
X74676000Y-41656000D02*
X74676000Y-52324000D01*
X75692000Y-45212000D02*
X74422000Y-45212000D01*
X75692000Y-48768000D02*
X74422000Y-48768000D01*
X75819000Y-52324000D02*
X75819000Y-41656000D01*
X79248000Y-41656000D02*
X79248000Y-52324000D01*
X74422000Y-52324000D02*
X79248000Y-52324000D01*
X74422000Y-41656000D02*
X79248000Y-41656000D01*
X74422000Y-41656000D02*
X74422000Y-52324000D01*
X75819000Y-58674000D02*
X79248000Y-58674000D01*
X75819000Y-68326000D02*
X79248000Y-68326000D01*
X74676000Y-58166000D02*
X74676000Y-68834000D01*
X75692000Y-61722000D02*
X74422000Y-61722000D01*
X75692000Y-65278000D02*
X74422000Y-65278000D01*
X75819000Y-68834000D02*
X75819000Y-58166000D01*
X79248000Y-58166000D02*
X79248000Y-68834000D01*
X74422000Y-68834000D02*
X79248000Y-68834000D01*
X74422000Y-58166000D02*
X79248000Y-58166000D01*
X74422000Y-58166000D02*
X74422000Y-68834000D01*
X66150000Y-40640000D02*
G75*
G03X66150000Y-40640000I-2650000J0D01*
G01*
X57000000Y-34140000D02*
X70000000Y-34140000D01*
X70000000Y-34140000D02*
X70000000Y-47140000D01*
X70000000Y-47140000D02*
X57000000Y-47140000D01*
X57000000Y-47140000D02*
X57000000Y-34140000D01*
X66150000Y-55880000D02*
G75*
G03X66150000Y-55880000I-2650000J0D01*
G01*
X57000000Y-49380000D02*
X70000000Y-49380000D01*
X70000000Y-49380000D02*
X70000000Y-62380000D01*
X70000000Y-62380000D02*
X57000000Y-62380000D01*
X57000000Y-62380000D02*
X57000000Y-49380000D01*
X66150000Y-71120000D02*
G75*
G03X66150000Y-71120000I-2650000J0D01*
G01*
X57000000Y-64620000D02*
X70000000Y-64620000D01*
X70000000Y-64620000D02*
X70000000Y-77620000D01*
X70000000Y-77620000D02*
X57000000Y-77620000D01*
X57000000Y-77620000D02*
X57000000Y-64620000D01*
X86461000Y-37647000D02*
X80163000Y-37647000D01*
X86455000Y-37787000D02*
X80169000Y-37787000D01*
X86442000Y-37927000D02*
X83758000Y-37927000D01*
X82866000Y-37927000D02*
X80182000Y-37927000D01*
X86423000Y-38067000D02*
X83968000Y-38067000D01*
X82656000Y-38067000D02*
X80201000Y-38067000D01*
X86397000Y-38207000D02*
X84101000Y-38207000D01*
X82523000Y-38207000D02*
X80227000Y-38207000D01*
X86365000Y-38347000D02*
X84192000Y-38347000D01*
X82432000Y-38347000D02*
X80259000Y-38347000D01*
X86326000Y-38487000D02*
X84254000Y-38487000D01*
X82370000Y-38487000D02*
X80298000Y-38487000D01*
X86280000Y-38627000D02*
X84293000Y-38627000D01*
X82331000Y-38627000D02*
X80344000Y-38627000D01*
X86227000Y-38767000D02*
X84310000Y-38767000D01*
X82314000Y-38767000D02*
X80397000Y-38767000D01*
X86165000Y-38907000D02*
X84308000Y-38907000D01*
X82316000Y-38907000D02*
X80459000Y-38907000D01*
X86095000Y-39047000D02*
X84286000Y-39047000D01*
X82338000Y-39047000D02*
X80529000Y-39047000D01*
X86016000Y-39187000D02*
X84243000Y-39187000D01*
X82381000Y-39187000D02*
X80608000Y-39187000D01*
X85928000Y-39327000D02*
X84175000Y-39327000D01*
X82449000Y-39327000D02*
X80696000Y-39327000D01*
X85828000Y-39467000D02*
X84076000Y-39467000D01*
X82548000Y-39467000D02*
X80796000Y-39467000D01*
X85716000Y-39607000D02*
X83931000Y-39607000D01*
X82693000Y-39607000D02*
X80908000Y-39607000D01*
X85591000Y-39747000D02*
X83692000Y-39747000D01*
X82932000Y-39747000D02*
X81033000Y-39747000D01*
X85448000Y-39887000D02*
X81176000Y-39887000D01*
X85286000Y-40027000D02*
X81338000Y-40027000D01*
X85098000Y-40167000D02*
X81526000Y-40167000D01*
X84875000Y-40307000D02*
X81749000Y-40307000D01*
X84599000Y-40447000D02*
X82025000Y-40447000D01*
X84224000Y-40587000D02*
X82400000Y-40587000D01*
X84312000Y-38822000D02*
G75*
G03X84312000Y-38822000I-1000000J0D01*
G01*
X86499500Y-37572000D02*
G75*
G03X86499500Y-37572000I-3187500J0D01*
G01*
X86461000Y-54411000D02*
X80163000Y-54411000D01*
X86455000Y-54551000D02*
X80169000Y-54551000D01*
X86442000Y-54691000D02*
X83758000Y-54691000D01*
X82866000Y-54691000D02*
X80182000Y-54691000D01*
X86423000Y-54831000D02*
X83968000Y-54831000D01*
X82656000Y-54831000D02*
X80201000Y-54831000D01*
X86397000Y-54971000D02*
X84101000Y-54971000D01*
X82523000Y-54971000D02*
X80227000Y-54971000D01*
X86365000Y-55111000D02*
X84192000Y-55111000D01*
X82432000Y-55111000D02*
X80259000Y-55111000D01*
X86326000Y-55251000D02*
X84254000Y-55251000D01*
X82370000Y-55251000D02*
X80298000Y-55251000D01*
X86280000Y-55391000D02*
X84293000Y-55391000D01*
X82331000Y-55391000D02*
X80344000Y-55391000D01*
X86227000Y-55531000D02*
X84310000Y-55531000D01*
X82314000Y-55531000D02*
X80397000Y-55531000D01*
X86165000Y-55671000D02*
X84308000Y-55671000D01*
X82316000Y-55671000D02*
X80459000Y-55671000D01*
X86095000Y-55811000D02*
X84286000Y-55811000D01*
X82338000Y-55811000D02*
X80529000Y-55811000D01*
X86016000Y-55951000D02*
X84243000Y-55951000D01*
X82381000Y-55951000D02*
X80608000Y-55951000D01*
X85928000Y-56091000D02*
X84175000Y-56091000D01*
X82449000Y-56091000D02*
X80696000Y-56091000D01*
X85828000Y-56231000D02*
X84076000Y-56231000D01*
X82548000Y-56231000D02*
X80796000Y-56231000D01*
X85716000Y-56371000D02*
X83931000Y-56371000D01*
X82693000Y-56371000D02*
X80908000Y-56371000D01*
X85591000Y-56511000D02*
X83692000Y-56511000D01*
X82932000Y-56511000D02*
X81033000Y-56511000D01*
X85448000Y-56651000D02*
X81176000Y-56651000D01*
X85286000Y-56791000D02*
X81338000Y-56791000D01*
X85098000Y-56931000D02*
X81526000Y-56931000D01*
X84875000Y-57071000D02*
X81749000Y-57071000D01*
X84599000Y-57211000D02*
X82025000Y-57211000D01*
X84224000Y-57351000D02*
X82400000Y-57351000D01*
X84312000Y-55586000D02*
G75*
G03X84312000Y-55586000I-1000000J0D01*
G01*
X86499500Y-54336000D02*
G75*
G03X86499500Y-54336000I-3187500J0D01*
G01*
X86461000Y-71048000D02*
X80163000Y-71048000D01*
X86455000Y-71188000D02*
X80169000Y-71188000D01*
X86442000Y-71328000D02*
X83758000Y-71328000D01*
X82866000Y-71328000D02*
X80182000Y-71328000D01*
X86423000Y-71468000D02*
X83968000Y-71468000D01*
X82656000Y-71468000D02*
X80201000Y-71468000D01*
X86397000Y-71608000D02*
X84101000Y-71608000D01*
X82523000Y-71608000D02*
X80227000Y-71608000D01*
X86365000Y-71748000D02*
X84192000Y-71748000D01*
X82432000Y-71748000D02*
X80259000Y-71748000D01*
X86326000Y-71888000D02*
X84254000Y-71888000D01*
X82370000Y-71888000D02*
X80298000Y-71888000D01*
X86280000Y-72028000D02*
X84293000Y-72028000D01*
X82331000Y-72028000D02*
X80344000Y-72028000D01*
X86227000Y-72168000D02*
X84310000Y-72168000D01*
X82314000Y-72168000D02*
X80397000Y-72168000D01*
X86165000Y-72308000D02*
X84308000Y-72308000D01*
X82316000Y-72308000D02*
X80459000Y-72308000D01*
X86095000Y-72448000D02*
X84286000Y-72448000D01*
X82338000Y-72448000D02*
X80529000Y-72448000D01*
X86016000Y-72588000D02*
X84243000Y-72588000D01*
X82381000Y-72588000D02*
X80608000Y-72588000D01*
X85928000Y-72728000D02*
X84175000Y-72728000D01*
X82449000Y-72728000D02*
X80696000Y-72728000D01*
X85828000Y-72868000D02*
X84076000Y-72868000D01*
X82548000Y-72868000D02*
X80796000Y-72868000D01*
X85716000Y-73008000D02*
X83931000Y-73008000D01*
X82693000Y-73008000D02*
X80908000Y-73008000D01*
X85591000Y-73148000D02*
X83692000Y-73148000D01*
X82932000Y-73148000D02*
X81033000Y-73148000D01*
X85448000Y-73288000D02*
X81176000Y-73288000D01*
X85286000Y-73428000D02*
X81338000Y-73428000D01*
X85098000Y-73568000D02*
X81526000Y-73568000D01*
X84875000Y-73708000D02*
X81749000Y-73708000D01*
X84599000Y-73848000D02*
X82025000Y-73848000D01*
X84224000Y-73988000D02*
X82400000Y-73988000D01*
X84312000Y-72223000D02*
G75*
G03X84312000Y-72223000I-1000000J0D01*
G01*
X86499500Y-70973000D02*
G75*
G03X86499500Y-70973000I-3187500J0D01*
G01*
X75226183Y-29154285D02*
X75273802Y-29201904D01*
X75321421Y-29344761D01*
X75321421Y-29439999D01*
X75273802Y-29582857D01*
X75178564Y-29678095D01*
X75083326Y-29725714D01*
X74892850Y-29773333D01*
X74749992Y-29773333D01*
X74559516Y-29725714D01*
X74464278Y-29678095D01*
X74369040Y-29582857D01*
X74321421Y-29439999D01*
X74321421Y-29344761D01*
X74369040Y-29201904D01*
X74416659Y-29154285D01*
X74321421Y-28535238D02*
X74321421Y-28344761D01*
X74369040Y-28249523D01*
X74464278Y-28154285D01*
X74654754Y-28106666D01*
X74988088Y-28106666D01*
X75178564Y-28154285D01*
X75273802Y-28249523D01*
X75321421Y-28344761D01*
X75321421Y-28535238D01*
X75273802Y-28630476D01*
X75178564Y-28725714D01*
X74988088Y-28773333D01*
X74654754Y-28773333D01*
X74464278Y-28725714D01*
X74369040Y-28630476D01*
X74321421Y-28535238D01*
X75321421Y-27678095D02*
X74321421Y-27678095D01*
X75321421Y-27106666D01*
X74321421Y-27106666D01*
X75321421Y-26106666D02*
X75321421Y-26678095D01*
X75321421Y-26392381D02*
X74321421Y-26392381D01*
X74464278Y-26487619D01*
X74559516Y-26582857D01*
X74607135Y-26678095D01*
X103576381Y-39758857D02*
X103100190Y-40092191D01*
X103576381Y-40330286D02*
X102576381Y-40330286D01*
X102576381Y-39949333D01*
X102624000Y-39854095D01*
X102671619Y-39806476D01*
X102766857Y-39758857D01*
X102909714Y-39758857D01*
X103004952Y-39806476D01*
X103052571Y-39854095D01*
X103100190Y-39949333D01*
X103100190Y-40330286D01*
X103576381Y-38806476D02*
X103576381Y-39377905D01*
X103576381Y-39092191D02*
X102576381Y-39092191D01*
X102719238Y-39187429D01*
X102814476Y-39282667D01*
X102862095Y-39377905D01*
X102576381Y-38473143D02*
X102576381Y-37854095D01*
X102957333Y-38187429D01*
X102957333Y-38044571D01*
X103004952Y-37949333D01*
X103052571Y-37901714D01*
X103147810Y-37854095D01*
X103385905Y-37854095D01*
X103481143Y-37901714D01*
X103528762Y-37949333D01*
X103576381Y-38044571D01*
X103576381Y-38330286D01*
X103528762Y-38425524D01*
X103481143Y-38473143D01*
X100234762Y-42457619D02*
X100139524Y-42410000D01*
X100044286Y-42314762D01*
X99901429Y-42171905D01*
X99806190Y-42124286D01*
X99710952Y-42124286D01*
X99758571Y-42362381D02*
X99663333Y-42314762D01*
X99568095Y-42219524D01*
X99520476Y-42029048D01*
X99520476Y-41695714D01*
X99568095Y-41505238D01*
X99663333Y-41410000D01*
X99758571Y-41362381D01*
X99949048Y-41362381D01*
X100044286Y-41410000D01*
X100139524Y-41505238D01*
X100187143Y-41695714D01*
X100187143Y-42029048D01*
X100139524Y-42219524D01*
X100044286Y-42314762D01*
X99949048Y-42362381D01*
X99758571Y-42362381D01*
X100520476Y-41362381D02*
X101139524Y-41362381D01*
X100806190Y-41743333D01*
X100949048Y-41743333D01*
X101044286Y-41790952D01*
X101091905Y-41838571D01*
X101139524Y-41933810D01*
X101139524Y-42171905D01*
X101091905Y-42267143D01*
X101044286Y-42314762D01*
X100949048Y-42362381D01*
X100663333Y-42362381D01*
X100568095Y-42314762D01*
X100520476Y-42267143D01*
X73001143Y-41822666D02*
X73048762Y-41870285D01*
X73096381Y-42013142D01*
X73096381Y-42108380D01*
X73048762Y-42251238D01*
X72953524Y-42346476D01*
X72858286Y-42394095D01*
X72667810Y-42441714D01*
X72524952Y-42441714D01*
X72334476Y-42394095D01*
X72239238Y-42346476D01*
X72144000Y-42251238D01*
X72096381Y-42108380D01*
X72096381Y-42013142D01*
X72144000Y-41870285D01*
X72191619Y-41822666D01*
X73096381Y-40870285D02*
X73096381Y-41441714D01*
X73096381Y-41156000D02*
X72096381Y-41156000D01*
X72239238Y-41251238D01*
X72334476Y-41346476D01*
X72382095Y-41441714D01*
X73001143Y-58586666D02*
X73048762Y-58634285D01*
X73096381Y-58777142D01*
X73096381Y-58872380D01*
X73048762Y-59015238D01*
X72953524Y-59110476D01*
X72858286Y-59158095D01*
X72667810Y-59205714D01*
X72524952Y-59205714D01*
X72334476Y-59158095D01*
X72239238Y-59110476D01*
X72144000Y-59015238D01*
X72096381Y-58872380D01*
X72096381Y-58777142D01*
X72144000Y-58634285D01*
X72191619Y-58586666D01*
X72096381Y-58253333D02*
X72096381Y-57634285D01*
X72477333Y-57967619D01*
X72477333Y-57824761D01*
X72524952Y-57729523D01*
X72572571Y-57681904D01*
X72667810Y-57634285D01*
X72905905Y-57634285D01*
X73001143Y-57681904D01*
X73048762Y-57729523D01*
X73096381Y-57824761D01*
X73096381Y-58110476D01*
X73048762Y-58205714D01*
X73001143Y-58253333D01*
X74509334Y-77573143D02*
X74461715Y-77620762D01*
X74318858Y-77668381D01*
X74223620Y-77668381D01*
X74080762Y-77620762D01*
X73985524Y-77525524D01*
X73937905Y-77430286D01*
X73890286Y-77239810D01*
X73890286Y-77096952D01*
X73937905Y-76906476D01*
X73985524Y-76811238D01*
X74080762Y-76716000D01*
X74223620Y-76668381D01*
X74318858Y-76668381D01*
X74461715Y-76716000D01*
X74509334Y-76763619D01*
X75414096Y-76668381D02*
X74937905Y-76668381D01*
X74890286Y-77144571D01*
X74937905Y-77096952D01*
X75033143Y-77049333D01*
X75271239Y-77049333D01*
X75366477Y-77096952D01*
X75414096Y-77144571D01*
X75461715Y-77239810D01*
X75461715Y-77477905D01*
X75414096Y-77573143D01*
X75366477Y-77620762D01*
X75271239Y-77668381D01*
X75033143Y-77668381D01*
X74937905Y-77620762D01*
X74890286Y-77573143D01*
X90876381Y-30456095D02*
X89876381Y-30456095D01*
X89876381Y-30218000D01*
X89924000Y-30075142D01*
X90019238Y-29979904D01*
X90114476Y-29932285D01*
X90304952Y-29884666D01*
X90447810Y-29884666D01*
X90638286Y-29932285D01*
X90733524Y-29979904D01*
X90828762Y-30075142D01*
X90876381Y-30218000D01*
X90876381Y-30456095D01*
X90876381Y-28932285D02*
X90876381Y-29503714D01*
X90876381Y-29218000D02*
X89876381Y-29218000D01*
X90019238Y-29313238D01*
X90114476Y-29408476D01*
X90162095Y-29503714D01*
X90876381Y-46712095D02*
X89876381Y-46712095D01*
X89876381Y-46474000D01*
X89924000Y-46331142D01*
X90019238Y-46235904D01*
X90114476Y-46188285D01*
X90304952Y-46140666D01*
X90447810Y-46140666D01*
X90638286Y-46188285D01*
X90733524Y-46235904D01*
X90828762Y-46331142D01*
X90876381Y-46474000D01*
X90876381Y-46712095D01*
X89971619Y-45759714D02*
X89924000Y-45712095D01*
X89876381Y-45616857D01*
X89876381Y-45378761D01*
X89924000Y-45283523D01*
X89971619Y-45235904D01*
X90066857Y-45188285D01*
X90162095Y-45188285D01*
X90304952Y-45235904D01*
X90876381Y-45807333D01*
X90876381Y-45188285D01*
X90876381Y-63476095D02*
X89876381Y-63476095D01*
X89876381Y-63238000D01*
X89924000Y-63095142D01*
X90019238Y-62999904D01*
X90114476Y-62952285D01*
X90304952Y-62904666D01*
X90447810Y-62904666D01*
X90638286Y-62952285D01*
X90733524Y-62999904D01*
X90828762Y-63095142D01*
X90876381Y-63238000D01*
X90876381Y-63476095D01*
X89876381Y-62571333D02*
X89876381Y-61952285D01*
X90257333Y-62285619D01*
X90257333Y-62142761D01*
X90304952Y-62047523D01*
X90352571Y-61999904D01*
X90447810Y-61952285D01*
X90685905Y-61952285D01*
X90781143Y-61999904D01*
X90828762Y-62047523D01*
X90876381Y-62142761D01*
X90876381Y-62428476D01*
X90828762Y-62523714D01*
X90781143Y-62571333D01*
X102052381Y-62968095D02*
X101052381Y-62968095D01*
X101052381Y-62730000D01*
X101100000Y-62587142D01*
X101195238Y-62491904D01*
X101290476Y-62444285D01*
X101480952Y-62396666D01*
X101623810Y-62396666D01*
X101814286Y-62444285D01*
X101909524Y-62491904D01*
X102004762Y-62587142D01*
X102052381Y-62730000D01*
X102052381Y-62968095D01*
X101385714Y-61539523D02*
X102052381Y-61539523D01*
X101004762Y-61777619D02*
X101719048Y-62015714D01*
X101719048Y-61396666D01*
X102052381Y-31472095D02*
X101052381Y-31472095D01*
X101052381Y-31234000D01*
X101100000Y-31091142D01*
X101195238Y-30995904D01*
X101290476Y-30948285D01*
X101480952Y-30900666D01*
X101623810Y-30900666D01*
X101814286Y-30948285D01*
X101909524Y-30995904D01*
X102004762Y-31091142D01*
X102052381Y-31234000D01*
X102052381Y-31472095D01*
X101052381Y-29995904D02*
X101052381Y-30472095D01*
X101528571Y-30519714D01*
X101480952Y-30472095D01*
X101433333Y-30376857D01*
X101433333Y-30138761D01*
X101480952Y-30043523D01*
X101528571Y-29995904D01*
X101623810Y-29948285D01*
X101861905Y-29948285D01*
X101957143Y-29995904D01*
X102004762Y-30043523D01*
X102052381Y-30138761D01*
X102052381Y-30376857D01*
X102004762Y-30472095D01*
X101957143Y-30519714D01*
X96797905Y-70556381D02*
X96797905Y-69556381D01*
X97178858Y-69556381D01*
X97274096Y-69604000D01*
X97321715Y-69651619D01*
X97369334Y-69746857D01*
X97369334Y-69889714D01*
X97321715Y-69984952D01*
X97274096Y-70032571D01*
X97178858Y-70080190D01*
X96797905Y-70080190D01*
X98321715Y-70556381D02*
X97750286Y-70556381D01*
X98036000Y-70556381D02*
X98036000Y-69556381D01*
X97940762Y-69699238D01*
X97845524Y-69794476D01*
X97750286Y-69842095D01*
X101877905Y-76652381D02*
X101877905Y-75652381D01*
X102258858Y-75652381D01*
X102354096Y-75700000D01*
X102401715Y-75747619D01*
X102449334Y-75842857D01*
X102449334Y-75985714D01*
X102401715Y-76080952D01*
X102354096Y-76128571D01*
X102258858Y-76176190D01*
X101877905Y-76176190D01*
X102830286Y-75747619D02*
X102877905Y-75700000D01*
X102973143Y-75652381D01*
X103211239Y-75652381D01*
X103306477Y-75700000D01*
X103354096Y-75747619D01*
X103401715Y-75842857D01*
X103401715Y-75938095D01*
X103354096Y-76080952D01*
X102782667Y-76652381D01*
X103401715Y-76652381D01*
X96289905Y-28900381D02*
X96289905Y-27900381D01*
X96670858Y-27900381D01*
X96766096Y-27948000D01*
X96813715Y-27995619D01*
X96861334Y-28090857D01*
X96861334Y-28233714D01*
X96813715Y-28328952D01*
X96766096Y-28376571D01*
X96670858Y-28424190D01*
X96289905Y-28424190D01*
X97194667Y-27900381D02*
X97813715Y-27900381D01*
X97480381Y-28281333D01*
X97623239Y-28281333D01*
X97718477Y-28328952D01*
X97766096Y-28376571D01*
X97813715Y-28471810D01*
X97813715Y-28709905D01*
X97766096Y-28805143D01*
X97718477Y-28852762D01*
X97623239Y-28900381D01*
X97337524Y-28900381D01*
X97242286Y-28852762D01*
X97194667Y-28805143D01*
X101877905Y-30932381D02*
X101877905Y-29932381D01*
X102258858Y-29932381D01*
X102354096Y-29980000D01*
X102401715Y-30027619D01*
X102449334Y-30122857D01*
X102449334Y-30265714D01*
X102401715Y-30360952D01*
X102354096Y-30408571D01*
X102258858Y-30456190D01*
X101877905Y-30456190D01*
X103306477Y-30265714D02*
X103306477Y-30932381D01*
X103068381Y-29884762D02*
X102830286Y-30599048D01*
X103449334Y-30599048D01*
X100234762Y-55665619D02*
X100139524Y-55618000D01*
X100044286Y-55522762D01*
X99901429Y-55379905D01*
X99806190Y-55332286D01*
X99710952Y-55332286D01*
X99758571Y-55570381D02*
X99663333Y-55522762D01*
X99568095Y-55427524D01*
X99520476Y-55237048D01*
X99520476Y-54903714D01*
X99568095Y-54713238D01*
X99663333Y-54618000D01*
X99758571Y-54570381D01*
X99949048Y-54570381D01*
X100044286Y-54618000D01*
X100139524Y-54713238D01*
X100187143Y-54903714D01*
X100187143Y-55237048D01*
X100139524Y-55427524D01*
X100044286Y-55522762D01*
X99949048Y-55570381D01*
X99758571Y-55570381D01*
X101139524Y-55570381D02*
X100568095Y-55570381D01*
X100853809Y-55570381D02*
X100853809Y-54570381D01*
X100758571Y-54713238D01*
X100663333Y-54808476D01*
X100568095Y-54856095D01*
X91344762Y-54903619D02*
X91249524Y-54856000D01*
X91154286Y-54760762D01*
X91011429Y-54617905D01*
X90916190Y-54570286D01*
X90820952Y-54570286D01*
X90868571Y-54808381D02*
X90773333Y-54760762D01*
X90678095Y-54665524D01*
X90630476Y-54475048D01*
X90630476Y-54141714D01*
X90678095Y-53951238D01*
X90773333Y-53856000D01*
X90868571Y-53808381D01*
X91059048Y-53808381D01*
X91154286Y-53856000D01*
X91249524Y-53951238D01*
X91297143Y-54141714D01*
X91297143Y-54475048D01*
X91249524Y-54665524D01*
X91154286Y-54760762D01*
X91059048Y-54808381D01*
X90868571Y-54808381D01*
X91678095Y-53903619D02*
X91725714Y-53856000D01*
X91820952Y-53808381D01*
X92059048Y-53808381D01*
X92154286Y-53856000D01*
X92201905Y-53903619D01*
X92249524Y-53998857D01*
X92249524Y-54094095D01*
X92201905Y-54236952D01*
X91630476Y-54808381D01*
X92249524Y-54808381D01*
X91598762Y-41949619D02*
X91503524Y-41902000D01*
X91408286Y-41806762D01*
X91265429Y-41663905D01*
X91170190Y-41616286D01*
X91074952Y-41616286D01*
X91122571Y-41854381D02*
X91027333Y-41806762D01*
X90932095Y-41711524D01*
X90884476Y-41521048D01*
X90884476Y-41187714D01*
X90932095Y-40997238D01*
X91027333Y-40902000D01*
X91122571Y-40854381D01*
X91313048Y-40854381D01*
X91408286Y-40902000D01*
X91503524Y-40997238D01*
X91551143Y-41187714D01*
X91551143Y-41521048D01*
X91503524Y-41711524D01*
X91408286Y-41806762D01*
X91313048Y-41854381D01*
X91122571Y-41854381D01*
X92408286Y-41187714D02*
X92408286Y-41854381D01*
X92170190Y-40806762D02*
X91932095Y-41521048D01*
X92551143Y-41521048D01*
X80716381Y-24042666D02*
X80240190Y-24376000D01*
X80716381Y-24614095D02*
X79716381Y-24614095D01*
X79716381Y-24233142D01*
X79764000Y-24137904D01*
X79811619Y-24090285D01*
X79906857Y-24042666D01*
X80049714Y-24042666D01*
X80144952Y-24090285D01*
X80192571Y-24137904D01*
X80240190Y-24233142D01*
X80240190Y-24614095D01*
X80716381Y-23090285D02*
X80716381Y-23661714D01*
X80716381Y-23376000D02*
X79716381Y-23376000D01*
X79859238Y-23471238D01*
X79954476Y-23566476D01*
X80002095Y-23661714D01*
X83764381Y-24042666D02*
X83288190Y-24376000D01*
X83764381Y-24614095D02*
X82764381Y-24614095D01*
X82764381Y-24233142D01*
X82812000Y-24137904D01*
X82859619Y-24090285D01*
X82954857Y-24042666D01*
X83097714Y-24042666D01*
X83192952Y-24090285D01*
X83240571Y-24137904D01*
X83288190Y-24233142D01*
X83288190Y-24614095D01*
X82859619Y-23661714D02*
X82812000Y-23614095D01*
X82764381Y-23518857D01*
X82764381Y-23280761D01*
X82812000Y-23185523D01*
X82859619Y-23137904D01*
X82954857Y-23090285D01*
X83050095Y-23090285D01*
X83192952Y-23137904D01*
X83764381Y-23709333D01*
X83764381Y-23090285D01*
X80462381Y-41314666D02*
X79986190Y-41648000D01*
X80462381Y-41886095D02*
X79462381Y-41886095D01*
X79462381Y-41505142D01*
X79510000Y-41409904D01*
X79557619Y-41362285D01*
X79652857Y-41314666D01*
X79795714Y-41314666D01*
X79890952Y-41362285D01*
X79938571Y-41409904D01*
X79986190Y-41505142D01*
X79986190Y-41886095D01*
X79462381Y-40981333D02*
X79462381Y-40362285D01*
X79843333Y-40695619D01*
X79843333Y-40552761D01*
X79890952Y-40457523D01*
X79938571Y-40409904D01*
X80033810Y-40362285D01*
X80271905Y-40362285D01*
X80367143Y-40409904D01*
X80414762Y-40457523D01*
X80462381Y-40552761D01*
X80462381Y-40838476D01*
X80414762Y-40933714D01*
X80367143Y-40981333D01*
X86812381Y-40806666D02*
X86336190Y-41140000D01*
X86812381Y-41378095D02*
X85812381Y-41378095D01*
X85812381Y-40997142D01*
X85860000Y-40901904D01*
X85907619Y-40854285D01*
X86002857Y-40806666D01*
X86145714Y-40806666D01*
X86240952Y-40854285D01*
X86288571Y-40901904D01*
X86336190Y-40997142D01*
X86336190Y-41378095D01*
X86145714Y-39949523D02*
X86812381Y-39949523D01*
X85764762Y-40187619D02*
X86479048Y-40425714D01*
X86479048Y-39806666D01*
X80716381Y-57316666D02*
X80240190Y-57650000D01*
X80716381Y-57888095D02*
X79716381Y-57888095D01*
X79716381Y-57507142D01*
X79764000Y-57411904D01*
X79811619Y-57364285D01*
X79906857Y-57316666D01*
X80049714Y-57316666D01*
X80144952Y-57364285D01*
X80192571Y-57411904D01*
X80240190Y-57507142D01*
X80240190Y-57888095D01*
X79716381Y-56411904D02*
X79716381Y-56888095D01*
X80192571Y-56935714D01*
X80144952Y-56888095D01*
X80097333Y-56792857D01*
X80097333Y-56554761D01*
X80144952Y-56459523D01*
X80192571Y-56411904D01*
X80287810Y-56364285D01*
X80525905Y-56364285D01*
X80621143Y-56411904D01*
X80668762Y-56459523D01*
X80716381Y-56554761D01*
X80716381Y-56792857D01*
X80668762Y-56888095D01*
X80621143Y-56935714D01*
X86812381Y-57570666D02*
X86336190Y-57904000D01*
X86812381Y-58142095D02*
X85812381Y-58142095D01*
X85812381Y-57761142D01*
X85860000Y-57665904D01*
X85907619Y-57618285D01*
X86002857Y-57570666D01*
X86145714Y-57570666D01*
X86240952Y-57618285D01*
X86288571Y-57665904D01*
X86336190Y-57761142D01*
X86336190Y-58142095D01*
X85812381Y-56713523D02*
X85812381Y-56904000D01*
X85860000Y-56999238D01*
X85907619Y-57046857D01*
X86050476Y-57142095D01*
X86240952Y-57189714D01*
X86621905Y-57189714D01*
X86717143Y-57142095D01*
X86764762Y-57094476D01*
X86812381Y-56999238D01*
X86812381Y-56808761D01*
X86764762Y-56713523D01*
X86717143Y-56665904D01*
X86621905Y-56618285D01*
X86383810Y-56618285D01*
X86288571Y-56665904D01*
X86240952Y-56713523D01*
X86193333Y-56808761D01*
X86193333Y-56999238D01*
X86240952Y-57094476D01*
X86288571Y-57142095D01*
X86383810Y-57189714D01*
X86812381Y-24042666D02*
X86336190Y-24376000D01*
X86812381Y-24614095D02*
X85812381Y-24614095D01*
X85812381Y-24233142D01*
X85860000Y-24137904D01*
X85907619Y-24090285D01*
X86002857Y-24042666D01*
X86145714Y-24042666D01*
X86240952Y-24090285D01*
X86288571Y-24137904D01*
X86336190Y-24233142D01*
X86336190Y-24614095D01*
X85812381Y-23709333D02*
X85812381Y-23042666D01*
X86812381Y-23471238D01*
X90368381Y-42838666D02*
X89892190Y-43172000D01*
X90368381Y-43410095D02*
X89368381Y-43410095D01*
X89368381Y-43029142D01*
X89416000Y-42933904D01*
X89463619Y-42886285D01*
X89558857Y-42838666D01*
X89701714Y-42838666D01*
X89796952Y-42886285D01*
X89844571Y-42933904D01*
X89892190Y-43029142D01*
X89892190Y-43410095D01*
X89796952Y-42267238D02*
X89749333Y-42362476D01*
X89701714Y-42410095D01*
X89606476Y-42457714D01*
X89558857Y-42457714D01*
X89463619Y-42410095D01*
X89416000Y-42362476D01*
X89368381Y-42267238D01*
X89368381Y-42076761D01*
X89416000Y-41981523D01*
X89463619Y-41933904D01*
X89558857Y-41886285D01*
X89606476Y-41886285D01*
X89701714Y-41933904D01*
X89749333Y-41981523D01*
X89796952Y-42076761D01*
X89796952Y-42267238D01*
X89844571Y-42362476D01*
X89892190Y-42410095D01*
X89987429Y-42457714D01*
X90177905Y-42457714D01*
X90273143Y-42410095D01*
X90320762Y-42362476D01*
X90368381Y-42267238D01*
X90368381Y-42076761D01*
X90320762Y-41981523D01*
X90273143Y-41933904D01*
X90177905Y-41886285D01*
X89987429Y-41886285D01*
X89892190Y-41933904D01*
X89844571Y-41981523D01*
X89796952Y-42076761D01*
X90368381Y-59094666D02*
X89892190Y-59428000D01*
X90368381Y-59666095D02*
X89368381Y-59666095D01*
X89368381Y-59285142D01*
X89416000Y-59189904D01*
X89463619Y-59142285D01*
X89558857Y-59094666D01*
X89701714Y-59094666D01*
X89796952Y-59142285D01*
X89844571Y-59189904D01*
X89892190Y-59285142D01*
X89892190Y-59666095D01*
X90368381Y-58618476D02*
X90368381Y-58428000D01*
X90320762Y-58332761D01*
X90273143Y-58285142D01*
X90130286Y-58189904D01*
X89939810Y-58142285D01*
X89558857Y-58142285D01*
X89463619Y-58189904D01*
X89416000Y-58237523D01*
X89368381Y-58332761D01*
X89368381Y-58523238D01*
X89416000Y-58618476D01*
X89463619Y-58666095D01*
X89558857Y-58713714D01*
X89796952Y-58713714D01*
X89892190Y-58666095D01*
X89939810Y-58618476D01*
X89987429Y-58523238D01*
X89987429Y-58332761D01*
X89939810Y-58237523D01*
X89892190Y-58189904D01*
X89796952Y-58142285D01*
X103576381Y-60078857D02*
X103100190Y-60412191D01*
X103576381Y-60650286D02*
X102576381Y-60650286D01*
X102576381Y-60269333D01*
X102624000Y-60174095D01*
X102671619Y-60126476D01*
X102766857Y-60078857D01*
X102909714Y-60078857D01*
X103004952Y-60126476D01*
X103052571Y-60174095D01*
X103100190Y-60269333D01*
X103100190Y-60650286D01*
X103576381Y-59126476D02*
X103576381Y-59697905D01*
X103576381Y-59412191D02*
X102576381Y-59412191D01*
X102719238Y-59507429D01*
X102814476Y-59602667D01*
X102862095Y-59697905D01*
X102576381Y-58507429D02*
X102576381Y-58412190D01*
X102624000Y-58316952D01*
X102671619Y-58269333D01*
X102766857Y-58221714D01*
X102957333Y-58174095D01*
X103195429Y-58174095D01*
X103385905Y-58221714D01*
X103481143Y-58269333D01*
X103528762Y-58316952D01*
X103576381Y-58412190D01*
X103576381Y-58507429D01*
X103528762Y-58602667D01*
X103481143Y-58650286D01*
X103385905Y-58697905D01*
X103195429Y-58745524D01*
X102957333Y-58745524D01*
X102766857Y-58697905D01*
X102671619Y-58650286D01*
X102624000Y-58602667D01*
X102576381Y-58507429D01*
X103576381Y-52966857D02*
X103100190Y-53300191D01*
X103576381Y-53538286D02*
X102576381Y-53538286D01*
X102576381Y-53157333D01*
X102624000Y-53062095D01*
X102671619Y-53014476D01*
X102766857Y-52966857D01*
X102909714Y-52966857D01*
X103004952Y-53014476D01*
X103052571Y-53062095D01*
X103100190Y-53157333D01*
X103100190Y-53538286D01*
X103576381Y-52014476D02*
X103576381Y-52585905D01*
X103576381Y-52300191D02*
X102576381Y-52300191D01*
X102719238Y-52395429D01*
X102814476Y-52490667D01*
X102862095Y-52585905D01*
X103576381Y-51062095D02*
X103576381Y-51633524D01*
X103576381Y-51347810D02*
X102576381Y-51347810D01*
X102719238Y-51443048D01*
X102814476Y-51538286D01*
X102862095Y-51633524D01*
X103576381Y-46870857D02*
X103100190Y-47204191D01*
X103576381Y-47442286D02*
X102576381Y-47442286D01*
X102576381Y-47061333D01*
X102624000Y-46966095D01*
X102671619Y-46918476D01*
X102766857Y-46870857D01*
X102909714Y-46870857D01*
X103004952Y-46918476D01*
X103052571Y-46966095D01*
X103100190Y-47061333D01*
X103100190Y-47442286D01*
X103576381Y-45918476D02*
X103576381Y-46489905D01*
X103576381Y-46204191D02*
X102576381Y-46204191D01*
X102719238Y-46299429D01*
X102814476Y-46394667D01*
X102862095Y-46489905D01*
X102671619Y-45537524D02*
X102624000Y-45489905D01*
X102576381Y-45394667D01*
X102576381Y-45156571D01*
X102624000Y-45061333D01*
X102671619Y-45013714D01*
X102766857Y-44966095D01*
X102862095Y-44966095D01*
X103004952Y-45013714D01*
X103576381Y-45585143D01*
X103576381Y-44966095D01*
X73112381Y-35305905D02*
X73921905Y-35305905D01*
X74017143Y-35258286D01*
X74064762Y-35210667D01*
X74112381Y-35115429D01*
X74112381Y-34924952D01*
X74064762Y-34829714D01*
X74017143Y-34782095D01*
X73921905Y-34734476D01*
X73112381Y-34734476D01*
X74112381Y-33734476D02*
X74112381Y-34305905D01*
X74112381Y-34020191D02*
X73112381Y-34020191D01*
X73255238Y-34115429D01*
X73350476Y-34210667D01*
X73398095Y-34305905D01*
X73112381Y-52069905D02*
X73921905Y-52069905D01*
X74017143Y-52022286D01*
X74064762Y-51974667D01*
X74112381Y-51879429D01*
X74112381Y-51688952D01*
X74064762Y-51593714D01*
X74017143Y-51546095D01*
X73921905Y-51498476D01*
X73112381Y-51498476D01*
X73207619Y-51069905D02*
X73160000Y-51022286D01*
X73112381Y-50927048D01*
X73112381Y-50688952D01*
X73160000Y-50593714D01*
X73207619Y-50546095D01*
X73302857Y-50498476D01*
X73398095Y-50498476D01*
X73540952Y-50546095D01*
X74112381Y-51117524D01*
X74112381Y-50498476D01*
X73112381Y-68579905D02*
X73921905Y-68579905D01*
X74017143Y-68532286D01*
X74064762Y-68484667D01*
X74112381Y-68389429D01*
X74112381Y-68198952D01*
X74064762Y-68103714D01*
X74017143Y-68056095D01*
X73921905Y-68008476D01*
X73112381Y-68008476D01*
X73112381Y-67627524D02*
X73112381Y-67008476D01*
X73493333Y-67341810D01*
X73493333Y-67198952D01*
X73540952Y-67103714D01*
X73588571Y-67056095D01*
X73683810Y-67008476D01*
X73921905Y-67008476D01*
X74017143Y-67056095D01*
X74064762Y-67103714D01*
X74112381Y-67198952D01*
X74112381Y-67484667D01*
X74064762Y-67579905D01*
X74017143Y-67627524D01*
X62166667Y-46124762D02*
X62309524Y-46172381D01*
X62547620Y-46172381D01*
X62642858Y-46124762D01*
X62690477Y-46077143D01*
X62738096Y-45981905D01*
X62738096Y-45886667D01*
X62690477Y-45791429D01*
X62642858Y-45743810D01*
X62547620Y-45696190D01*
X62357143Y-45648571D01*
X62261905Y-45600952D01*
X62214286Y-45553333D01*
X62166667Y-45458095D01*
X62166667Y-45362857D01*
X62214286Y-45267619D01*
X62261905Y-45220000D01*
X62357143Y-45172381D01*
X62595239Y-45172381D01*
X62738096Y-45220000D01*
X63071429Y-45172381D02*
X63309524Y-46172381D01*
X63500001Y-45458095D01*
X63690477Y-46172381D01*
X63928572Y-45172381D01*
X64833334Y-46172381D02*
X64261905Y-46172381D01*
X64547619Y-46172381D02*
X64547619Y-45172381D01*
X64452381Y-45315238D01*
X64357143Y-45410476D01*
X64261905Y-45458095D01*
X62166667Y-61364762D02*
X62309524Y-61412381D01*
X62547620Y-61412381D01*
X62642858Y-61364762D01*
X62690477Y-61317143D01*
X62738096Y-61221905D01*
X62738096Y-61126667D01*
X62690477Y-61031429D01*
X62642858Y-60983810D01*
X62547620Y-60936190D01*
X62357143Y-60888571D01*
X62261905Y-60840952D01*
X62214286Y-60793333D01*
X62166667Y-60698095D01*
X62166667Y-60602857D01*
X62214286Y-60507619D01*
X62261905Y-60460000D01*
X62357143Y-60412381D01*
X62595239Y-60412381D01*
X62738096Y-60460000D01*
X63071429Y-60412381D02*
X63309524Y-61412381D01*
X63500001Y-60698095D01*
X63690477Y-61412381D01*
X63928572Y-60412381D01*
X64261905Y-60507619D02*
X64309524Y-60460000D01*
X64404762Y-60412381D01*
X64642858Y-60412381D01*
X64738096Y-60460000D01*
X64785715Y-60507619D01*
X64833334Y-60602857D01*
X64833334Y-60698095D01*
X64785715Y-60840952D01*
X64214286Y-61412381D01*
X64833334Y-61412381D01*
X62166667Y-76604762D02*
X62309524Y-76652381D01*
X62547620Y-76652381D01*
X62642858Y-76604762D01*
X62690477Y-76557143D01*
X62738096Y-76461905D01*
X62738096Y-76366667D01*
X62690477Y-76271429D01*
X62642858Y-76223810D01*
X62547620Y-76176190D01*
X62357143Y-76128571D01*
X62261905Y-76080952D01*
X62214286Y-76033333D01*
X62166667Y-75938095D01*
X62166667Y-75842857D01*
X62214286Y-75747619D01*
X62261905Y-75700000D01*
X62357143Y-75652381D01*
X62595239Y-75652381D01*
X62738096Y-75700000D01*
X63071429Y-75652381D02*
X63309524Y-76652381D01*
X63500001Y-75938095D01*
X63690477Y-76652381D01*
X63928572Y-75652381D01*
X64214286Y-75652381D02*
X64833334Y-75652381D01*
X64500000Y-76033333D01*
X64642858Y-76033333D01*
X64738096Y-76080952D01*
X64785715Y-76128571D01*
X64833334Y-76223810D01*
X64833334Y-76461905D01*
X64785715Y-76557143D01*
X64738096Y-76604762D01*
X64642858Y-76652381D01*
X64357143Y-76652381D01*
X64261905Y-76604762D01*
X64214286Y-76557143D01*
X87717334Y-37949143D02*
X87669715Y-37996762D01*
X87526858Y-38044381D01*
X87431620Y-38044381D01*
X87288762Y-37996762D01*
X87193524Y-37901524D01*
X87145905Y-37806286D01*
X87098286Y-37615810D01*
X87098286Y-37472952D01*
X87145905Y-37282476D01*
X87193524Y-37187238D01*
X87288762Y-37092000D01*
X87431620Y-37044381D01*
X87526858Y-37044381D01*
X87669715Y-37092000D01*
X87717334Y-37139619D01*
X88098286Y-37139619D02*
X88145905Y-37092000D01*
X88241143Y-37044381D01*
X88479239Y-37044381D01*
X88574477Y-37092000D01*
X88622096Y-37139619D01*
X88669715Y-37234857D01*
X88669715Y-37330095D01*
X88622096Y-37472952D01*
X88050667Y-38044381D01*
X88669715Y-38044381D01*
X87717334Y-54205143D02*
X87669715Y-54252762D01*
X87526858Y-54300381D01*
X87431620Y-54300381D01*
X87288762Y-54252762D01*
X87193524Y-54157524D01*
X87145905Y-54062286D01*
X87098286Y-53871810D01*
X87098286Y-53728952D01*
X87145905Y-53538476D01*
X87193524Y-53443238D01*
X87288762Y-53348000D01*
X87431620Y-53300381D01*
X87526858Y-53300381D01*
X87669715Y-53348000D01*
X87717334Y-53395619D01*
X88574477Y-53633714D02*
X88574477Y-54300381D01*
X88336381Y-53252762D02*
X88098286Y-53967048D01*
X88717334Y-53967048D01*
X83145334Y-77065143D02*
X83097715Y-77112762D01*
X82954858Y-77160381D01*
X82859620Y-77160381D01*
X82716762Y-77112762D01*
X82621524Y-77017524D01*
X82573905Y-76922286D01*
X82526286Y-76731810D01*
X82526286Y-76588952D01*
X82573905Y-76398476D01*
X82621524Y-76303238D01*
X82716762Y-76208000D01*
X82859620Y-76160381D01*
X82954858Y-76160381D01*
X83097715Y-76208000D01*
X83145334Y-76255619D01*
X84002477Y-76160381D02*
X83812000Y-76160381D01*
X83716762Y-76208000D01*
X83669143Y-76255619D01*
X83573905Y-76398476D01*
X83526286Y-76588952D01*
X83526286Y-76969905D01*
X83573905Y-77065143D01*
X83621524Y-77112762D01*
X83716762Y-77160381D01*
X83907239Y-77160381D01*
X84002477Y-77112762D01*
X84050096Y-77065143D01*
X84097715Y-76969905D01*
X84097715Y-76731810D01*
X84050096Y-76636571D01*
X84002477Y-76588952D01*
X83907239Y-76541333D01*
X83716762Y-76541333D01*
X83621524Y-76588952D01*
X83573905Y-76636571D01*
X83526286Y-76731810D01*
M02*
