G04 #@! TF.FileFunction,Soldermask,Top*
%FSLAX46Y46*%
G04 Gerber Fmt 4.6, Leading zero omitted, Abs format (unit mm)*
G04 Created by KiCad (PCBNEW 4.0.2-stable) date 2016-04-18 07:05:39*
%MOMM*%
G01*
G04 APERTURE LIST*
%ADD10C,0.100000*%
%ADD11O,3.448000X2.127200*%
%ADD12C,2.398980*%
%ADD13R,1.200100X1.200100*%
%ADD14R,1.700000X1.700000*%
%ADD15C,1.700000*%
%ADD16R,3.900120X3.900120*%
%ADD17R,1.598880X1.598880*%
%ADD18R,2.127200X2.127200*%
%ADD19O,2.127200X2.127200*%
%ADD20R,2.432000X2.432000*%
%ADD21O,2.432000X2.432000*%
%ADD22O,2.940000X2.432000*%
G04 APERTURE END LIST*
D10*
D11*
X69850000Y-38100000D03*
X69850000Y-43180000D03*
X57150000Y-38100000D03*
X57150000Y-43180000D03*
D12*
X127000000Y-34290000D03*
X134620000Y-34290000D03*
D13*
X124780000Y-31480760D03*
X126680000Y-31480760D03*
X125730000Y-29481780D03*
D14*
X74930000Y-38100000D03*
D15*
X74930000Y-40100000D03*
D14*
X104140000Y-26670000D03*
D15*
X104140000Y-28670000D03*
D14*
X74930000Y-53975000D03*
D15*
X74930000Y-55975000D03*
D14*
X104140000Y-43180000D03*
D15*
X104140000Y-45180000D03*
D14*
X74930000Y-71120000D03*
D15*
X74930000Y-73120000D03*
D14*
X104140000Y-59690000D03*
D15*
X104140000Y-61690000D03*
D16*
X70970140Y-29210000D03*
X64970660Y-29210000D03*
X67970400Y-33909000D03*
D17*
X109440980Y-28575000D03*
X111539020Y-28575000D03*
X109440980Y-44450000D03*
X111539020Y-44450000D03*
X109440980Y-60960000D03*
X111539020Y-60960000D03*
X137795000Y-64990980D03*
X137795000Y-67089020D03*
X137795000Y-33240980D03*
X137795000Y-35339020D03*
D18*
X119380000Y-59690000D03*
D19*
X121920000Y-59690000D03*
X119380000Y-62230000D03*
X121920000Y-62230000D03*
X119380000Y-64770000D03*
X121920000Y-64770000D03*
D20*
X144780000Y-71120000D03*
D21*
X144780000Y-73660000D03*
D18*
X119380000Y-27940000D03*
D19*
X121920000Y-27940000D03*
X119380000Y-30480000D03*
X121920000Y-30480000D03*
X119380000Y-33020000D03*
X121920000Y-33020000D03*
D20*
X144780000Y-25400000D03*
D21*
X144780000Y-27940000D03*
D13*
X124780000Y-63230760D03*
X126680000Y-63230760D03*
X125730000Y-61231780D03*
X129809240Y-61280000D03*
X129809240Y-63180000D03*
X131808220Y-62230000D03*
X129809240Y-29530000D03*
X129809240Y-31430000D03*
X131808220Y-30480000D03*
D12*
X91440000Y-26670000D03*
X99060000Y-26670000D03*
X99060000Y-31750000D03*
X91440000Y-31750000D03*
X91440000Y-43180000D03*
X99060000Y-43180000D03*
X99060000Y-48260000D03*
X91440000Y-48260000D03*
X91440000Y-59690000D03*
X99060000Y-59690000D03*
X99060000Y-64770000D03*
X91440000Y-64770000D03*
X102870000Y-33020000D03*
X110490000Y-33020000D03*
X102870000Y-49530000D03*
X110490000Y-49530000D03*
X102870000Y-66040000D03*
X110490000Y-66040000D03*
X116840000Y-68580000D03*
X124460000Y-68580000D03*
X127000000Y-66040000D03*
X134620000Y-66040000D03*
X124460000Y-36830000D03*
X116840000Y-36830000D03*
D11*
X69850000Y-52070000D03*
X69850000Y-57150000D03*
X57150000Y-52070000D03*
X57150000Y-57150000D03*
X69850000Y-66040000D03*
X69850000Y-71120000D03*
X57150000Y-66040000D03*
X57150000Y-71120000D03*
D22*
X86360000Y-30480000D03*
X86360000Y-27940000D03*
X86360000Y-33020000D03*
X86360000Y-46990000D03*
X86360000Y-44450000D03*
X86360000Y-49530000D03*
X86360000Y-63500000D03*
X86360000Y-60960000D03*
X86360000Y-66040000D03*
M02*
