G04 #@! TF.FileFunction,Copper,L1,Top,Signal*
%FSLAX46Y46*%
G04 Gerber Fmt 4.6, Leading zero omitted, Abs format (unit mm)*
G04 Created by KiCad (PCBNEW 4.0.2-stable) date 2016-04-18 20:08:14*
%MOMM*%
G01*
G04 APERTURE LIST*
%ADD10C,0.100000*%
%ADD11C,1.998980*%
%ADD12R,0.800100X0.800100*%
%ADD13R,1.300000X1.300000*%
%ADD14C,1.300000*%
%ADD15R,3.500120X3.500120*%
%ADD16R,1.198880X1.198880*%
%ADD17R,1.727200X1.727200*%
%ADD18O,1.727200X1.727200*%
%ADD19R,2.032000X2.032000*%
%ADD20O,2.032000X2.032000*%
%ADD21O,2.540000X2.032000*%
%ADD22C,1.524000*%
%ADD23C,0.685800*%
%ADD24C,0.152400*%
G04 APERTURE END LIST*
D10*
D11*
X101092000Y-46228000D03*
X93472000Y-46228000D03*
D12*
X92522000Y-43164760D03*
X94422000Y-43164760D03*
X93472000Y-41165780D03*
D13*
X74676000Y-37592000D03*
D14*
X74676000Y-39592000D03*
D13*
X82296000Y-36576000D03*
D14*
X82296000Y-38576000D03*
D13*
X74676000Y-54356000D03*
D14*
X74676000Y-56356000D03*
D13*
X82296000Y-52832000D03*
D14*
X82296000Y-54832000D03*
D13*
X74676000Y-71120000D03*
D14*
X74676000Y-73120000D03*
D13*
X82296000Y-69596000D03*
D14*
X82296000Y-71596000D03*
D15*
X70970140Y-27940000D03*
X64970660Y-27940000D03*
X67970400Y-32639000D03*
D16*
X90424000Y-31462980D03*
X90424000Y-33561020D03*
X90424000Y-47718980D03*
X90424000Y-49817020D03*
X90424000Y-64482980D03*
X90424000Y-66581020D03*
X101600000Y-63974980D03*
X101600000Y-66073020D03*
X101600000Y-34577020D03*
X101600000Y-32478980D03*
D17*
X96012000Y-62738000D03*
D18*
X98552000Y-62738000D03*
X96012000Y-65278000D03*
X98552000Y-65278000D03*
X96012000Y-67818000D03*
X98552000Y-67818000D03*
D19*
X102616000Y-71120000D03*
D20*
X102616000Y-73660000D03*
D17*
X96012000Y-30988000D03*
D18*
X98552000Y-30988000D03*
X96012000Y-33528000D03*
X98552000Y-33528000D03*
X96012000Y-36068000D03*
X98552000Y-36068000D03*
D19*
X102616000Y-25400000D03*
D20*
X102616000Y-27940000D03*
D12*
X96535240Y-54930000D03*
X96535240Y-56830000D03*
X98534220Y-55880000D03*
X94472760Y-56322000D03*
X94472760Y-54422000D03*
X92473780Y-55372000D03*
X96535240Y-41722000D03*
X96535240Y-43622000D03*
X98534220Y-42672000D03*
D11*
X81788000Y-33528000D03*
X81788000Y-25908000D03*
X84836000Y-25908000D03*
X84836000Y-33528000D03*
X81788000Y-49784000D03*
X81788000Y-42164000D03*
X84836000Y-42164000D03*
X84836000Y-49784000D03*
X81788000Y-66548000D03*
X81788000Y-58928000D03*
X84836000Y-58928000D03*
X84836000Y-66548000D03*
X87884000Y-33528000D03*
X87884000Y-25908000D03*
X87884000Y-49784000D03*
X87884000Y-42164000D03*
X87884000Y-66548000D03*
X87884000Y-58928000D03*
X93472000Y-59436000D03*
X101092000Y-59436000D03*
X101092000Y-52324000D03*
X93472000Y-52324000D03*
X101092000Y-39116000D03*
X93472000Y-39116000D03*
D21*
X77470000Y-30480000D03*
X77470000Y-27940000D03*
X77470000Y-33020000D03*
X77470000Y-46990000D03*
X77470000Y-44450000D03*
X77470000Y-49530000D03*
X77470000Y-63500000D03*
X77470000Y-60960000D03*
X77470000Y-66040000D03*
D22*
X70000000Y-37990000D03*
X70000000Y-43290000D03*
X70000000Y-53230000D03*
X70000000Y-58530000D03*
X70000000Y-68470000D03*
X70000000Y-73770000D03*
D23*
X101600000Y-30988000D03*
X101600000Y-67564000D03*
D24*
X74676000Y-37592000D02*
X74676000Y-30734000D01*
X74676000Y-30734000D02*
X77470000Y-27940000D01*
X101600000Y-32478980D02*
X101600000Y-30988000D01*
X101600000Y-66073020D02*
X101600000Y-67564000D01*
X101092000Y-52324000D02*
X101600000Y-52324000D01*
X101600000Y-52324000D02*
X102616000Y-53340000D01*
X102616000Y-62958980D02*
X101600000Y-63974980D01*
X102616000Y-53340000D02*
X102616000Y-62958980D01*
X94472760Y-54930000D02*
X94472760Y-54879240D01*
X94472760Y-54879240D02*
X97028000Y-52324000D01*
X97028000Y-52324000D02*
X101092000Y-52324000D01*
X101092000Y-46228000D02*
X102616000Y-44704000D01*
X102616000Y-35593020D02*
X101600000Y-34577020D01*
X102616000Y-44704000D02*
X102616000Y-35593020D01*
X96535240Y-43622000D02*
X96535240Y-46212760D01*
X96550480Y-46228000D02*
X101092000Y-46228000D01*
X96535240Y-46212760D02*
X96550480Y-46228000D01*
X98552000Y-67818000D02*
X98552000Y-65278000D01*
X98552000Y-62738000D02*
X98552000Y-65278000D01*
X98552000Y-62738000D02*
X98552000Y-61976000D01*
X98552000Y-61976000D02*
X101092000Y-59436000D01*
X98534220Y-55880000D02*
X98534220Y-56878220D01*
X98534220Y-56878220D02*
X101092000Y-59436000D01*
X93472000Y-41673780D02*
X93472000Y-39116000D01*
X96535240Y-54930000D02*
X96454000Y-54930000D01*
X96454000Y-54930000D02*
X97536000Y-56012000D01*
X97536000Y-56012000D02*
X97536000Y-57912000D01*
X97536000Y-57912000D02*
X92473780Y-57912000D01*
X92473780Y-55880000D02*
X92473780Y-57912000D01*
X92473780Y-57912000D02*
X92473780Y-58437780D01*
X92473780Y-58437780D02*
X93472000Y-59436000D01*
X94472760Y-56830000D02*
X94422000Y-56830000D01*
X94422000Y-56830000D02*
X93472000Y-55880000D01*
X93472000Y-55880000D02*
X93472000Y-52324000D01*
X94472760Y-56830000D02*
X96535240Y-56830000D01*
X92522000Y-43672760D02*
X92522000Y-43622000D01*
X92522000Y-43622000D02*
X93472000Y-42672000D01*
X93472000Y-42672000D02*
X93980000Y-42672000D01*
X93980000Y-42672000D02*
X96012000Y-40640000D01*
X96012000Y-40640000D02*
X97500440Y-40640000D01*
X97500440Y-40640000D02*
X98534220Y-41673780D01*
X98534220Y-42672000D02*
X98534220Y-41673780D01*
X98534220Y-41673780D02*
X101092000Y-39116000D01*
X94422000Y-43672760D02*
X94584480Y-43672760D01*
X94584480Y-43672760D02*
X96535240Y-41722000D01*
X94422000Y-45278000D02*
X93472000Y-46228000D01*
X94422000Y-43672760D02*
X94422000Y-45278000D01*
M02*
