M48
;DRILL file {KiCad 4.0.2-stable} date 2016-04-18 20:08:23
;FORMAT={-:-/ absolute / inch / decimal}
FMAT,2
INCH,TZ
T1C0.013
T2C0.031
T3C0.033
T4C0.039
T5C0.040
T6C0.045
%
G90
G05
M72
T1
X4.Y-1.22
X4.Y-2.66
T2
X2.94Y-1.48
X2.94Y-1.5587
X2.94Y-2.14
X2.94Y-2.2187
X2.94Y-2.8
X2.94Y-2.8787
X3.24Y-1.44
X3.24Y-1.5187
X3.24Y-2.08
X3.24Y-2.1587
X3.24Y-2.74
X3.24Y-2.8187
T3
X2.7559Y-1.4957
X2.7559Y-1.7043
X2.7559Y-2.0957
X2.7559Y-2.3043
X2.7559Y-2.6957
X2.7559Y-2.9043
T4
X3.22Y-1.02
X3.22Y-1.32
X3.22Y-1.66
X3.22Y-1.96
X3.22Y-2.32
X3.22Y-2.62
X3.34Y-1.02
X3.34Y-1.32
X3.34Y-1.66
X3.34Y-1.96
X3.34Y-2.32
X3.34Y-2.62
X3.46Y-1.02
X3.46Y-1.32
X3.46Y-1.66
X3.46Y-1.96
X3.46Y-2.32
X3.46Y-2.62
X3.68Y-1.54
X3.68Y-1.82
X3.68Y-2.06
X3.68Y-2.34
X3.98Y-1.54
X3.98Y-1.82
X3.98Y-2.06
X3.98Y-2.34
T5
X3.78Y-1.22
X3.78Y-1.32
X3.78Y-1.42
X3.78Y-2.47
X3.78Y-2.57
X3.78Y-2.67
X3.88Y-1.22
X3.88Y-1.32
X3.88Y-1.42
X3.88Y-2.47
X3.88Y-2.57
X3.88Y-2.67
X4.04Y-1.
X4.04Y-1.1
X4.04Y-2.8
X4.04Y-2.9
T6
X3.05Y-1.1
X3.05Y-1.2
X3.05Y-1.3
X3.05Y-1.75
X3.05Y-1.85
X3.05Y-1.95
X3.05Y-2.4
X3.05Y-2.5
X3.05Y-2.6
T4
X2.5579Y-1.0606G85X2.5579Y-1.1394
G05
X2.6366Y-1.285G85X2.7153Y-1.285
G05
X2.7941Y-1.0606G85X2.7941Y-1.1394
G05
T0
M30
