M48
;DRILL file {KiCad 4.0.2-stable} date 2016-04-27 07:39:24
;FORMAT={-:-/ absolute / inch / decimal}
FMAT,2
INCH,TZ
T1C0.013
T2C0.031
T3C0.033
T4C0.039
T5C0.040
T6C0.045
T7C0.083
%
G90
G05
M72
T1
X3.56Y-1.38
X3.56Y-2.02
X3.56Y-2.68
X3.72Y-1.6
X3.96Y-2.66
X3.98Y-2.2
X4.Y-1.22
X4.06Y-2.52
T2
X2.94Y-2.8
X2.94Y-2.8787
X2.945Y-1.485
X2.945Y-1.5637
X2.945Y-2.135
X2.945Y-2.2137
X3.28Y-1.43
X3.28Y-1.5284
X3.28Y-2.09
X3.28Y-2.1884
X3.28Y-2.745
X3.28Y-2.8434
T3
X2.7559Y-1.4957
X2.7559Y-1.7043
X2.7559Y-2.0957
X2.7559Y-2.3043
X2.7559Y-2.6957
X2.7559Y-2.9043
T4
X3.22Y-1.005
X3.22Y-1.305
X3.22Y-1.66
X3.22Y-1.96
X3.22Y-2.32
X3.22Y-2.62
X3.34Y-1.005
X3.34Y-1.305
X3.34Y-1.66
X3.34Y-1.96
X3.34Y-2.32
X3.34Y-2.62
X3.46Y-1.005
X3.46Y-1.305
X3.46Y-1.66
X3.46Y-1.96
X3.46Y-2.32
X3.46Y-2.62
X3.68Y-1.54
X3.68Y-1.81
X3.68Y-2.06
X3.68Y-2.34
X3.98Y-1.54
X3.98Y-1.81
X3.98Y-2.06
X3.98Y-2.34
T5
X3.78Y-1.22
X3.78Y-1.32
X3.78Y-1.42
X3.78Y-2.47
X3.78Y-2.57
X3.78Y-2.67
X3.88Y-1.22
X3.88Y-1.32
X3.88Y-1.42
X3.88Y-2.47
X3.88Y-2.57
X3.88Y-2.67
X4.04Y-1.
X4.04Y-1.1
X4.04Y-2.8
X4.04Y-2.9
T6
X3.05Y-1.1
X3.05Y-1.2
X3.05Y-1.3
X3.05Y-1.75
X3.05Y-1.85
X3.05Y-1.95
X3.05Y-2.4
X3.05Y-2.5
X3.05Y-2.6
T7
X2.5579Y-1.1
X2.676Y-1.285
X2.7941Y-1.1
T0
M30
